STARTFONT 2.1
FONT -Baekmuk-Batang-Medium-R-Normal--18-180-75-75-M-180-ksx1001.1997-0
SIZE 18 75 75
FONTBOUNDINGBOX 18 18 0 -4
STARTPROPERTIES 18
FOUNDRY "Baekmuk"
FAMILY_NAME "Batang"
WEIGHT_NAME "Medium"
SLANT "R"
SETWIDTH_NAME "Normal"
ADD_STYLE_NAME ""
PIXEL_SIZE 18
POINT_SIZE 180
RESOLUTION_X 75
RESOLUTION_Y 75
SPACING "M"
AVERAGE_WIDTH 180
CHARSET_REGISTRY "ksx1001.1997"
CHARSET_ENCODING "0"
DEFAULT_CHAR 8481
FONT_ASCENT 14
FONT_DESCENT 3
COPYRIGHT "(c)Hwan Design Inc. and Mizi Research Inc."
ENDPROPERTIES
CHARS 8224
STARTCHAR 3000
ENCODING 8481
SWIDTH 1800 0
DWIDTH 18 0
BBX 0 0 0 0
BITMAP
ENDCHAR
STARTCHAR 3001
ENCODING 8482
SWIDTH 1800 0
DWIDTH 18 0
BBX 3 3 13 11
BITMAP
80
60
20
ENDCHAR
STARTCHAR 3002
ENCODING 8483
SWIDTH 1800 0
DWIDTH 18 0
BBX 4 4 12 10
BITMAP
60
90
90
60
ENDCHAR
STARTCHAR 00B7
ENCODING 8484
SWIDTH 1800 0
DWIDTH 18 0
BBX 3 3 8 4
BITMAP
40
E0
E0
ENDCHAR
STARTCHAR 2025
ENCODING 8485
SWIDTH 1800 0
DWIDTH 18 0
BBX 9 2 4 4
BITMAP
C080
C080
ENDCHAR
STARTCHAR 2026
ENCODING 8486
SWIDTH 1800 0
DWIDTH 18 0
BBX 14 2 2 4
BITMAP
8104
8104
ENDCHAR
STARTCHAR 00A8
ENCODING 8487
SWIDTH 1800 0
DWIDTH 18 0
BBX 8 2 5 4
BITMAP
81
81
ENDCHAR
STARTCHAR 3003
ENCODING 8488
SWIDTH 1800 0
DWIDTH 18 0
BBX 5 6 6 2
BITMAP
68
48
48
50
90
80
ENDCHAR
STARTCHAR 00AD
ENCODING 8489
SWIDTH 1800 0
DWIDTH 18 0
BBX 8 1 5 5
BITMAP
FF
ENDCHAR
STARTCHAR 2015
ENCODING 8490
SWIDTH 1800 0
DWIDTH 18 0
BBX 18 1 0 5
BITMAP
FFFFC0
ENDCHAR
STARTCHAR 2225
ENCODING 8491
SWIDTH 1800 0
DWIDTH 18 0
BBX 4 15 7 -2
BITMAP
90
90
90
90
90
90
90
90
90
90
90
90
90
90
90
ENDCHAR
STARTCHAR FF3C
ENCODING 8492
SWIDTH 1800 0
DWIDTH 18 0
BBX 15 14 2 -2
BITMAP
8000
4000
2000
1000
0800
0400
0200
0100
0080
0040
0030
0018
0004
0002
ENDCHAR
STARTCHAR 223C
ENCODING 8493
SWIDTH 1800 0
DWIDTH 18 0
BBX 11 3 4 4
BITMAP
7020
8C40
0780
ENDCHAR
STARTCHAR 2018
ENCODING 8494
SWIDTH 1800 0
DWIDTH 18 0
BBX 2 3 12 10
BITMAP
C0
C0
C0
ENDCHAR
STARTCHAR 2019
ENCODING 8495
SWIDTH 1800 0
DWIDTH 18 0
BBX 2 4 4 10
BITMAP
C0
C0
80
80
ENDCHAR
STARTCHAR 201C
ENCODING 8496
SWIDTH 1800 0
DWIDTH 18 0
BBX 6 4 10 10
BITMAP
44
88
CC
4C
ENDCHAR
STARTCHAR 201D
ENCODING 8497
SWIDTH 1800 0
DWIDTH 18 0
BBX 6 5 2 10
BITMAP
0C
CC
C8
88
80
ENDCHAR
STARTCHAR 3014
ENCODING 8498
SWIDTH 1800 0
DWIDTH 18 0
BBX 4 16 12 -3
BITMAP
20
C0
80
80
80
80
80
80
80
80
80
80
80
80
60
10
ENDCHAR
STARTCHAR 3015
ENCODING 8499
SWIDTH 1800 0
DWIDTH 18 0
BBX 2 15 3 -2
BITMAP
C0
40
40
40
40
40
40
40
40
40
40
40
40
40
C0
ENDCHAR
STARTCHAR 3008
ENCODING 8500
SWIDTH 1800 0
DWIDTH 18 0
BBX 7 15 10 -2
BITMAP
02
04
08
08
10
20
40
80
40
20
10
08
04
04
02
ENDCHAR
STARTCHAR 3009
ENCODING 8501
SWIDTH 1800 0
DWIDTH 18 0
BBX 6 16 1 -3
BITMAP
80
40
40
20
10
08
08
04
04
04
08
10
20
40
40
80
ENDCHAR
STARTCHAR 300A
ENCODING 8502
SWIDTH 1800 0
DWIDTH 18 0
BBX 7 16 10 -3
BITMAP
0A
0C
14
28
28
50
60
A0
A0
50
50
28
28
14
0A
08
ENDCHAR
STARTCHAR 300B
ENCODING 8503
SWIDTH 1800 0
DWIDTH 18 0
BBX 7 16 1 -3
BITMAP
80
A0
50
50
28
18
14
0A
0C
14
18
28
50
60
A0
80
ENDCHAR
STARTCHAR 300C
ENCODING 8504
SWIDTH 1800 0
DWIDTH 18 0
BBX 6 8 11 6
BITMAP
FC
80
80
80
80
80
80
80
ENDCHAR
STARTCHAR 300D
ENCODING 8505
SWIDTH 1800 0
DWIDTH 18 0
BBX 6 8 1 -3
BITMAP
04
04
04
04
04
04
04
FC
ENDCHAR
STARTCHAR 300E
ENCODING 8506
SWIDTH 1800 0
DWIDTH 18 0
BBX 6 8 11 6
BITMAP
FC
FC
C0
C0
C0
C0
C0
C0
ENDCHAR
STARTCHAR 300F
ENCODING 8507
SWIDTH 1800 0
DWIDTH 18 0
BBX 6 9 1 -4
BITMAP
0C
0C
0C
0C
0C
0C
FC
84
FC
ENDCHAR
STARTCHAR 3010
ENCODING 8508
SWIDTH 1800 0
DWIDTH 18 0
BBX 6 17 12 -3
BITMAP
FC
F8
F0
F0
F0
E0
E0
E0
E0
E0
E0
E0
F0
F0
F0
F8
FC
ENDCHAR
STARTCHAR 3011
ENCODING 8509
SWIDTH 1800 0
DWIDTH 18 0
BBX 5 17 1 -3
BITMAP
F8
F8
78
78
78
38
38
38
38
38
38
38
38
78
78
F8
F8
ENDCHAR
STARTCHAR 00B1
ENCODING 8510
SWIDTH 1800 0
DWIDTH 18 0
BBX 12 12 3 0
BITMAP
0200
0200
0200
0200
0200
7FF0
0200
0200
0200
0200
0200
FFF0
ENDCHAR
STARTCHAR 00D7
ENCODING 8511
SWIDTH 1800 0
DWIDTH 18 0
BBX 11 10 3 0
BITMAP
4020
2040
1080
0B00
0600
0B00
1100
2080
4040
8020
ENDCHAR
STARTCHAR 00F7
ENCODING 8512
SWIDTH 1800 0
DWIDTH 18 0
BBX 12 11 3 0
BITMAP
0400
0400
0000
0000
0000
FFF0
0000
0000
0000
0400
0400
ENDCHAR
STARTCHAR 2260
ENCODING 8513
SWIDTH 1800 0
DWIDTH 18 0
BBX 12 11 3 0
BITMAP
0800
0800
0400
0400
FFF0
0400
0200
FFF0
0200
0100
0100
ENDCHAR
STARTCHAR 2264
ENCODING 8514
SWIDTH 1800 0
DWIDTH 18 0
BBX 12 10 3 0
BITMAP
0060
0180
0E00
3000
C000
3800
0600
01C0
0030
FFF0
ENDCHAR
STARTCHAR 2265
ENCODING 8515
SWIDTH 1800 0
DWIDTH 18 0
BBX 12 10 3 0
BITMAP
6000
1800
0700
00C0
0030
01C0
0600
3800
C000
FFF0
ENDCHAR
STARTCHAR 221E
ENCODING 8516
SWIDTH 1800 0
DWIDTH 18 0
BBX 14 7 2 2
BITMAP
3870
4588
8304
8204
8204
4508
38F0
ENDCHAR
STARTCHAR 2234
ENCODING 8517
SWIDTH 1800 0
DWIDTH 18 0
BBX 10 9 4 1
BITMAP
0C00
0C00
0000
0000
0000
0000
0000
C0C0
C0C0
ENDCHAR
STARTCHAR 00B0
ENCODING 8518
SWIDTH 1800 0
DWIDTH 18 0
BBX 5 5 1 9
BITMAP
70
48
88
50
20
ENDCHAR
STARTCHAR 2032
ENCODING 8519
SWIDTH 1800 0
DWIDTH 18 0
BBX 3 3 2 11
BITMAP
60
40
80
ENDCHAR
STARTCHAR 2033
ENCODING 8520
SWIDTH 1800 0
DWIDTH 18 0
BBX 6 4 2 10
BITMAP
6C
48
90
10
ENDCHAR
STARTCHAR 2103
ENCODING 8521
SWIDTH 1800 0
DWIDTH 18 0
BBX 12 14 3 0
BITMAP
E000
9380
9C70
E810
1810
1000
1000
1000
1000
1000
1000
0810
0C20
07C0
ENDCHAR
STARTCHAR 212B
ENCODING 8522
SWIDTH 1800 0
DWIDTH 18 0
BBX 14 14 2 0
BITMAP
0780
0480
0480
0300
0300
0580
0580
08C0
08C0
1FE0
1060
2030
6038
F07C
ENDCHAR
STARTCHAR FFE0
ENCODING 8523
SWIDTH 1800 0
DWIDTH 18 0
BBX 16 15 2 -2
BITMAP
03F1
0C7E
101C
1018
2020
2040
2080
2100
2600
3C00
1808
1C10
27E0
4000
8000
ENDCHAR
STARTCHAR FFE1
ENCODING 8524
SWIDTH 1800 0
DWIDTH 18 0
BBX 12 13 3 0
BITMAP
01C0
0620
0420
0C20
0C00
0C00
0C00
7FC0
0400
0400
7C30
8FE0
51C0
ENDCHAR
STARTCHAR FFE5
ENCODING 8525
SWIDTH 1800 0
DWIDTH 18 0
BBX 11 12 4 0
BITMAP
F9E0
2080
3080
1900
FFE0
0A00
0400
FFE0
0400
0400
0400
1F00
ENDCHAR
STARTCHAR 2642
ENCODING 8526
SWIDTH 1800 0
DWIDTH 18 0
BBX 9 16 5 -3
BITMAP
0800
1C00
2C00
2A00
4900
8880
0800
0800
0800
0800
3600
4200
4200
4200
6600
3C00
ENDCHAR
STARTCHAR 2640
ENCODING 8527
SWIDTH 1800 0
DWIDTH 18 0
BBX 11 15 4 -2
BITMAP
0F00
3180
2180
2080
2180
1100
0E00
0400
0400
FFE0
0400
0400
0400
0400
0400
ENDCHAR
STARTCHAR 2220
ENCODING 8528
SWIDTH 1800 0
DWIDTH 18 0
BBX 11 10 3 0
BITMAP
0040
0080
0100
0200
0400
0800
1000
2000
4000
FFE0
ENDCHAR
STARTCHAR 22A5
ENCODING 8529
SWIDTH 1800 0
DWIDTH 18 0
BBX 12 10 3 0
BITMAP
0200
0200
0200
0200
0200
0200
0200
0200
0200
FFF0
ENDCHAR
STARTCHAR 2312
ENCODING 8530
SWIDTH 1800 0
DWIDTH 18 0
BBX 11 3 4 11
BITMAP
1E00
6180
8060
ENDCHAR
STARTCHAR 2202
ENCODING 8531
SWIDTH 1800 0
DWIDTH 18 0
BBX 8 13 5 -1
BITMAP
1E
23
01
01
01
3D
45
C6
86
84
8C
58
20
ENDCHAR
STARTCHAR 2207
ENCODING 8532
SWIDTH 1800 0
DWIDTH 18 0
BBX 14 11 2 0
BITMAP
FFFC
8004
4008
2010
2010
1020
1040
0880
0480
0500
0200
ENDCHAR
STARTCHAR 2261
ENCODING 8533
SWIDTH 1800 0
DWIDTH 18 0
BBX 12 7 3 2
BITMAP
FFF0
0000
0000
FFF0
0000
0000
FFF0
ENDCHAR
STARTCHAR 2252
ENCODING 8534
SWIDTH 1800 0
DWIDTH 18 0
BBX 12 10 3 0
BITMAP
4000
4000
0000
FFF0
0000
0000
FFF0
0000
0080
0080
ENDCHAR
STARTCHAR 00A7
ENCODING 8535
SWIDTH 1800 0
DWIDTH 18 0
BBX 6 16 6 -3
BITMAP
78
8C
8C
C0
60
70
98
8C
84
E4
78
38
1C
C4
C4
78
ENDCHAR
STARTCHAR 203B
ENCODING 8536
SWIDTH 1800 0
DWIDTH 18 0
BBX 12 11 3 0
BITMAP
8710
4720
2740
1080
7970
7670
7D70
1880
2740
4720
8710
ENDCHAR
STARTCHAR 2606
ENCODING 8537
SWIDTH 1800 0
DWIDTH 18 0
BBX 14 14 2 -2
BITMAP
0300
0300
0300
0480
FCFC
4008
2010
1020
1040
1020
1320
2CE0
3020
0010
ENDCHAR
STARTCHAR 2605
ENCODING 8538
SWIDTH 1800 0
DWIDTH 18 0
BBX 15 14 2 -2
BITMAP
0100
0300
0300
0380
FFFE
7FF8
3FF0
1FE0
0FC0
1FE0
1FE0
18E0
3020
2010
ENDCHAR
STARTCHAR 25CB
ENCODING 8539
SWIDTH 1800 0
DWIDTH 18 0
BBX 16 15 1 -2
BITMAP
07E0
1818
300C
6002
4002
8001
8001
8001
8001
8001
4002
6002
3004
1818
07E0
ENDCHAR
STARTCHAR 25CF
ENCODING 8540
SWIDTH 1800 0
DWIDTH 18 0
BBX 15 14 2 -2
BITMAP
0FC0
1FF0
7FF8
7FFC
FFFC
FFFC
FFFE
FFFE
FFFC
FFFC
7FFC
7FF8
1FF0
0FC0
ENDCHAR
STARTCHAR 25CE
ENCODING 8541
SWIDTH 1800 0
DWIDTH 18 0
BBX 16 15 1 -2
BITMAP
07E0
1818
300C
63C2
4C32
8811
9009
9009
9009
9009
4812
6C32
33C4
1818
07E0
ENDCHAR
STARTCHAR 25C7
ENCODING 8542
SWIDTH 1800 0
DWIDTH 18 0
BBX 16 16 1 -3
BITMAP
0180
0240
0420
0810
1008
2004
4002
8001
8001
4002
2004
1008
0830
0660
03C0
0100
ENDCHAR
STARTCHAR 25C6
ENCODING 8543
SWIDTH 1800 0
DWIDTH 18 0
BBX 16 16 1 -3
BITMAP
0100
03C0
07E0
0FF0
1FF8
3FFC
7FFE
FFFF
FFFF
7FFE
3FFC
1FF8
0FF0
07C0
0380
0100
ENDCHAR
STARTCHAR 25A1
ENCODING 8544
SWIDTH 1800 0
DWIDTH 18 0
BBX 14 14 2 -2
BITMAP
FFFC
8004
8004
8004
8004
8004
8004
8004
8004
8004
8004
8004
8004
FFFC
ENDCHAR
STARTCHAR 25A0
ENCODING 8545
SWIDTH 1800 0
DWIDTH 18 0
BBX 14 14 2 -2
BITMAP
FFFC
FFFC
FFFC
FFFC
FFFC
FFFC
FFFC
FFFC
FFFC
FFFC
FFFC
FFFC
FFFC
FFFC
ENDCHAR
STARTCHAR 25B3
ENCODING 8546
SWIDTH 1800 0
DWIDTH 18 0
BBX 14 11 2 0
BITMAP
0300
0480
0480
0840
1040
1020
2010
4010
4008
8004
FFFC
ENDCHAR
STARTCHAR 25B2
ENCODING 8547
SWIDTH 1800 0
DWIDTH 18 0
BBX 14 11 2 0
BITMAP
0300
0780
0780
0FC0
0FC0
1FE0
3FF0
3FF0
7FF8
FFFC
FFFC
ENDCHAR
STARTCHAR 25BD
ENCODING 8548
SWIDTH 1800 0
DWIDTH 18 0
BBX 14 11 2 -1
BITMAP
FFFC
8008
4008
4010
2020
1020
1040
0880
0480
0500
0200
ENDCHAR
STARTCHAR 25BC
ENCODING 8549
SWIDTH 1800 0
DWIDTH 18 0
BBX 14 10 2 0
BITMAP
FFFC
7FF8
7FF8
3FF0
1FE0
1FE0
0FC0
0780
0780
0300
ENDCHAR
STARTCHAR 2192
ENCODING 8550
SWIDTH 1800 0
DWIDTH 18 0
BBX 16 6 1 2
BITMAP
0008
0004
FFFF
0006
0008
0010
ENDCHAR
STARTCHAR 2190
ENCODING 8551
SWIDTH 1800 0
DWIDTH 18 0
BBX 16 7 1 2
BITMAP
0800
1000
6000
FFFF
6000
1000
0800
ENDCHAR
STARTCHAR 2191
ENCODING 8552
SWIDTH 1800 0
DWIDTH 18 0
BBX 6 16 7 -3
BITMAP
20
30
70
A8
24
20
20
20
20
20
20
20
20
20
20
20
ENDCHAR
STARTCHAR 2193
ENCODING 8553
SWIDTH 1800 0
DWIDTH 18 0
BBX 7 16 5 -3
BITMAP
10
10
10
10
10
10
10
10
10
10
10
92
54
38
38
10
ENDCHAR
STARTCHAR 2194
ENCODING 8554
SWIDTH 1800 0
DWIDTH 18 0
BBX 14 5 2 3
BITMAP
2010
4008
FFFC
400C
2010
ENDCHAR
STARTCHAR 3013
ENCODING 8555
SWIDTH 1800 0
DWIDTH 18 0
BBX 12 4 3 3
BITMAP
FFF0
0000
0000
FFF0
ENDCHAR
STARTCHAR 226A
ENCODING 8556
SWIDTH 1800 0
DWIDTH 18 0
BBX 14 13 2 -1
BITMAP
0040
0088
0310
0460
1980
2200
CC00
4600
3100
0CC0
0220
0198
0044
ENDCHAR
STARTCHAR 226B
ENCODING 8557
SWIDTH 1800 0
DWIDTH 18 0
BBX 14 13 2 -1
BITMAP
0800
4400
2300
1880
0460
0310
00CC
0198
0220
0CC0
3100
4600
8800
ENDCHAR
STARTCHAR 221A
ENCODING 8558
SWIDTH 1800 0
DWIDTH 18 0
BBX 16 15 2 -1
BITMAP
00FF
0080
0100
0100
0100
0200
0200
0400
0400
4400
C800
6800
3000
3000
3000
ENDCHAR
STARTCHAR 223D
ENCODING 8559
SWIDTH 1800 0
DWIDTH 18 0
BBX 14 7 2 2
BITMAP
3870
4088
8104
8204
8204
4408
38F0
ENDCHAR
STARTCHAR 221D
ENCODING 8560
SWIDTH 1800 0
DWIDTH 18 0
BBX 13 7 3 2
BITMAP
3870
4480
8300
8100
8100
4680
3878
ENDCHAR
STARTCHAR 2235
ENCODING 8561
SWIDTH 1800 0
DWIDTH 18 0
BBX 9 9 4 1
BITMAP
8080
8080
0000
0000
0000
0000
0000
0C00
0C00
ENDCHAR
STARTCHAR 222B
ENCODING 8562
SWIDTH 1800 0
DWIDTH 18 0
BBX 4 16 7 -3
BITMAP
30
70
80
40
40
40
60
60
20
30
30
10
10
10
50
60
ENDCHAR
STARTCHAR 222C
ENCODING 8563
SWIDTH 1800 0
DWIDTH 18 0
BBX 9 16 4 -3
BITMAP
3180
7380
8200
4200
4200
4200
6300
6300
2100
3180
3180
1080
1080
1080
5300
6200
ENDCHAR
STARTCHAR 2208
ENCODING 8564
SWIDTH 1800 0
DWIDTH 18 0
BBX 13 10 3 0
BITMAP
0FF8
3000
4000
8000
8000
FFF8
8000
4000
2000
1FF8
ENDCHAR
STARTCHAR 220B
ENCODING 8565
SWIDTH 1800 0
DWIDTH 18 0
BBX 13 10 3 0
BITMAP
FF80
0060
0010
0010
0008
FFF8
0010
0010
0020
FFC0
ENDCHAR
STARTCHAR 2286
ENCODING 8566
SWIDTH 1800 0
DWIDTH 18 0
BBX 12 10 3 0
BITMAP
3FE0
4000
8000
8000
8000
4000
3FF0
0000
0000
FFF0
ENDCHAR
STARTCHAR 2287
ENCODING 8567
SWIDTH 1800 0
DWIDTH 18 0
BBX 12 10 3 0
BITMAP
7FC0
0020
0010
0010
0010
0020
FFC0
0000
0000
FFF0
ENDCHAR
STARTCHAR 2282
ENCODING 8568
SWIDTH 1800 0
DWIDTH 18 0
BBX 13 10 2 0
BITMAP
0FF8
3000
4000
8000
8000
8000
8000
4000
6000
1FF8
ENDCHAR
STARTCHAR 2283
ENCODING 8569
SWIDTH 1800 0
DWIDTH 18 0
BBX 13 10 3 0
BITMAP
FF80
0060
0010
0008
0008
0008
0008
0018
0010
FFE0
ENDCHAR
STARTCHAR 222A
ENCODING 8570
SWIDTH 1800 0
DWIDTH 18 0
BBX 10 13 4 -1
BITMAP
0040
8040
8040
8040
8040
8040
8040
8040
8040
8040
4080
6100
1E00
ENDCHAR
STARTCHAR 2229
ENCODING 8571
SWIDTH 1800 0
DWIDTH 18 0
BBX 10 13 4 -1
BITMAP
1E00
2180
4080
8040
8040
8040
8040
8040
8040
8040
8040
8040
8040
ENDCHAR
STARTCHAR 2227
ENCODING 8572
SWIDTH 1800 0
DWIDTH 18 0
BBX 12 10 3 0
BITMAP
0600
0A00
0900
1100
1080
2040
2040
4020
4020
8010
ENDCHAR
STARTCHAR 2228
ENCODING 8573
SWIDTH 1800 0
DWIDTH 18 0
BBX 12 11 3 0
BITMAP
8010
8020
4020
4040
2040
1080
1080
0900
0900
0600
0600
ENDCHAR
STARTCHAR FFE2
ENCODING 8574
SWIDTH 1800 0
DWIDTH 18 0
BBX 12 8 3 0
BITMAP
FFF0
0010
0010
0010
0010
0010
0010
0010
ENDCHAR
STARTCHAR 21D2
ENCODING 8737
SWIDTH 1800 0
DWIDTH 18 0
BBX 16 9 1 1
BITMAP
0010
0008
0004
7FFA
0001
0002
FFFC
0008
0010
ENDCHAR
STARTCHAR 21D4
ENCODING 8738
SWIDTH 1800 0
DWIDTH 18 0
BBX 15 9 2 1
BITMAP
0800
1020
2018
5FF4
8002
8004
7FF8
3010
0820
ENDCHAR
STARTCHAR 2200
ENCODING 8739
SWIDTH 1800 0
DWIDTH 18 0
BBX 12 13 3 0
BITMAP
8010
8010
4020
4020
3FC0
2040
2080
1080
1080
0900
0900
0600
0600
ENDCHAR
STARTCHAR 2203
ENCODING 8740
SWIDTH 1800 0
DWIDTH 18 0
BBX 9 12 4 0
BITMAP
FF80
0080
0080
0080
0080
0080
7F80
0080
0080
0080
0080
FF80
ENDCHAR
STARTCHAR 00B4
ENCODING 8741
SWIDTH 1800 0
DWIDTH 18 0
BBX 3 2 7 12
BITMAP
60
80
ENDCHAR
STARTCHAR FF5E
ENCODING 8742
SWIDTH 1800 0
DWIDTH 18 0
BBX 8 3 5 11
BITMAP
70
BF
06
ENDCHAR
STARTCHAR 02C7
ENCODING 8743
SWIDTH 1800 0
DWIDTH 18 0
BBX 6 2 6 12
BITMAP
84
78
ENDCHAR
STARTCHAR 02D8
ENCODING 8744
SWIDTH 1800 0
DWIDTH 18 0
BBX 6 2 6 11
BITMAP
CC
78
ENDCHAR
STARTCHAR 02DD
ENCODING 8745
SWIDTH 1800 0
DWIDTH 18 0
BBX 5 2 6 12
BITMAP
48
90
ENDCHAR
STARTCHAR 02DA
ENCODING 8746
SWIDTH 1800 0
DWIDTH 18 0
BBX 4 3 7 11
BITMAP
60
90
60
ENDCHAR
STARTCHAR 02D9
ENCODING 8747
SWIDTH 1800 0
DWIDTH 18 0
BBX 2 2 8 4
BITMAP
C0
C0
ENDCHAR
STARTCHAR 00B8
ENCODING 8748
SWIDTH 1800 0
DWIDTH 18 0
BBX 3 4 7 -3
BITMAP
20
20
20
E0
ENDCHAR
STARTCHAR 02DB
ENCODING 8749
SWIDTH 1800 0
DWIDTH 18 0
BBX 3 3 7 -2
BITMAP
40
80
60
ENDCHAR
STARTCHAR 00A1
ENCODING 8750
SWIDTH 1800 0
DWIDTH 18 0
BBX 3 13 7 0
BITMAP
20
20
00
00
40
40
40
40
40
40
40
E0
E0
ENDCHAR
STARTCHAR 00BF
ENCODING 8751
SWIDTH 1800 0
DWIDTH 18 0
BBX 6 13 6 0
BITMAP
10
10
00
00
08
08
18
78
C0
80
80
88
7C
ENDCHAR
STARTCHAR 02D0
ENCODING 8752
SWIDTH 1800 0
DWIDTH 18 0
BBX 4 8 7 1
BITMAP
60
60
00
00
00
00
60
F0
ENDCHAR
STARTCHAR 222E
ENCODING 8753
SWIDTH 1800 0
DWIDTH 18 0
BBX 6 13 6 -1
BITMAP
0C
10
10
10
10
F8
B8
B8
60
20
20
40
C0
ENDCHAR
STARTCHAR 2211
ENCODING 8754
SWIDTH 1800 0
DWIDTH 18 0
BBX 14 15 2 -2
BITMAP
FFFC
E004
7004
3804
0C04
0604
0300
0100
0200
0400
0804
1004
2004
7FFC
FFFC
ENDCHAR
STARTCHAR 220F
ENCODING 8755
SWIDTH 1800 0
DWIDTH 18 0
BBX 13 15 3 -2
BITMAP
FFF8
2020
2020
2020
2020
2020
2020
2020
2020
2020
2020
2020
2020
2020
F8F8
ENDCHAR
STARTCHAR 00A4
ENCODING 8756
SWIDTH 1800 0
DWIDTH 18 0
BBX 12 13 3 -1
BITMAP
8000
4F10
30A0
2040
4020
4020
4020
4020
4020
2040
30C0
4F20
8010
ENDCHAR
STARTCHAR 2109
ENCODING 8757
SWIDTH 1800 0
DWIDTH 18 0
BBX 15 13 1 -1
BITMAP
03FC
6106
9102
A100
4100
0110
01F0
0110
0100
0100
0100
0100
07C0
ENDCHAR
STARTCHAR 2030
ENCODING 8758
SWIDTH 1800 0
DWIDTH 18 0
BBX 16 16 1 -2
BITMAP
3800
2C10
4420
4440
4480
4480
4500
2A00
3D8E
0651
0A51
1251
2251
4251
4259
818E
ENDCHAR
STARTCHAR 25C1
ENCODING 8759
SWIDTH 1800 0
DWIDTH 18 0
BBX 11 14 3 -1
BITMAP
0020
0060
01A0
0620
0820
3020
4020
8020
4020
3020
0820
0620
01A0
0060
ENDCHAR
STARTCHAR 25C0
ENCODING 8760
SWIDTH 1800 0
DWIDTH 18 0
BBX 10 14 4 -1
BITMAP
0040
00C0
03C0
0FC0
1FC0
7FC0
FFC0
FFC0
7FC0
1FC0
0FC0
03C0
00C0
0040
ENDCHAR
STARTCHAR 25B7
ENCODING 8761
SWIDTH 1800 0
DWIDTH 18 0
BBX 11 13 4 -1
BITMAP
8000
E000
9000
8C00
8300
80C0
8020
8040
8180
8600
9800
A000
C000
ENDCHAR
STARTCHAR 25B6
ENCODING 8762
SWIDTH 1800 0
DWIDTH 18 0
BBX 11 13 4 -1
BITMAP
8000
E000
F000
FC00
FF00
FFC0
FFE0
FFC0
FF00
FC00
F000
E000
8000
ENDCHAR
STARTCHAR 2664
ENCODING 8763
SWIDTH 1800 0
DWIDTH 18 0
BBX 13 15 3 -2
BITMAP
0600
0900
0880
1040
2040
4020
4010
8008
8008
8008
C118
CDF0
7900
0880
0F80
ENDCHAR
STARTCHAR 2660
ENCODING 8764
SWIDTH 1800 0
DWIDTH 18 0
BBX 12 14 3 -2
BITMAP
0600
0F00
1F80
3FC0
3FE0
7FE0
FFF0
FFF0
FFF0
FFF0
FFF0
2600
0F00
0F00
ENDCHAR
STARTCHAR 2661
ENCODING 8765
SWIDTH 1800 0
DWIDTH 18 0
BBX 13 15 2 -2
BITMAP
3CF0
6288
4308
8008
8008
8008
4008
4008
4010
2010
1020
1040
0840
0480
0300
ENDCHAR
STARTCHAR 2665
ENCODING 8766
SWIDTH 1800 0
DWIDTH 18 0
BBX 14 15 2 -2
BITMAP
7CF8
FDFC
FFFC
FFFC
FFFC
FFFC
7FFC
7FF8
3FF0
3FF0
1FE0
0FC0
0780
0780
0300
ENDCHAR
STARTCHAR 2667
ENCODING 8767
SWIDTH 1800 0
DWIDTH 18 0
BBX 16 16 1 -2
BITMAP
03C0
0420
0810
0810
0810
0420
3C5C
4022
8001
8001
8001
8241
66A6
1A58
0440
03C0
ENDCHAR
STARTCHAR 2663
ENCODING 8768
SWIDTH 1800 0
DWIDTH 18 0
BBX 16 15 1 -2
BITMAP
03C0
07E0
07E0
0FF0
07E0
07C0
7FFC
7FFE
FFFF
FF7F
7FFE
7DBE
0180
03C0
03C0
ENDCHAR
STARTCHAR 2299
ENCODING 8769
SWIDTH 1800 0
DWIDTH 18 0
BBX 16 15 1 -2
BITMAP
07E0
1818
2004
47E2
4FF2
9FF9
9FF9
9FF9
9FF9
8FF1
4FF2
47E2
2004
1818
07E0
ENDCHAR
STARTCHAR 25C8
ENCODING 8770
SWIDTH 1800 0
DWIDTH 18 0
BBX 16 16 1 -2
BITMAP
0100
03C0
0660
0DB0
1BD8
37EC
6FF6
DFFB
9FF9
4FF2
27E4
13C8
0990
0420
0240
0180
ENDCHAR
STARTCHAR 25A3
ENCODING 8771
SWIDTH 1800 0
DWIDTH 18 0
BBX 14 15 2 -2
BITMAP
FFFC
8004
8004
8004
9FE4
9FE4
9FE4
9FE4
9FE4
9FE4
9FE4
8004
8004
8004
FFFC
ENDCHAR
STARTCHAR 25D0
ENCODING 8772
SWIDTH 1800 0
DWIDTH 18 0
BBX 15 15 2 -2
BITMAP
07E0
1E30
3E08
7E04
7E04
FE02
FE02
FE02
FE02
FE02
7E04
7E04
3E08
1E30
07C0
ENDCHAR
STARTCHAR 25D1
ENCODING 8773
SWIDTH 1800 0
DWIDTH 18 0
BBX 15 15 1 -2
BITMAP
07C0
18F0
20F8
40FC
40FC
80FE
80FE
80FE
80FE
80FE
40FC
60FC
30F8
18F0
07C0
ENDCHAR
STARTCHAR 2592
ENCODING 8774
SWIDTH 1800 0
DWIDTH 18 0
BBX 14 15 2 -2
BITMAP
FFFC
A52C
8004
D294
A52C
D294
A52C
8004
D294
A52C
D294
A52C
8004
D294
FFFC
ENDCHAR
STARTCHAR 25A4
ENCODING 8775
SWIDTH 1800 0
DWIDTH 18 0
BBX 14 14 2 -1
BITMAP
FFFC
8004
8004
8004
FFFC
8004
8004
FFFC
8004
8004
FFFC
8004
8004
FFFC
ENDCHAR
STARTCHAR 25A5
ENCODING 8776
SWIDTH 1800 0
DWIDTH 18 0
BBX 14 15 2 -2
BITMAP
FFFC
9124
9124
9124
9124
9124
9124
9124
9124
9124
9124
9124
9124
9124
FFFC
ENDCHAR
STARTCHAR 25A8
ENCODING 8777
SWIDTH 1800 0
DWIDTH 18 0
BBX 14 15 2 -2
BITMAP
FFFC
8204
841C
8824
9044
A084
C104
8204
840C
8814
9024
A0C4
C104
8204
FFFC
ENDCHAR
STARTCHAR 25A7
ENCODING 8778
SWIDTH 1800 0
DWIDTH 18 0
BBX 14 15 2 -2
BITMAP
FFFC
8104
C084
A044
9024
8C14
820C
C104
A084
9044
9024
8814
840C
8204
FFFC
ENDCHAR
STARTCHAR 25A6
ENCODING 8779
SWIDTH 1800 0
DWIDTH 18 0
BBX 14 14 2 -1
BITMAP
FFFC
9124
9124
9124
FFFC
9124
9124
FFFC
9124
9124
FFFC
9124
9124
FFFC
ENDCHAR
STARTCHAR 25A9
ENCODING 8780
SWIDTH 1800 0
DWIDTH 18 0
BBX 14 14 2 -1
BITMAP
FFFC
C304
A49C
9864
9864
A494
C30C
8304
C49C
A864
9824
B4D4
C30C
FFFC
ENDCHAR
STARTCHAR 2668
ENCODING 8781
SWIDTH 1800 0
DWIDTH 18 0
BBX 15 14 2 -2
BITMAP
0940
0B40
0A40
1AC0
1B40
0B60
0D60
1D60
694C
8A44
9286
C21C
7FF8
1FC0
ENDCHAR
STARTCHAR 260F
ENCODING 8782
SWIDTH 1800 0
DWIDTH 18 0
BBX 17 12 1 0
BITMAP
07F000
1C0E00
6FD900
97D880
B7F880
F41F00
080800
380C00
480A00
480A00
441200
7FFE00
ENDCHAR
STARTCHAR 260E
ENCODING 8783
SWIDTH 1800 0
DWIDTH 18 0
BBX 16 11 1 0
BITMAP
3FF8
7FFE
F42F
FFEF
CC27
1810
3818
381C
781C
7C3C
7FFC
ENDCHAR
STARTCHAR 261C
ENCODING 8784
SWIDTH 1800 0
DWIDTH 18 0
BBX 18 8 0 2
BITMAP
03E000
FC7DC0
818340
7EE140
07E140
057940
03CF40
01B080
ENDCHAR
STARTCHAR 261E
ENCODING 8785
SWIDTH 1800 0
DWIDTH 18 0
BBX 17 7 1 2
BITMAP
0FFE00
F03F80
C7E800
C32800
C1D000
FEE000
01C000
ENDCHAR
STARTCHAR 00B6
ENCODING 8786
SWIDTH 1800 0
DWIDTH 18 0
BBX 10 15 3 -2
BITMAP
3E40
4240
8240
8240
8240
4240
3E40
0240
0240
0240
0240
0240
0240
0240
0240
ENDCHAR
STARTCHAR 2020
ENCODING 8787
SWIDTH 1800 0
DWIDTH 18 0
BBX 9 16 5 -2
BITMAP
0800
0800
0800
0800
0800
FF80
0800
0800
0800
0800
0800
0800
0800
0800
0800
0800
ENDCHAR
STARTCHAR 2021
ENCODING 8788
SWIDTH 1800 0
DWIDTH 18 0
BBX 9 15 4 -2
BITMAP
0800
0800
FF80
0800
0800
FF80
0800
0800
0800
0800
0800
0800
0800
0800
0800
ENDCHAR
STARTCHAR 2195
ENCODING 8789
SWIDTH 1800 0
DWIDTH 18 0
BBX 4 13 7 -1
BITMAP
60
D0
40
40
40
40
40
40
40
40
40
D0
60
ENDCHAR
STARTCHAR 2197
ENCODING 8790
SWIDTH 1800 0
DWIDTH 18 0
BBX 11 10 3 0
BITMAP
01E0
0060
00A0
0120
0200
0C00
1000
2000
4000
8000
ENDCHAR
STARTCHAR 2199
ENCODING 8791
SWIDTH 1800 0
DWIDTH 18 0
BBX 11 11 4 0
BITMAP
0020
0040
0080
0100
0200
0400
0800
9000
A000
C000
F000
ENDCHAR
STARTCHAR 2196
ENCODING 8792
SWIDTH 1800 0
DWIDTH 18 0
BBX 11 10 4 0
BITMAP
F000
C000
A000
9000
0800
0600
0100
0080
0040
0020
ENDCHAR
STARTCHAR 2198
ENCODING 8793
SWIDTH 1800 0
DWIDTH 18 0
BBX 11 11 3 0
BITMAP
8000
4000
2000
1000
0800
0400
0200
0120
00A0
0060
01E0
ENDCHAR
STARTCHAR 266D
ENCODING 8794
SWIDTH 1800 0
DWIDTH 18 0
BBX 6 11 6 0
BITMAP
80
80
80
90
EC
84
84
84
88
90
E0
ENDCHAR
STARTCHAR 2669
ENCODING 8795
SWIDTH 1800 0
DWIDTH 18 0
BBX 4 15 7 -2
BITMAP
10
10
10
10
10
10
10
10
10
10
10
10
F0
E0
80
ENDCHAR
STARTCHAR 266A
ENCODING 8796
SWIDTH 1800 0
DWIDTH 18 0
BBX 9 15 4 -2
BITMAP
1000
1800
1C00
1E00
1300
1180
1080
1080
1100
1100
1200
1000
7000
E000
C000
ENDCHAR
STARTCHAR 266C
ENCODING 8797
SWIDTH 1800 0
DWIDTH 18 0
BBX 12 13 3 -1
BITMAP
1FF0
1FF0
1010
1FF0
1010
1010
1010
1010
1010
3070
F0F0
E0E0
8000
ENDCHAR
STARTCHAR 327F
ENCODING 8798
SWIDTH 1800 0
DWIDTH 18 0
BBX 16 15 1 -2
BITMAP
07E0
1C38
300C
6464
44C2
C580
C700
F79F
0483
0442
4462
6434
300C
1C38
07E0
ENDCHAR
STARTCHAR 321C
ENCODING 8799
SWIDTH 1800 0
DWIDTH 18 0
BBX 16 13 1 -1
BITMAP
1FE4
4042
8082
8181
8679
B801
801D
BFE1
8101
8101
8102
4102
0104
ENDCHAR
STARTCHAR 2116
ENCODING 8800
SWIDTH 1800 0
DWIDTH 18 0
BBX 15 13 2 -1
BITMAP
8400
C400
C400
C400
A478
A488
9484
9484
9484
8C84
8484
844A
0030
ENDCHAR
STARTCHAR 33C7
ENCODING 8801
SWIDTH 1800 0
DWIDTH 18 0
BBX 15 14 2 -1
BITMAP
1000
6C00
4200
8200
8000
8070
8088
8088
8088
8088
8288
4488
7852
0020
ENDCHAR
STARTCHAR 2122
ENCODING 8802
SWIDTH 1800 0
DWIDTH 18 0
BBX 16 12 1 0
BITMAP
7CC2
9246
1266
1066
106A
106A
106A
105A
105A
1052
1052
10E7
ENDCHAR
STARTCHAR 33C2
ENCODING 8803
SWIDTH 1800 0
DWIDTH 18 0
BBX 17 9 0 -1
BITMAP
3CFE00
644A00
044A00
084A00
384A00
484A00
884A00
7DCA80
000400
ENDCHAR
STARTCHAR 33D8
ENCODING 8804
SWIDTH 1800 0
DWIDTH 18 0
BBX 17 11 1 -3
BITMAP
F9FC00
449400
449400
449400
449400
449400
449400
4A9580
700800
400000
600000
ENDCHAR
STARTCHAR 2121
ENCODING 8805
SWIDTH 1800 0
DWIDTH 18 0
BBX 16 13 1 -1
BITMAP
7F03
8901
8881
0821
08D1
0889
0889
08F9
0881
0881
0881
1C4B
0030
ENDCHAR
STARTCHAR FF01
ENCODING 8993
SWIDTH 1800 0
DWIDTH 18 0
BBX 2 12 8 0
BITMAP
80
80
80
40
40
40
40
40
00
00
80
80
ENDCHAR
STARTCHAR FF02
ENCODING 8994
SWIDTH 1800 0
DWIDTH 18 0
BBX 5 4 6 10
BITMAP
68
48
90
80
ENDCHAR
STARTCHAR FF03
ENCODING 8995
SWIDTH 1800 0
DWIDTH 18 0
BBX 8 14 5 -2
BITMAP
12
12
12
22
FF
24
24
24
24
FF
48
48
48
48
ENDCHAR
STARTCHAR FF04
ENCODING 8996
SWIDTH 1800 0
DWIDTH 18 0
BBX 10 16 4 -3
BITMAP
1200
3E00
5380
9280
9200
D200
7A00
3F00
1380
1240
1240
9240
D2C0
7F80
1200
1200
ENDCHAR
STARTCHAR FF05
ENCODING 8997
SWIDTH 1800 0
DWIDTH 18 0
BBX 14 16 2 -3
BITMAP
3800
4404
4408
8410
8420
4440
4880
3100
0260
0490
0888
1108
2108
4188
8098
00F0
ENDCHAR
STARTCHAR FF06
ENCODING 8998
SWIDTH 1800 0
DWIDTH 18 0
BBX 12 13 2 -1
BITMAP
0F00
1180
1180
1100
1E00
0C00
3430
4420
4220
C140
E1C0
7180
3E70
ENDCHAR
STARTCHAR FF07
ENCODING 8999
SWIDTH 1800 0
DWIDTH 18 0
BBX 2 4 8 10
BITMAP
C0
C0
80
80
ENDCHAR
STARTCHAR FF08
ENCODING 9000
SWIDTH 1800 0
DWIDTH 18 0
BBX 3 15 13 -2
BITMAP
20
40
40
80
80
80
80
80
80
80
80
80
40
40
20
ENDCHAR
STARTCHAR FF09
ENCODING 9001
SWIDTH 1800 0
DWIDTH 18 0
BBX 3 15 2 -2
BITMAP
80
40
40
40
20
20
20
20
20
20
20
20
40
40
80
ENDCHAR
STARTCHAR FF0A
ENCODING 9002
SWIDTH 1800 0
DWIDTH 18 0
BBX 6 7 6 2
BITMAP
10
10
EC
10
6C
94
10
ENDCHAR
STARTCHAR FF0B
ENCODING 9003
SWIDTH 1800 0
DWIDTH 18 0
BBX 12 11 2 0
BITMAP
0200
0200
0200
0200
0200
FFF0
0200
0200
0200
0200
0200
ENDCHAR
STARTCHAR FF0C
ENCODING 9004
SWIDTH 1800 0
DWIDTH 18 0
BBX 2 3 1 -1
BITMAP
C0
C0
40
ENDCHAR
STARTCHAR FF0D
ENCODING 9005
SWIDTH 1800 0
DWIDTH 18 0
BBX 12 1 3 5
BITMAP
FFF0
ENDCHAR
STARTCHAR FF0E
ENCODING 9006
SWIDTH 1800 0
DWIDTH 18 0
BBX 1 2 2 0
BITMAP
80
80
ENDCHAR
STARTCHAR FF0F
ENCODING 9007
SWIDTH 1800 0
DWIDTH 18 0
BBX 16 16 1 -3
BITMAP
0001
0002
0004
0008
0010
0020
0040
0080
0100
0200
0400
0800
1000
2000
4000
8000
ENDCHAR
STARTCHAR FF10
ENCODING 9008
SWIDTH 1800 0
DWIDTH 18 0
BBX 6 13 6 0
BITMAP
30
48
84
84
84
84
84
84
84
84
84
88
50
ENDCHAR
STARTCHAR FF11
ENCODING 9009
SWIDTH 1800 0
DWIDTH 18 0
BBX 6 13 6 0
BITMAP
10
70
10
10
10
10
10
10
10
10
10
10
FC
ENDCHAR
STARTCHAR FF12
ENCODING 9010
SWIDTH 1800 0
DWIDTH 18 0
BBX 6 12 6 0
BITMAP
7C
84
84
84
04
08
10
20
20
40
84
FC
ENDCHAR
STARTCHAR FF13
ENCODING 9011
SWIDTH 1800 0
DWIDTH 18 0
BBX 7 13 5 -1
BITMAP
3C
42
42
02
04
18
04
02
02
C2
C2
44
38
ENDCHAR
STARTCHAR FF14
ENCODING 9012
SWIDTH 1800 0
DWIDTH 18 0
BBX 7 12 6 0
BITMAP
08
18
18
28
48
48
88
88
FE
08
08
1C
ENDCHAR
STARTCHAR FF15
ENCODING 9013
SWIDTH 1800 0
DWIDTH 18 0
BBX 7 13 5 -1
BITMAP
7C
40
40
40
58
64
02
02
02
C2
C6
4C
30
ENDCHAR
STARTCHAR FF16
ENCODING 9014
SWIDTH 1800 0
DWIDTH 18 0
BBX 7 13 6 0
BITMAP
1C
26
44
80
80
98
E4
82
82
82
82
44
38
ENDCHAR
STARTCHAR FF17
ENCODING 9015
SWIDTH 1800 0
DWIDTH 18 0
BBX 6 12 6 0
BITMAP
FC
84
08
08
10
10
10
20
20
20
60
60
ENDCHAR
STARTCHAR FF18
ENCODING 9016
SWIDTH 1800 0
DWIDTH 18 0
BBX 7 13 6 0
BITMAP
78
CC
84
84
84
68
58
8C
86
82
82
C4
78
ENDCHAR
STARTCHAR FF19
ENCODING 9017
SWIDTH 1800 0
DWIDTH 18 0
BBX 6 13 6 0
BITMAP
70
48
84
84
84
84
84
5C
24
08
08
90
60
ENDCHAR
STARTCHAR FF1A
ENCODING 9018
SWIDTH 1800 0
DWIDTH 18 0
BBX 1 8 9 0
BITMAP
80
80
00
00
00
00
80
80
ENDCHAR
STARTCHAR FF1B
ENCODING 9019
SWIDTH 1800 0
DWIDTH 18 0
BBX 2 10 8 -2
BITMAP
80
80
00
00
00
00
C0
C0
40
80
ENDCHAR
STARTCHAR FF1C
ENCODING 9020
SWIDTH 1800 0
DWIDTH 18 0
BBX 11 11 3 0
BITMAP
0020
00C0
0300
0C00
3000
C000
3000
0C00
0300
00C0
0020
ENDCHAR
STARTCHAR FF1D
ENCODING 9021
SWIDTH 1800 0
DWIDTH 18 0
BBX 12 4 3 3
BITMAP
FFF0
0000
0000
FFF0
ENDCHAR
STARTCHAR FF1E
ENCODING 9022
SWIDTH 1800 0
DWIDTH 18 0
BBX 12 11 3 0
BITMAP
C000
3000
0C00
0300
00C0
0030
00C0
0300
0C00
3000
C000
ENDCHAR
STARTCHAR FF1F
ENCODING 9023
SWIDTH 1800 0
DWIDTH 18 0
BBX 7 13 5 -1
BITMAP
18
66
42
E2
06
04
08
10
10
10
00
08
08
ENDCHAR
STARTCHAR FF20
ENCODING 9024
SWIDTH 1800 0
DWIDTH 18 0
BBX 11 12 4 -1
BITMAP
0F00
10C0
6040
4620
99A0
91A0
9120
9320
8D40
40A0
2040
1F80
ENDCHAR
STARTCHAR FF21
ENCODING 9025
SWIDTH 1800 0
DWIDTH 18 0
BBX 12 12 3 0
BITMAP
0600
0A00
0A00
0900
1100
1180
1080
1F80
20C0
4040
4040
F0F0
ENDCHAR
STARTCHAR FF22
ENCODING 9026
SWIDTH 1800 0
DWIDTH 18 0
BBX 12 12 3 0
BITMAP
7FC0
2020
2020
2020
2040
3F80
20C0
2020
2030
2030
2060
F9C0
ENDCHAR
STARTCHAR FF23
ENCODING 9027
SWIDTH 1800 0
DWIDTH 18 0
BBX 10 12 4 0
BITMAP
3FC0
4040
4000
8000
8000
8000
8000
8000
C000
4000
6040
1F80
ENDCHAR
STARTCHAR FF24
ENCODING 9028
SWIDTH 1800 0
DWIDTH 18 0
BBX 12 12 3 0
BITMAP
7F80
2040
2020
2010
2010
2010
2010
2010
2010
2020
2040
FF80
ENDCHAR
STARTCHAR FF25
ENCODING 9029
SWIDTH 1800 0
DWIDTH 18 0
BBX 11 12 4 0
BITMAP
FFC0
20C0
2040
2100
2300
3F00
2300
2100
2020
2040
20C0
FFC0
ENDCHAR
STARTCHAR FF26
ENCODING 9030
SWIDTH 1800 0
DWIDTH 18 0
BBX 10 12 4 0
BITMAP
7FC0
2040
2000
2100
2100
3F00
2300
2100
2000
2000
2000
F800
ENDCHAR
STARTCHAR FF27
ENCODING 9031
SWIDTH 1800 0
DWIDTH 18 0
BBX 11 13 4 -1
BITMAP
1FC0
2040
4000
8000
8000
8000
8000
81E0
8080
4080
4080
2180
1E00
ENDCHAR
STARTCHAR FF28
ENCODING 9032
SWIDTH 1800 0
DWIDTH 18 0
BBX 12 12 3 0
BITMAP
79F0
2040
2040
2040
2040
3FC0
2040
2040
2040
2040
2040
F9F0
ENDCHAR
STARTCHAR FF29
ENCODING 9033
SWIDTH 1800 0
DWIDTH 18 0
BBX 3 12 8 0
BITMAP
E0
40
40
40
40
40
40
40
40
40
40
E0
ENDCHAR
STARTCHAR FF2A
ENCODING 9034
SWIDTH 1800 0
DWIDTH 18 0
BBX 7 15 5 -3
BITMAP
3E
08
08
08
08
08
08
08
08
08
08
08
08
D0
E0
ENDCHAR
STARTCHAR FF2B
ENCODING 9035
SWIDTH 1800 0
DWIDTH 18 0
BBX 12 12 3 0
BITMAP
70E0
2080
2100
2200
2400
2A00
3200
2100
2080
2080
2040
F8F0
ENDCHAR
STARTCHAR FF2C
ENCODING 9036
SWIDTH 1800 0
DWIDTH 18 0
BBX 10 12 4 0
BITMAP
F800
2000
2000
2000
2000
2000
2000
2000
2000
2040
20C0
7F80
ENDCHAR
STARTCHAR FF2D
ENCODING 9037
SWIDTH 1800 0
DWIDTH 18 0
BBX 16 12 1 0
BITMAP
F00F
3014
2814
2824
2824
2424
2444
2244
2284
2284
2184
781E
ENDCHAR
STARTCHAR FF2E
ENCODING 9038
SWIDTH 1800 0
DWIDTH 18 0
BBX 12 12 3 0
BITMAP
E0F0
3020
3020
2820
2420
2420
2220
2120
2120
20A0
2060
F820
ENDCHAR
STARTCHAR FF2F
ENCODING 9039
SWIDTH 1800 0
DWIDTH 18 0
BBX 12 13 3 0
BITMAP
1F80
2040
4020
C030
8010
8010
8010
8010
8010
C030
4020
2040
1F80
ENDCHAR
STARTCHAR FF30
ENCODING 9040
SWIDTH 1800 0
DWIDTH 18 0
BBX 10 12 4 0
BITMAP
7F00
2080
2040
2040
2040
20C0
3F00
2000
2000
2000
2000
F800
ENDCHAR
STARTCHAR FF31
ENCODING 9041
SWIDTH 1800 0
DWIDTH 18 0
BBX 12 15 3 -2
BITMAP
0F00
30C0
6060
4020
4030
C010
8010
8010
8010
4020
7E20
2140
1180
0EC0
0060
ENDCHAR
STARTCHAR FF32
ENCODING 9042
SWIDTH 1800 0
DWIDTH 18 0
BBX 11 12 4 0
BITMAP
FF80
20C0
2040
2040
20C0
3F00
2200
2200
2100
2180
2080
F860
ENDCHAR
STARTCHAR FF33
ENCODING 9043
SWIDTH 1800 0
DWIDTH 18 0
BBX 9 14 4 -1
BITMAP
0800
3700
4100
4080
4000
6000
1C00
0300
0080
0080
8080
4080
7100
0E00
ENDCHAR
STARTCHAR FF34
ENCODING 9044
SWIDTH 1800 0
DWIDTH 18 0
BBX 13 12 3 0
BITMAP
7FF0
4210
8208
0200
0200
0200
0200
0200
0200
0200
0200
0700
ENDCHAR
STARTCHAR FF35
ENCODING 9045
SWIDTH 1800 0
DWIDTH 18 0
BBX 12 13 4 0
BITMAP
01F0
E040
4040
4040
4040
4040
4040
4040
4040
4040
4040
2080
1F00
ENDCHAR
STARTCHAR FF36
ENCODING 9046
SWIDTH 1800 0
DWIDTH 18 0
BBX 12 11 3 1
BITMAP
F0F0
2040
2040
1040
1080
1080
0900
0900
0D00
0600
0600
ENDCHAR
STARTCHAR FF37
ENCODING 9047
SWIDTH 1800 0
DWIDTH 18 0
BBX 18 12 0 0
BITMAP
FBE7C0
208100
204100
10C200
10C200
112200
092400
092400
0A1400
061800
061800
040800
ENDCHAR
STARTCHAR FF38
ENCODING 9048
SWIDTH 1800 0
DWIDTH 18 0
BBX 11 12 3 0
BITMAP
F9E0
3080
1080
0900
0A00
0400
0A00
0900
1100
2080
2040
F1E0
ENDCHAR
STARTCHAR FF39
ENCODING 9049
SWIDTH 1800 0
DWIDTH 18 0
BBX 12 12 3 0
BITMAP
F8F0
2020
1040
1080
0900
0500
0600
0200
0200
0200
0200
0F80
ENDCHAR
STARTCHAR FF3A
ENCODING 9050
SWIDTH 1800 0
DWIDTH 18 0
BBX 9 12 5 0
BITMAP
7F00
8100
0200
0400
0400
0800
1000
2000
2000
4080
8100
FF00
ENDCHAR
STARTCHAR FF3B
ENCODING 9051
SWIDTH 1800 0
DWIDTH 18 0
BBX 3 17 13 -3
BITMAP
E0
80
80
80
80
80
80
80
80
80
80
80
80
80
80
80
E0
ENDCHAR
STARTCHAR FFE6
ENCODING 9052
SWIDTH 1800 0
DWIDTH 18 0
BBX 17 13 1 -1
BITMAP
07CF80
410200
410200
418400
FFFF00
228400
22C800
FFFF00
144800
145000
143000
083000
082000
ENDCHAR
STARTCHAR FF3D
ENCODING 9053
SWIDTH 1800 0
DWIDTH 18 0
BBX 4 17 1 -3
BITMAP
F0
10
10
10
10
10
10
10
10
10
10
10
10
10
10
10
F0
ENDCHAR
STARTCHAR FF3E
ENCODING 9054
SWIDTH 1800 0
DWIDTH 18 0
BBX 6 3 6 11
BITMAP
30
78
84
ENDCHAR
STARTCHAR FF3F
ENCODING 9055
SWIDTH 1800 0
DWIDTH 18 0
BBX 16 1 1 -3
BITMAP
FFFF
ENDCHAR
STARTCHAR FF40
ENCODING 9056
SWIDTH 1800 0
DWIDTH 18 0
BBX 4 7 7 7
BITMAP
C0
40
60
20
20
10
10
ENDCHAR
STARTCHAR FF41
ENCODING 9057
SWIDTH 1800 0
DWIDTH 18 0
BBX 7 9 6 -1
BITMAP
F8
84
04
1C
64
84
84
DE
20
ENDCHAR
STARTCHAR FF42
ENCODING 9058
SWIDTH 1800 0
DWIDTH 18 0
BBX 8 13 5 -1
BITMAP
C0
40
40
40
5E
62
41
41
41
41
42
66
18
ENDCHAR
STARTCHAR FF43
ENCODING 9059
SWIDTH 1800 0
DWIDTH 18 0
BBX 8 9 5 -1
BITMAP
3E
42
40
80
80
C0
41
26
18
ENDCHAR
STARTCHAR FF44
ENCODING 9060
SWIDTH 1800 0
DWIDTH 18 0
BBX 8 13 5 -1
BITMAP
0E
02
02
02
3E
42
82
82
82
82
C2
6F
10
ENDCHAR
STARTCHAR FF45
ENCODING 9061
SWIDTH 1800 0
DWIDTH 18 0
BBX 8 10 5 -1
BITMAP
3C
62
41
C1
FF
80
80
80
42
3C
ENDCHAR
STARTCHAR FF46
ENCODING 9062
SWIDTH 1800 0
DWIDTH 18 0
BBX 6 13 6 0
BITMAP
0C
1C
20
20
20
F8
20
20
20
20
20
20
F8
ENDCHAR
STARTCHAR FF47
ENCODING 9063
SWIDTH 1800 0
DWIDTH 18 0
BBX 9 11 4 -3
BITMAP
3D80
6200
4100
4100
4200
2400
7800
3E00
4180
C180
7F00
ENDCHAR
STARTCHAR FF48
ENCODING 9064
SWIDTH 1800 0
DWIDTH 18 0
BBX 8 12 5 0
BITMAP
C0
40
40
40
5C
62
42
42
42
42
42
E3
ENDCHAR
STARTCHAR FF49
ENCODING 9065
SWIDTH 1800 0
DWIDTH 18 0
BBX 3 13 7 0
BITMAP
40
40
00
00
40
C0
40
40
40
40
40
40
E0
ENDCHAR
STARTCHAR FF4A
ENCODING 9066
SWIDTH 1800 0
DWIDTH 18 0
BBX 4 16 6 -3
BITMAP
10
10
00
00
00
30
10
10
10
10
10
10
10
10
E0
40
ENDCHAR
STARTCHAR FF4B
ENCODING 9067
SWIDTH 1800 0
DWIDTH 18 0
BBX 8 12 5 0
BITMAP
C0
40
40
40
4F
42
4C
50
68
44
42
63
ENDCHAR
STARTCHAR FF4C
ENCODING 9068
SWIDTH 1800 0
DWIDTH 18 0
BBX 4 12 7 0
BITMAP
E0
20
20
20
20
20
20
20
20
20
20
70
ENDCHAR
STARTCHAR FF4D
ENCODING 9069
SWIDTH 1800 0
DWIDTH 18 0
BBX 14 9 2 0
BITMAP
4C70
F288
4108
4108
4108
4108
4108
4108
E39C
ENDCHAR
STARTCHAR FF4E
ENCODING 9070
SWIDTH 1800 0
DWIDTH 18 0
BBX 8 9 5 0
BITMAP
4C
72
42
42
42
42
42
42
E7
ENDCHAR
STARTCHAR FF4F
ENCODING 9071
SWIDTH 1800 0
DWIDTH 18 0
BBX 8 9 5 -1
BITMAP
3C
42
81
81
81
81
81
42
3C
ENDCHAR
STARTCHAR FF50
ENCODING 9072
SWIDTH 1800 0
DWIDTH 18 0
BBX 8 11 5 -3
BITMAP
FC
42
41
41
41
41
42
66
58
40
E0
ENDCHAR
STARTCHAR FF51
ENCODING 9073
SWIDTH 1800 0
DWIDTH 18 0
BBX 8 12 5 -3
BITMAP
10
6E
C2
82
82
82
82
82
6E
12
02
0F
ENDCHAR
STARTCHAR FF52
ENCODING 9074
SWIDTH 1800 0
DWIDTH 18 0
BBX 6 8 6 0
BITMAP
DC
60
40
40
40
40
40
E0
ENDCHAR
STARTCHAR FF53
ENCODING 9075
SWIDTH 1800 0
DWIDTH 18 0
BBX 6 8 6 0
BITMAP
FC
84
C0
78
0C
04
84
68
ENDCHAR
STARTCHAR FF54
ENCODING 9076
SWIDTH 1800 0
DWIDTH 18 0
BBX 5 12 7 -1
BITMAP
40
40
40
F8
40
40
40
40
40
40
48
30
ENDCHAR
STARTCHAR FF55
ENCODING 9077
SWIDTH 1800 0
DWIDTH 18 0
BBX 8 8 5 0
BITMAP
C6
42
42
42
42
42
42
7F
ENDCHAR
STARTCHAR FF56
ENCODING 9078
SWIDTH 1800 0
DWIDTH 18 0
BBX 8 8 5 0
BITMAP
E3
42
22
24
14
18
18
08
ENDCHAR
STARTCHAR FF57
ENCODING 9079
SWIDTH 1800 0
DWIDTH 18 0
BBX 12 8 3 0
BITMAP
E630
4220
4220
2540
2940
1940
1080
0080
ENDCHAR
STARTCHAR FF58
ENCODING 9080
SWIDTH 1800 0
DWIDTH 18 0
BBX 10 8 4 0
BITMAP
7380
2100
1200
0C00
1400
2200
4100
F3C0
ENDCHAR
STARTCHAR FF59
ENCODING 9081
SWIDTH 1800 0
DWIDTH 18 0
BBX 9 11 4 -3
BITMAP
F180
2100
3100
1200
1200
1C00
0C00
0800
0800
0800
7000
ENDCHAR
STARTCHAR FF5A
ENCODING 9082
SWIDTH 1800 0
DWIDTH 18 0
BBX 7 8 6 0
BITMAP
7C
8C
08
10
20
42
44
9C
ENDCHAR
STARTCHAR FF5B
ENCODING 9083
SWIDTH 1800 0
DWIDTH 18 0
BBX 4 17 12 -3
BITMAP
10
20
20
20
20
20
20
40
C0
20
20
20
20
20
20
20
10
ENDCHAR
STARTCHAR FF5C
ENCODING 9084
SWIDTH 1800 0
DWIDTH 18 0
BBX 1 16 8 -3
BITMAP
80
80
80
80
80
80
80
80
80
80
80
80
80
80
80
80
ENDCHAR
STARTCHAR FF5D
ENCODING 9085
SWIDTH 1800 0
DWIDTH 18 0
BBX 4 16 2 -3
BITMAP
80
40
40
40
40
40
40
30
40
40
40
40
40
40
40
80
ENDCHAR
STARTCHAR FFE3
ENCODING 9086
SWIDTH 1800 0
DWIDTH 18 0
BBX 6 1 6 12
BITMAP
FC
ENDCHAR
STARTCHAR 3131
ENCODING 9249
SWIDTH 1800 0
DWIDTH 18 0
BBX 11 9 3 1
BITMAP
FFE0
6020
0020
0020
0020
0020
0020
0020
0020
ENDCHAR
STARTCHAR 3132
ENCODING 9250
SWIDTH 1800 0
DWIDTH 18 0
BBX 13 9 2 1
BITMAP
FCF8
0408
0408
0408
0408
0408
0408
0408
0408
ENDCHAR
STARTCHAR 3133
ENCODING 9251
SWIDTH 1800 0
DWIDTH 18 0
BBX 13 9 3 1
BITMAP
F8C0
0840
0840
08C0
08C0
09A0
0910
0A08
0C08
ENDCHAR
STARTCHAR 3134
ENCODING 9252
SWIDTH 1800 0
DWIDTH 18 0
BBX 12 7 3 2
BITMAP
C000
4000
4000
4000
4000
4030
3FF0
ENDCHAR
STARTCHAR 3135
ENCODING 9253
SWIDTH 1800 0
DWIDTH 18 0
BBX 14 9 2 1
BITMAP
C3FC
41A0
4030
4020
4060
4250
4C8C
7104
0204
ENDCHAR
STARTCHAR 3136
ENCODING 9254
SWIDTH 1800 0
DWIDTH 18 0
BBX 15 10 2 0
BITMAP
8070
4006
43FE
4020
40F0
4188
4508
7908
6198
00F0
ENDCHAR
STARTCHAR 3137
ENCODING 9255
SWIDTH 1800 0
DWIDTH 18 0
BBX 12 8 3 2
BITMAP
0060
FFE0
4000
4000
4000
4000
4030
7FF0
ENDCHAR
STARTCHAR 3138
ENCODING 9256
SWIDTH 1800 0
DWIDTH 18 0
BBX 14 10 2 1
BITMAP
0008
C0FC
7C80
4080
4080
4080
4080
4080
4484
78FC
ENDCHAR
STARTCHAR 3139
ENCODING 9257
SWIDTH 1800 0
DWIDTH 18 0
BBX 12 10 3 1
BITMAP
0020
FFE0
4020
0040
0040
7FE0
4000
4000
4030
7FF0
ENDCHAR
STARTCHAR 313A
ENCODING 9258
SWIDTH 1800 0
DWIDTH 18 0
BBX 13 9 2 1
BITMAP
0408
7CF8
0408
0808
FC08
4008
4008
4608
7808
ENDCHAR
STARTCHAR 313B
ENCODING 9259
SWIDTH 1800 0
DWIDTH 18 0
BBX 14 9 2 1
BITMAP
FDFC
0484
0484
0884
FC84
4084
4088
40FC
7E80
ENDCHAR
STARTCHAR 313C
ENCODING 9260
SWIDTH 1800 0
DWIDTH 18 0
BBX 14 10 2 1
BITMAP
040C
7D04
0484
0884
FCFC
4084
4084
4184
7EFC
0084
ENDCHAR
STARTCHAR 313D
ENCODING 9261
SWIDTH 1800 0
DWIDTH 18 0
BBX 14 10 2 1
BITMAP
0440
7C20
0430
0820
FC20
4060
4050
4088
7E8C
0104
ENDCHAR
STARTCHAR 313E
ENCODING 9262
SWIDTH 1800 0
DWIDTH 18 0
BBX 15 10 2 1
BITMAP
0004
04FC
7C80
0480
0888
FCF8
4080
4080
4184
7EFE
ENDCHAR
STARTCHAR 313F
ENCODING 9263
SWIDTH 1800 0
DWIDTH 18 0
BBX 15 10 2 0
BITMAP
FC0C
05F0
0408
0508
FC88
4090
4090
4226
7FFE
4000
ENDCHAR
STARTCHAR 3140
ENCODING 9264
SWIDTH 1800 0
DWIDTH 18 0
BBX 15 10 2 0
BITMAP
FCF0
0804
0BFE
0820
F8F0
4188
4108
4308
5D88
60F0
ENDCHAR
STARTCHAR 3141
ENCODING 9265
SWIDTH 1800 0
DWIDTH 18 0
BBX 12 9 3 1
BITMAP
FFF0
4020
4020
4020
4020
4040
4040
7FE0
4000
ENDCHAR
STARTCHAR 3142
ENCODING 9266
SWIDTH 1800 0
DWIDTH 18 0
BBX 9 11 4 0
BITMAP
0180
C080
4080
4080
7F80
4080
4080
4080
4080
7F80
0080
ENDCHAR
STARTCHAR 3143
ENCODING 9267
SWIDTH 1800 0
DWIDTH 18 0
BBX 14 11 2 0
BITMAP
000C
0C84
C484
4484
44FC
7C84
4484
4484
4484
7CFC
4484
ENDCHAR
STARTCHAR 3144
ENCODING 9268
SWIDTH 1800 0
DWIDTH 18 0
BBX 14 11 2 0
BITMAP
0640
C230
4220
4220
7E60
4260
4250
4288
430C
7E04
4000
ENDCHAR
STARTCHAR 3145
ENCODING 9269
SWIDTH 1800 0
DWIDTH 18 0
BBX 12 9 3 1
BITMAP
0600
0200
0600
0600
0980
1040
2030
4010
8010
ENDCHAR
STARTCHAR 3146
ENCODING 9270
SWIDTH 1800 0
DWIDTH 18 0
BBX 14 9 2 1
BITMAP
0820
0C30
0820
1840
1660
2290
4108
8204
0404
ENDCHAR
STARTCHAR 3147
ENCODING 9271
SWIDTH 1800 0
DWIDTH 18 0
BBX 10 10 4 1
BITMAP
0400
3F00
6180
8040
8040
8040
8040
8040
6180
3F00
ENDCHAR
STARTCHAR 3148
ENCODING 9272
SWIDTH 1800 0
DWIDTH 18 0
BBX 11 9 4 2
BITMAP
00C0
FFC0
4400
0400
0C00
1A00
3180
4060
8020
ENDCHAR
STARTCHAR 3149
ENCODING 9273
SWIDTH 1800 0
DWIDTH 18 0
BBX 16 8 1 2
BITMAP
7FFE
0410
0410
0C30
1428
3344
4182
8101
ENDCHAR
STARTCHAR 314A
ENCODING 9274
SWIDTH 1800 0
DWIDTH 18 0
BBX 12 10 3 0
BITMAP
0F80
0000
FFF0
6200
0600
0600
0980
3060
4010
8000
ENDCHAR
STARTCHAR 314B
ENCODING 9275
SWIDTH 1800 0
DWIDTH 18 0
BBX 11 11 3 0
BITMAP
0020
7FE0
3020
0020
0060
07A0
F820
0020
0040
0040
0040
ENDCHAR
STARTCHAR 314C
ENCODING 9276
SWIDTH 1800 0
DWIDTH 18 0
BBX 12 9 3 1
BITMAP
FFE0
4000
4000
4000
7FE0
4000
4000
4030
7FF0
ENDCHAR
STARTCHAR 314D
ENCODING 9277
SWIDTH 1800 0
DWIDTH 18 0
BBX 14 9 2 1
BITMAP
0038
7FF8
2060
1040
0840
0840
0888
03FC
FC00
ENDCHAR
STARTCHAR 314E
ENCODING 9278
SWIDTH 1800 0
DWIDTH 18 0
BBX 14 10 2 0
BITMAP
07C0
0008
FFFC
0100
0E80
1060
1020
1020
1860
07C0
ENDCHAR
STARTCHAR 314F
ENCODING 9279
SWIDTH 1800 0
DWIDTH 18 0
BBX 7 15 6 -2
BITMAP
E0
20
20
20
20
20
22
3E
20
20
20
20
20
20
20
ENDCHAR
STARTCHAR 3150
ENCODING 9280
SWIDTH 1800 0
DWIDTH 18 0
BBX 7 15 6 -2
BITMAP
8E
42
42
42
42
42
42
7E
42
42
42
42
42
42
02
ENDCHAR
STARTCHAR 3151
ENCODING 9281
SWIDTH 1800 0
DWIDTH 18 0
BBX 7 15 6 -2
BITMAP
E0
20
20
20
26
3E
20
20
22
3E
20
20
20
20
20
ENDCHAR
STARTCHAR 3152
ENCODING 9282
SWIDTH 1800 0
DWIDTH 18 0
BBX 6 15 6 -2
BITMAP
CC
44
44
44
7C
44
44
44
7C
44
44
44
44
44
04
ENDCHAR
STARTCHAR 3153
ENCODING 9283
SWIDTH 1800 0
DWIDTH 18 0
BBX 7 15 5 -2
BITMAP
06
02
02
02
02
02
FE
02
02
02
02
02
02
02
02
ENDCHAR
STARTCHAR 3154
ENCODING 9284
SWIDTH 1800 0
DWIDTH 18 0
BBX 10 15 3 -2
BITMAP
01C0
0C40
0440
0440
0440
0440
0440
FC40
0440
0440
0440
0440
0440
0440
0040
ENDCHAR
STARTCHAR 3155
ENCODING 9285
SWIDTH 1800 0
DWIDTH 18 0
BBX 7 15 5 -2
BITMAP
06
02
02
02
FE
42
02
02
02
FE
02
02
02
02
02
ENDCHAR
STARTCHAR 3156
ENCODING 9286
SWIDTH 1800 0
DWIDTH 18 0
BBX 10 15 3 -2
BITMAP
09C0
0440
0440
0440
FC40
4440
0440
0440
0440
7C40
0440
0440
0440
0440
0040
ENDCHAR
STARTCHAR 3157
ENCODING 9287
SWIDTH 1800 0
DWIDTH 18 0
BBX 15 8 2 2
BITMAP
0300
0100
0100
0100
0100
0100
0104
FFFE
ENDCHAR
STARTCHAR 3158
ENCODING 9288
SWIDTH 1800 0
DWIDTH 18 0
BBX 16 15 1 -2
BITMAP
0070
0010
0010
1C10
0410
0410
0410
041F
0410
05F0
FE10
0010
0010
0010
0010
ENDCHAR
STARTCHAR 3159
ENCODING 9289
SWIDTH 1800 0
DWIDTH 18 0
BBX 13 16 2 -2
BITMAP
0030
0008
0188
0088
1088
1088
1088
1088
10F8
1088
1F88
F088
0088
0088
0088
0008
ENDCHAR
STARTCHAR 315A
ENCODING 9290
SWIDTH 1800 0
DWIDTH 18 0
BBX 12 15 2 -2
BITMAP
0030
0010
0010
0C10
0410
0410
0410
0410
0430
05D0
FE10
0010
0010
0010
0010
ENDCHAR
STARTCHAR 315B
ENCODING 9291
SWIDTH 1800 0
DWIDTH 18 0
BBX 15 8 2 2
BITMAP
0060
1820
0820
0820
0820
0840
0840
FFFE
ENDCHAR
STARTCHAR 315C
ENCODING 9292
SWIDTH 1800 0
DWIDTH 18 0
BBX 16 12 1 -2
BITMAP
0003
FFFF
3080
0080
0080
0080
0080
0080
0080
0080
0080
0080
ENDCHAR
STARTCHAR 315D
ENCODING 9293
SWIDTH 1800 0
DWIDTH 18 0
BBX 12 15 2 -2
BITMAP
0030
0010
0010
0010
0190
FE10
0410
0430
04D0
0410
0410
0410
0410
0010
0010
ENDCHAR
STARTCHAR 315E
ENCODING 9294
SWIDTH 1800 0
DWIDTH 18 0
BBX 13 15 2 -2
BITMAP
0018
00C8
0048
0048
0048
1E48
E848
08C8
0948
0848
0848
0848
0048
0008
0008
ENDCHAR
STARTCHAR 315F
ENCODING 9295
SWIDTH 1800 0
DWIDTH 18 0
BBX 12 15 2 -2
BITMAP
0030
0010
0010
0010
0030
8FD0
7410
0410
0410
0410
0410
0410
0410
0010
0010
ENDCHAR
STARTCHAR 3160
ENCODING 9296
SWIDTH 1800 0
DWIDTH 18 0
BBX 15 13 2 -3
BITMAP
000E
FFFE
6840
0840
0840
0840
0840
0840
0840
0840
0840
0840
0800
ENDCHAR
STARTCHAR 3161
ENCODING 9297
SWIDTH 1800 0
DWIDTH 18 0
BBX 15 2 2 5
BITMAP
000E
FFFE
ENDCHAR
STARTCHAR 3162
ENCODING 9298
SWIDTH 1800 0
DWIDTH 18 0
BBX 12 15 2 -2
BITMAP
0030
0010
0010
0010
0010
0010
0010
0070
0790
F810
0010
0010
0010
0010
0010
ENDCHAR
STARTCHAR 3163
ENCODING 9299
SWIDTH 1800 0
DWIDTH 18 0
BBX 2 15 8 -2
BITMAP
C0
40
40
40
40
40
40
40
40
40
40
40
40
40
40
ENDCHAR
STARTCHAR 3164
ENCODING 9300
SWIDTH 1800 0
DWIDTH 18 0
BBX 0 0 0 0
BITMAP
ENDCHAR
STARTCHAR 3165
ENCODING 9301
SWIDTH 1800 0
DWIDTH 18 0
BBX 15 8 2 2
BITMAP
0080
C080
4080
4080
4080
4080
4480
78FE
ENDCHAR
STARTCHAR 3166
ENCODING 9302
SWIDTH 1800 0
DWIDTH 18 0
BBX 15 10 2 1
BITMAP
0108
00FC
C080
4080
4080
4080
4080
4480
5884
60FE
ENDCHAR
STARTCHAR 3167
ENCODING 9303
SWIDTH 1800 0
DWIDTH 18 0
BBX 15 9 1 1
BITMAP
E030
2030
2020
2020
2050
20C8
2484
3906
0200
ENDCHAR
STARTCHAR 3168
ENCODING 9304
SWIDTH 1800 0
DWIDTH 18 0
BBX 14 9 2 1
BITMAP
C060
4060
4060
4090
4090
4188
4508
5904
63FC
ENDCHAR
STARTCHAR 3169
ENCODING 9305
SWIDTH 1800 0
DWIDTH 18 0
BBX 14 9 2 1
BITMAP
FF10
1110
1110
1110
6130
4128
4144
4584
7980
ENDCHAR
STARTCHAR 316A
ENCODING 9306
SWIDTH 1800 0
DWIDTH 18 0
BBX 15 9 2 2
BITMAP
000C
FDFC
0480
0880
FC80
4080
4080
4084
7CFE
ENDCHAR
STARTCHAR 316B
ENCODING 9307
SWIDTH 1800 0
DWIDTH 18 0
BBX 15 10 2 0
BITMAP
F8D8
1648
1248
9248
63D0
4258
4264
4A66
73C2
0280
ENDCHAR
STARTCHAR 316C
ENCODING 9308
SWIDTH 1800 0
DWIDTH 18 0
BBX 14 9 2 1
BITMAP
FE20
0430
0430
0450
7C48
4088
4084
4784
79FC
ENDCHAR
STARTCHAR 316D
ENCODING 9309
SWIDTH 1800 0
DWIDTH 18 0
BBX 15 10 2 0
BITMAP
FC04
45FE
0400
0830
FC78
4084
4084
4284
5C78
6000
ENDCHAR
STARTCHAR 316E
ENCODING 9310
SWIDTH 1800 0
DWIDTH 18 0
BBX 13 10 3 0
BITMAP
0218
FD08
8908
8908
89F8
8908
8908
8908
F9F8
8008
ENDCHAR
STARTCHAR 316F
ENCODING 9311
SWIDTH 1800 0
DWIDTH 18 0
BBX 13 9 3 1
BITMAP
0080
FC40
8840
88C0
88C0
8920
8910
FA18
8408
ENDCHAR
STARTCHAR 3170
ENCODING 9312
SWIDTH 1800 0
DWIDTH 18 0
BBX 13 9 3 1
BITMAP
00C0
FC40
88A0
88A0
88A0
8910
8910
8A08
FBF8
ENDCHAR
STARTCHAR 3171
ENCODING 9313
SWIDTH 1800 0
DWIDTH 18 0
BBX 9 12 4 -1
BITMAP
FF80
4080
4100
4100
7F80
4000
3F00
6180
4080
4080
6180
1F00
ENDCHAR
STARTCHAR 3172
ENCODING 9314
SWIDTH 1800 0
DWIDTH 18 0
BBX 13 10 2 0
BITMAP
0C08
C4F8
4408
4408
7C08
4408
4408
4408
7C08
0400
ENDCHAR
STARTCHAR 3173
ENCODING 9315
SWIDTH 1800 0
DWIDTH 18 0
BBX 14 10 2 0
BITMAP
0DF8
C480
4480
4480
7C80
4480
4480
448C
7CFC
4400
ENDCHAR
STARTCHAR 3174
ENCODING 9316
SWIDTH 1800 0
DWIDTH 18 0
BBX 14 10 2 0
BITMAP
1884
889C
8884
8884
F984
8944
8A24
8C24
F804
8000
ENDCHAR
STARTCHAR 3175
ENCODING 9317
SWIDTH 1800 0
DWIDTH 18 0
BBX 15 9 1 1
BITMAP
8886
4898
4890
7890
4990
4950
4A50
4A30
7C0E
ENDCHAR
STARTCHAR 3176
ENCODING 9318
SWIDTH 1800 0
DWIDTH 18 0
BBX 14 11 2 0
BITMAP
0008
CDFC
4420
4420
7C60
4460
4490
4488
4504
7E04
4000
ENDCHAR
STARTCHAR 3177
ENCODING 9319
SWIDTH 1800 0
DWIDTH 18 0
BBX 13 11 3 0
BITMAP
0030
1BF0
8A00
8A00
8A20
FBE0
8A00
8A00
8A10
FBF8
8000
ENDCHAR
STARTCHAR 3178
ENCODING 9320
SWIDTH 1800 0
DWIDTH 18 0
BBX 9 15 5 -2
BITMAP
0180
8080
8080
FF80
8080
8080
8080
FF80
8080
3E00
4300
8100
8100
4300
3E00
ENDCHAR
STARTCHAR 3179
ENCODING 9321
SWIDTH 1800 0
DWIDTH 18 0
BBX 11 15 3 -2
BITMAP
0060
C920
4920
79E0
4920
4920
79E0
4100
0000
0F80
10C0
2040
2040
10C0
0F80
ENDCHAR
STARTCHAR 317A
ENCODING 9322
SWIDTH 1800 0
DWIDTH 18 0
BBX 13 9 2 1
BITMAP
0808
0CF8
0808
0808
1808
3408
2208
4108
8108
ENDCHAR
STARTCHAR 317B
ENCODING 9323
SWIDTH 1800 0
DWIDTH 18 0
BBX 14 9 2 1
BITMAP
1980
0880
1880
1080
1880
2480
4680
828C
00FC
ENDCHAR
STARTCHAR 317C
ENCODING 9324
SWIDTH 1800 0
DWIDTH 18 0
BBX 15 10 1 1
BITMAP
0004
0C7E
0440
0840
0840
1440
1640
2340
4142
807E
ENDCHAR
STARTCHAR 317D
ENCODING 9325
SWIDTH 1800 0
DWIDTH 18 0
BBX 14 10 1 1
BITMAP
000C
0CC4
0444
0C44
087C
1C44
1244
2344
417C
8044
ENDCHAR
STARTCHAR 317E
ENCODING 9326
SWIDTH 1800 0
DWIDTH 18 0
BBX 15 9 1 1
BITMAP
0DFE
0C10
0810
0810
1830
1628
2244
4182
8002
ENDCHAR
STARTCHAR 317F
ENCODING 9327
SWIDTH 1800 0
DWIDTH 18 0
BBX 11 10 4 1
BITMAP
0800
0400
0C00
1A00
1100
2100
2080
4080
8040
FFE0
ENDCHAR
STARTCHAR 3180
ENCODING 9328
SWIDTH 1800 0
DWIDTH 18 0
BBX 14 8 2 1
BITMAP
7870
C488
8484
8484
8484
8484
C48C
7878
ENDCHAR
STARTCHAR 3181
ENCODING 9329
SWIDTH 1800 0
DWIDTH 18 0
BBX 8 10 5 1
BITMAP
18
08
08
7C
C3
81
81
81
43
3C
ENDCHAR
STARTCHAR 3182
ENCODING 9330
SWIDTH 1800 0
DWIDTH 18 0
BBX 14 10 2 1
BITMAP
3000
1020
7820
CC20
8460
8460
84D0
8488
CD04
7A04
ENDCHAR
STARTCHAR 3183
ENCODING 9331
SWIDTH 1800 0
DWIDTH 18 0
BBX 14 10 2 1
BITMAP
1040
1020
7860
CC50
8450
8488
8488
8504
CD04
79FC
ENDCHAR
STARTCHAR 3184
ENCODING 9332
SWIDTH 1800 0
DWIDTH 18 0
BBX 11 14 4 -2
BITMAP
FFC0
0180
2100
1100
1200
FFE0
0000
1E00
2100
4080
4080
4080
2180
1F00
ENDCHAR
STARTCHAR 3185
ENCODING 9333
SWIDTH 1800 0
DWIDTH 18 0
BBX 16 11 1 0
BITMAP
1C3C
0000
0303
FFFF
0000
0808
3434
4242
4242
6666
3C3C
ENDCHAR
STARTCHAR 3186
ENCODING 9334
SWIDTH 1800 0
DWIDTH 18 0
BBX 12 11 3 0
BITMAP
0030
FFF0
0000
0000
0F00
1080
2040
2040
2040
1080
0F00
ENDCHAR
STARTCHAR 3187
ENCODING 9335
SWIDTH 1800 0
DWIDTH 18 0
BBX 15 15 2 -2
BITMAP
0070
0010
0010
0110
3110
111E
1110
1110
1110
11F6
FE18
0010
0010
0010
0010
ENDCHAR
STARTCHAR 3188
ENCODING 9336
SWIDTH 1800 0
DWIDTH 18 0
BBX 13 15 2 -2
BITMAP
0638
0118
0998
05D8
65F8
25C8
25C8
25C8
27F8
3DC8
E1C8
01C8
01C8
0188
0008
ENDCHAR
STARTCHAR 3189
ENCODING 9337
SWIDTH 1800 0
DWIDTH 18 0
BBX 13 15 1 -2
BITMAP
0038
0008
0008
0188
1088
0888
0888
0888
0888
08E8
FF08
0008
0008
0008
0008
ENDCHAR
STARTCHAR 318A
ENCODING 9338
SWIDTH 1800 0
DWIDTH 18 0
BBX 12 15 2 -2
BITMAP
0070
0010
0010
0010
0190
FE10
1210
12F0
1210
1230
12D0
1210
0210
0010
0010
ENDCHAR
STARTCHAR 318B
ENCODING 9339
SWIDTH 1800 0
DWIDTH 18 0
BBX 14 15 1 -2
BITMAP
001C
0064
0024
0024
0024
0724
FA24
12E4
1224
13E4
1224
1224
0024
0004
0004
ENDCHAR
STARTCHAR 318C
ENCODING 9340
SWIDTH 1800 0
DWIDTH 18 0
BBX 11 15 3 -2
BITMAP
00E0
0020
0020
0020
0020
0FA0
F220
1220
1220
1220
1220
1220
1220
0020
0020
ENDCHAR
STARTCHAR 318D
ENCODING 9341
SWIDTH 1800 0
DWIDTH 18 0
BBX 3 3 8 4
BITMAP
C0
E0
C0
ENDCHAR
STARTCHAR 318E
ENCODING 9342
SWIDTH 1800 0
DWIDTH 18 0
BBX 9 15 5 -2
BITMAP
0380
0080
0080
0080
0080
C080
E080
C080
0080
0080
0080
0080
0080
0080
0080
ENDCHAR
STARTCHAR 2170
ENCODING 9505
SWIDTH 1800 0
DWIDTH 18 0
BBX 3 13 8 0
BITMAP
40
40
00
00
00
C0
40
40
40
40
40
40
E0
ENDCHAR
STARTCHAR 2171
ENCODING 9506
SWIDTH 1800 0
DWIDTH 18 0
BBX 8 12 5 0
BITMAP
42
00
00
00
C6
42
42
42
42
42
42
E7
ENDCHAR
STARTCHAR 2172
ENCODING 9507
SWIDTH 1800 0
DWIDTH 18 0
BBX 11 12 3 0
BITMAP
4220
0000
0000
0000
C660
4220
4220
4220
4220
4220
4220
C220
ENDCHAR
STARTCHAR 2173
ENCODING 9508
SWIDTH 1800 0
DWIDTH 18 0
BBX 11 13 4 0
BITMAP
4000
4000
0000
0000
0000
C860
4840
4480
4480
4680
4300
4300
4000
ENDCHAR
STARTCHAR 2174
ENCODING 9509
SWIDTH 1800 0
DWIDTH 18 0
BBX 7 8 6 0
BITMAP
C6
C4
44
68
28
28
10
10
ENDCHAR
STARTCHAR 2175
ENCODING 9510
SWIDTH 1800 0
DWIDTH 18 0
BBX 10 13 4 0
BITMAP
0040
0040
0000
0000
0000
C6C0
C440
4840
4840
2840
3040
3040
10C0
ENDCHAR
STARTCHAR 2176
ENCODING 9511
SWIDTH 1800 0
DWIDTH 18 0
BBX 12 13 3 0
BITMAP
0090
0090
0000
0000
0000
85B0
8890
4890
5090
5090
3090
2090
2190
ENDCHAR
STARTCHAR 2177
ENCODING 9512
SWIDTH 1800 0
DWIDTH 18 0
BBX 14 13 2 0
BITMAP
0124
0124
0000
0000
0000
C56C
C924
4924
4924
7124
3124
3124
2124
ENDCHAR
STARTCHAR 2178
ENCODING 9513
SWIDTH 1800 0
DWIDTH 18 0
BBX 13 13 3 0
BITMAP
2000
2000
0000
0000
2000
2F70
2220
2340
2180
2180
2240
2420
FE78
ENDCHAR
STARTCHAR 2179
ENCODING 9514
SWIDTH 1800 0
DWIDTH 18 0
BBX 10 8 4 0
BITMAP
7380
3200
1400
0800
0C00
1200
2300
E3C0
ENDCHAR
STARTCHAR 2160
ENCODING 9520
SWIDTH 1800 0
DWIDTH 18 0
BBX 5 12 6 0
BITMAP
F8
20
20
20
20
20
20
20
20
20
20
F8
ENDCHAR
STARTCHAR 2161
ENCODING 9521
SWIDTH 1800 0
DWIDTH 18 0
BBX 11 12 4 0
BITMAP
FFE0
2080
2080
2080
2080
2080
2080
2080
2080
2080
2080
7FE0
ENDCHAR
STARTCHAR 2162
ENCODING 9522
SWIDTH 1800 0
DWIDTH 18 0
BBX 14 12 2 0
BITMAP
7FF8
2110
2110
2110
2110
2110
2110
2110
2110
2110
2110
FFBC
ENDCHAR
STARTCHAR 2163
ENCODING 9523
SWIDTH 1800 0
DWIDTH 18 0
BBX 14 12 2 0
BITMAP
7E0C
2608
2208
2210
2310
2110
2120
21A0
20A0
20C0
20C0
F040
ENDCHAR
STARTCHAR 2164
ENCODING 9524
SWIDTH 1800 0
DWIDTH 18 0
BBX 12 12 3 0
BITMAP
F8F0
6060
2040
2040
1080
1080
1880
0900
0900
0E00
0600
0600
ENDCHAR
STARTCHAR 2165
ENCODING 9525
SWIDTH 1800 0
DWIDTH 18 0
BBX 13 12 2 0
BITMAP
E1F8
4110
4110
2110
2210
2210
3210
1410
1410
1810
0810
0838
ENDCHAR
STARTCHAR 2166
ENCODING 9526
SWIDTH 1800 0
DWIDTH 18 0
BBX 16 13 1 -1
BITMAP
F9FF
60A2
2122
2122
3122
1222
1222
1222
0C22
0C22
0C22
0C22
005C
ENDCHAR
STARTCHAR 2167
ENCODING 9527
SWIDTH 1800 0
DWIDTH 18 0
BBX 15 13 2 -1
BITMAP
C7FC
C4A4
44A4
44A4
44A4
48A4
68A4
28A4
30A4
30A4
30A4
01BE
0040
ENDCHAR
STARTCHAR 2168
ENCODING 9528
SWIDTH 1800 0
DWIDTH 18 0
BBX 14 12 2 0
BITMAP
FE18
4410
4220
4340
4180
4180
4180
4240
4260
4420
4810
FC3C
ENDCHAR
STARTCHAR 2169
ENCODING 9529
SWIDTH 1800 0
DWIDTH 18 0
BBX 12 12 3 0
BITMAP
F8F0
3040
1080
0900
0A00
0400
0A00
1100
1180
2080
2040
F1F0
ENDCHAR
STARTCHAR 0391
ENCODING 9537
SWIDTH 1800 0
DWIDTH 18 0
BBX 14 12 2 0
BITMAP
0060
00A0
00A0
0120
0220
0430
0410
0FF0
1010
2010
2010
F07C
ENDCHAR
STARTCHAR 0392
ENCODING 9538
SWIDTH 1800 0
DWIDTH 18 0
BBX 13 13 2 -1
BITMAP
07F0
0408
0408
0408
0C10
0FE0
0820
0810
1010
1010
1020
F8C0
0700
ENDCHAR
STARTCHAR 0393
ENCODING 9539
SWIDTH 1800 0
DWIDTH 18 0
BBX 12 12 3 0
BITMAP
0FF0
0810
0810
0810
0800
1000
1000
1000
3000
2000
2000
F800
ENDCHAR
STARTCHAR 0394
ENCODING 9540
SWIDTH 1800 0
DWIDTH 18 0
BBX 12 12 3 0
BITMAP
0030
0050
00A0
0120
0220
0420
0820
1020
2020
2040
4040
FFC0
ENDCHAR
STARTCHAR 0395
ENCODING 9541
SWIDTH 1800 0
DWIDTH 18 0
BBX 14 12 2 0
BITMAP
07F8
0408
0404
0400
0840
0FC0
0880
1080
1000
1010
3030
FFE0
ENDCHAR
STARTCHAR 0396
ENCODING 9542
SWIDTH 1800 0
DWIDTH 18 0
BBX 12 12 3 0
BITMAP
0FF0
1820
1040
0080
0100
0200
0400
0800
1000
2040
4180
FF80
ENDCHAR
STARTCHAR 0397
ENCODING 9543
SWIDTH 1800 0
DWIDTH 18 0
BBX 15 12 1 0
BITMAP
0E0E
0404
0408
0808
0808
0FF0
1810
1010
1020
1020
2020
F9F8
ENDCHAR
STARTCHAR 0398
ENCODING 9544
SWIDTH 1800 0
DWIDTH 18 0
BBX 12 14 3 -1
BITMAP
0380
0C60
1020
2010
6010
4890
4F30
5120
9120
8040
4040
4080
3300
0C00
ENDCHAR
STARTCHAR 0399
ENCODING 9545
SWIDTH 1800 0
DWIDTH 18 0
BBX 7 12 5 0
BITMAP
0E
04
0C
08
08
08
10
10
10
20
20
F0
ENDCHAR
STARTCHAR 039A
ENCODING 9546
SWIDTH 1800 0
DWIDTH 18 0
BBX 16 12 1 0
BITMAP
0F9F
060C
0410
0420
0CC0
0B80
0C80
1040
1040
1020
3020
F8F8
ENDCHAR
STARTCHAR 039B
ENCODING 9547
SWIDTH 1800 0
DWIDTH 18 0
BBX 13 12 2 0
BITMAP
0060
00A0
0120
0120
0220
0420
0420
0820
1020
1020
2030
F0F8
ENDCHAR
STARTCHAR 039C
ENCODING 9548
SWIDTH 1800 0
DWIDTH 18 0
BBX 16 12 1 0
BITMAP
0603
0606
0A0A
0A16
0A14
1224
1244
1248
2288
2308
2210
F27C
ENDCHAR
STARTCHAR 039D
ENCODING 9549
SWIDTH 1800 0
DWIDTH 18 0
BBX 16 12 1 0
BITMAP
0E07
0604
0A08
0908
0908
0888
1090
1090
1050
2060
2060
F820
ENDCHAR
STARTCHAR 039E
ENCODING 9550
SWIDTH 1800 0
DWIDTH 18 0
BBX 12 12 3 0
BITMAP
1FF0
2010
2010
0000
1000
1F80
1080
0080
0000
8040
8040
FF80
ENDCHAR
STARTCHAR 039F
ENCODING 9551
SWIDTH 1800 0
DWIDTH 18 0
BBX 10 14 4 -1
BITMAP
0700
1880
2040
6040
4040
C040
8040
8040
80C0
8080
8100
8200
6400
1800
ENDCHAR
STARTCHAR 03A0
ENCODING 9552
SWIDTH 1800 0
DWIDTH 18 0
BBX 14 12 2 0
BITMAP
0FFC
0410
0810
0810
0820
1020
1020
1060
2040
2040
20C0
F1E0
ENDCHAR
STARTCHAR 03A1
ENCODING 9553
SWIDTH 1800 0
DWIDTH 18 0
BBX 12 12 3 0
BITMAP
0FE0
0410
0810
0810
0830
1FC0
1000
1000
2000
2000
2000
F800
ENDCHAR
STARTCHAR 03A3
ENCODING 9554
SWIDTH 1800 0
DWIDTH 18 0
BBX 12 12 3 0
BITMAP
0FF0
0810
0410
0400
0200
0300
0200
0400
0800
3040
40C0
FF80
ENDCHAR
STARTCHAR 03A4
ENCODING 9555
SWIDTH 1800 0
DWIDTH 18 0
BBX 12 12 3 0
BITMAP
7FF0
4230
8210
0400
0400
0400
0800
0800
0800
1000
1000
7C00
ENDCHAR
STARTCHAR 03A5
ENCODING 9556
SWIDTH 1800 0
DWIDTH 18 0
BBX 12 13 3 0
BITMAP
3870
C8B0
0700
0600
0400
0800
0800
0800
1000
1000
1000
3000
F800
ENDCHAR
STARTCHAR 03A6
ENCODING 9557
SWIDTH 1800 0
DWIDTH 18 0
BBX 10 12 4 0
BITMAP
0F80
0F00
3480
4440
C440
8840
8840
88C0
8980
5300
3E00
7800
ENDCHAR
STARTCHAR 03A7
ENCODING 9558
SWIDTH 1800 0
DWIDTH 18 0
BBX 15 12 1 0
BITMAP
0F1E
0408
0210
0220
0140
0180
0280
0440
0840
1020
2020
F8F8
ENDCHAR
STARTCHAR 03A8
ENCODING 9559
SWIDTH 1800 0
DWIDTH 18 0
BBX 13 13 3 0
BITMAP
6000
2730
2658
2440
4480
4480
8880
8880
4980
3E00
1000
1000
7C00
ENDCHAR
STARTCHAR 03A9
ENCODING 9560
SWIDTH 1800 0
DWIDTH 18 0
BBX 14 12 2 0
BITMAP
03F0
0408
0804
1004
100C
1008
1018
1030
08E0
4500
8910
F9F0
ENDCHAR
STARTCHAR 03B1
ENCODING 9569
SWIDTH 1800 0
DWIDTH 18 0
BBX 9 8 5 0
BITMAP
1D80
6500
4500
8600
8400
8400
8800
F600
ENDCHAR
STARTCHAR 03B2
ENCODING 9570
SWIDTH 1800 0
DWIDTH 18 0
BBX 10 14 4 -2
BITMAP
0780
0840
0840
1040
1080
1F00
2100
2080
2080
4180
6100
5E00
C000
C000
ENDCHAR
STARTCHAR 03B3
ENCODING 9571
SWIDTH 1800 0
DWIDTH 18 0
BBX 8 10 5 -2
BITMAP
E1
32
14
18
10
10
20
60
40
C0
ENDCHAR
STARTCHAR 03B4
ENCODING 9572
SWIDTH 1800 0
DWIDTH 18 0
BBX 8 12 5 0
BITMAP
1C
22
11
09
04
7C
42
82
86
84
8C
78
ENDCHAR
STARTCHAR 03B5
ENCODING 9573
SWIDTH 1800 0
DWIDTH 18 0
BBX 8 8 5 0
BITMAP
1E
21
40
3C
C0
80
C2
7C
ENDCHAR
STARTCHAR 03B6
ENCODING 9574
SWIDTH 1800 0
DWIDTH 18 0
BBX 8 14 5 -2
BITMAP
20
43
4E
30
20
40
80
80
80
80
78
08
08
78
ENDCHAR
STARTCHAR 03B7
ENCODING 9575
SWIDTH 1800 0
DWIDTH 18 0
BBX 8 10 5 -2
BITMAP
6E
11
22
22
42
44
C4
0C
08
18
ENDCHAR
STARTCHAR 03B8
ENCODING 9576
SWIDTH 1800 0
DWIDTH 18 0
BBX 8 14 5 -1
BITMAP
04
0B
11
21
21
41
7E
82
82
84
84
88
50
20
ENDCHAR
STARTCHAR 03B9
ENCODING 9577
SWIDTH 1800 0
DWIDTH 18 0
BBX 4 8 7 0
BITMAP
30
20
60
40
80
80
90
E0
ENDCHAR
STARTCHAR 03BA
ENCODING 9578
SWIDTH 1800 0
DWIDTH 18 0
BBX 8 8 5 0
BITMAP
33
24
28
70
58
48
CA
8C
ENDCHAR
STARTCHAR 03BB
ENCODING 9579
SWIDTH 1800 0
DWIDTH 18 0
BBX 8 12 5 0
BITMAP
0E
06
02
02
02
06
0A
12
32
22
43
C1
ENDCHAR
STARTCHAR 03BC
ENCODING 9580
SWIDTH 1800 0
DWIDTH 18 0
BBX 9 9 5 -2
BITMAP
1180
2100
2100
6300
4200
4480
AB00
9000
8000
ENDCHAR
STARTCHAR 03BD
ENCODING 9581
SWIDTH 1800 0
DWIDTH 18 0
BBX 8 8 5 0
BITMAP
41
61
22
42
44
48
B0
E0
ENDCHAR
STARTCHAR 03BE
ENCODING 9582
SWIDTH 1800 0
DWIDTH 18 0
BBX 9 15 4 -2
BITMAP
0200
0C00
0800
0F80
3000
2000
2000
1F80
6000
8000
8000
4000
7E00
0200
1C00
ENDCHAR
STARTCHAR 03BF
ENCODING 9583
SWIDTH 1800 0
DWIDTH 18 0
BBX 8 9 5 -1
BITMAP
1E
22
41
41
82
82
44
48
30
ENDCHAR
STARTCHAR 03C0
ENCODING 9584
SWIDTH 1800 0
DWIDTH 18 0
BBX 10 8 4 0
BITMAP
3840
6F80
1200
2400
2400
2400
4400
C700
ENDCHAR
STARTCHAR 03C1
ENCODING 9585
SWIDTH 1800 0
DWIDTH 18 0
BBX 8 9 5 -2
BITMAP
1F
21
21
41
41
C2
A4
98
80
ENDCHAR
STARTCHAR 03C3
ENCODING 9586
SWIDTH 1800 0
DWIDTH 18 0
BBX 8 10 5 -1
BITMAP
07
39
64
42
82
82
84
84
58
20
ENDCHAR
STARTCHAR 03C4
ENCODING 9587
SWIDTH 1800 0
DWIDTH 18 0
BBX 6 8 6 0
BITMAP
7C
A0
20
40
40
40
80
E0
ENDCHAR
STARTCHAR 03C5
ENCODING 9588
SWIDTH 1800 0
DWIDTH 18 0
BBX 8 9 5 -1
BITMAP
22
23
22
42
42
84
88
50
20
ENDCHAR
STARTCHAR 03C6
ENCODING 9589
SWIDTH 1800 0
DWIDTH 18 0
BBX 10 9 4 -2
BITMAP
3380
4480
4440
8880
8880
5100
3E00
1000
3000
ENDCHAR
STARTCHAR 03C7
ENCODING 9590
SWIDTH 1800 0
DWIDTH 18 0
BBX 10 10 4 -2
BITMAP
38C0
2C80
0500
0600
0400
0C00
1400
3400
6480
C780
ENDCHAR
STARTCHAR 03C8
ENCODING 9591
SWIDTH 1800 0
DWIDTH 18 0
BBX 8 14 5 -2
BITMAP
06
04
04
04
49
C9
91
91
92
A2
7C
20
60
60
ENDCHAR
STARTCHAR 03C9
ENCODING 9592
SWIDTH 1800 0
DWIDTH 18 0
BBX 10 8 4 0
BITMAP
3000
4440
8440
8C40
8840
8880
9180
EE00
ENDCHAR
STARTCHAR 2500
ENCODING 9761
SWIDTH 1800 0
DWIDTH 18 0
BBX 18 1 0 5
BITMAP
FFFFC0
ENDCHAR
STARTCHAR 2502
ENCODING 9762
SWIDTH 1800 0
DWIDTH 18 0
BBX 1 18 8 -4
BITMAP
80
80
80
80
80
80
80
80
80
80
80
80
80
80
80
80
80
80
ENDCHAR
STARTCHAR 250C
ENCODING 9763
SWIDTH 1800 0
DWIDTH 18 0
BBX 10 10 8 -4
BITMAP
FFC0
8000
8000
8000
8000
8000
8000
8000
8000
8000
ENDCHAR
STARTCHAR 2510
ENCODING 9764
SWIDTH 1800 0
DWIDTH 18 0
BBX 10 10 -1 -4
BITMAP
FFC0
0040
0040
0040
0040
0040
0040
0040
0040
0040
ENDCHAR
STARTCHAR 2518
ENCODING 9765
SWIDTH 1800 0
DWIDTH 18 0
BBX 10 9 -1 5
BITMAP
0040
0040
0040
0040
0040
0040
0040
0040
FFC0
ENDCHAR
STARTCHAR 2514
ENCODING 9766
SWIDTH 1800 0
DWIDTH 18 0
BBX 10 9 8 5
BITMAP
8000
8000
8000
8000
8000
8000
8000
8000
FFC0
ENDCHAR
STARTCHAR 251C
ENCODING 9767
SWIDTH 1800 0
DWIDTH 18 0
BBX 10 18 8 -4
BITMAP
8000
8000
8000
8000
8000
8000
8000
8000
FFC0
8000
8000
8000
8000
8000
8000
8000
8000
8000
ENDCHAR
STARTCHAR 252C
ENCODING 9768
SWIDTH 1800 0
DWIDTH 18 0
BBX 19 10 -1 -4
BITMAP
FFFFE0
004000
004000
004000
004000
004000
004000
004000
004000
004000
ENDCHAR
STARTCHAR 2524
ENCODING 9769
SWIDTH 1800 0
DWIDTH 18 0
BBX 10 18 -1 -4
BITMAP
0040
0040
0040
0040
0040
0040
0040
0040
FFC0
0040
0040
0040
0040
0040
0040
0040
0040
0040
ENDCHAR
STARTCHAR 2534
ENCODING 9770
SWIDTH 1800 0
DWIDTH 18 0
BBX 19 9 -1 5
BITMAP
004000
004000
004000
004000
004000
004000
004000
004000
FFFFE0
ENDCHAR
STARTCHAR 253C
ENCODING 9771
SWIDTH 1800 0
DWIDTH 18 0
BBX 19 18 -1 -4
BITMAP
004000
004000
004000
004000
004000
004000
004000
004000
FFFFE0
004000
004000
004000
004000
004000
004000
004000
004000
004000
ENDCHAR
STARTCHAR 2501
ENCODING 9772
SWIDTH 1800 0
DWIDTH 18 0
BBX 18 1 0 5
BITMAP
FFFFC0
ENDCHAR
STARTCHAR 2503
ENCODING 9773
SWIDTH 1800 0
DWIDTH 18 0
BBX 1 18 8 -4
BITMAP
80
80
80
80
80
80
80
80
80
80
80
80
80
80
80
80
80
80
ENDCHAR
STARTCHAR 250F
ENCODING 9774
SWIDTH 1800 0
DWIDTH 18 0
BBX 9 10 8 -4
BITMAP
FF80
8000
8000
8000
8000
8000
8000
8000
8000
8000
ENDCHAR
STARTCHAR 2513
ENCODING 9775
SWIDTH 1800 0
DWIDTH 18 0
BBX 9 10 0 -4
BITMAP
FF80
0080
0080
0080
0080
0080
0080
0080
0080
0080
ENDCHAR
STARTCHAR 251B
ENCODING 9776
SWIDTH 1800 0
DWIDTH 18 0
BBX 9 9 0 5
BITMAP
0080
0080
0080
0080
0080
0080
0080
0080
FF80
ENDCHAR
STARTCHAR 2517
ENCODING 9777
SWIDTH 1800 0
DWIDTH 18 0
BBX 9 9 8 5
BITMAP
8000
8000
8000
8000
8000
8000
8000
8000
FF80
ENDCHAR
STARTCHAR 2523
ENCODING 9778
SWIDTH 1800 0
DWIDTH 18 0
BBX 9 18 8 -4
BITMAP
8000
8000
8000
8000
8000
8000
8000
8000
FF80
8000
8000
8000
8000
8000
8000
8000
8000
8000
ENDCHAR
STARTCHAR 2533
ENCODING 9779
SWIDTH 1800 0
DWIDTH 18 0
BBX 17 10 0 -4
BITMAP
FFFF80
008000
008000
008000
008000
008000
008000
008000
008000
008000
ENDCHAR
STARTCHAR 252B
ENCODING 9780
SWIDTH 1800 0
DWIDTH 18 0
BBX 9 18 0 -4
BITMAP
0080
0080
0080
0080
0080
0080
0080
0080
FF80
0080
0080
0080
0080
0080
0080
0080
0080
0080
ENDCHAR
STARTCHAR 253B
ENCODING 9781
SWIDTH 1800 0
DWIDTH 18 0
BBX 17 9 1 5
BITMAP
008000
008000
008000
008000
008000
008000
008000
008000
FFFF80
ENDCHAR
STARTCHAR 254B
ENCODING 9782
SWIDTH 1800 0
DWIDTH 18 0
BBX 17 18 1 -4
BITMAP
008000
008000
008000
008000
008000
008000
008000
008000
FFFF80
008000
008000
008000
008000
008000
008000
008000
008000
008000
ENDCHAR
STARTCHAR 2520
ENCODING 9783
SWIDTH 1800 0
DWIDTH 18 0
BBX 9 18 9 -4
BITMAP
8000
8000
8000
8000
8000
8000
8000
8000
FF80
8000
8000
8000
8000
8000
8000
8000
8000
8000
ENDCHAR
STARTCHAR 252F
ENCODING 9784
SWIDTH 1800 0
DWIDTH 18 0
BBX 19 10 -1 -4
BITMAP
FFFFE0
004000
004000
004000
004000
004000
004000
004000
004000
004000
ENDCHAR
STARTCHAR 2528
ENCODING 9785
SWIDTH 1800 0
DWIDTH 18 0
BBX 9 18 1 -4
BITMAP
0080
0080
0080
0080
0080
0080
0080
0080
FF80
0080
0080
0080
0080
0080
0080
0080
0080
0080
ENDCHAR
STARTCHAR 2537
ENCODING 9786
SWIDTH 1800 0
DWIDTH 18 0
BBX 19 9 -1 5
BITMAP
004000
004000
004000
004000
004000
004000
004000
004000
FFFFE0
ENDCHAR
STARTCHAR 253F
ENCODING 9787
SWIDTH 1800 0
DWIDTH 18 0
BBX 19 18 -1 -4
BITMAP
004000
004000
004000
004000
004000
004000
004000
004000
FFFFE0
004000
004000
004000
004000
004000
004000
004000
004000
004000
ENDCHAR
STARTCHAR 251D
ENCODING 9788
SWIDTH 1800 0
DWIDTH 18 0
BBX 10 18 8 -4
BITMAP
8000
8000
8000
8000
8000
8000
8000
8000
FFC0
8000
8000
8000
8000
8000
8000
8000
8000
8000
ENDCHAR
STARTCHAR 2530
ENCODING 9789
SWIDTH 1800 0
DWIDTH 18 0
BBX 17 10 0 -4
BITMAP
FFFF80
008000
008000
008000
008000
008000
008000
008000
008000
008000
ENDCHAR
STARTCHAR 2525
ENCODING 9790
SWIDTH 1800 0
DWIDTH 18 0
BBX 10 18 -1 -4
BITMAP
0040
0040
0040
0040
0040
0040
0040
0040
FFC0
0040
0040
0040
0040
0040
0040
0040
0040
0040
ENDCHAR
STARTCHAR 2538
ENCODING 9791
SWIDTH 1800 0
DWIDTH 18 0
BBX 17 9 0 5
BITMAP
008000
008000
008000
008000
008000
008000
008000
008000
FFFF80
ENDCHAR
STARTCHAR 2542
ENCODING 9792
SWIDTH 1800 0
DWIDTH 18 0
BBX 17 18 0 -4
BITMAP
008000
008000
008000
008000
008000
008000
008000
008000
FFFF80
008000
008000
008000
008000
008000
008000
008000
008000
008000
ENDCHAR
STARTCHAR 2512
ENCODING 9793
SWIDTH 1800 0
DWIDTH 18 0
BBX 9 10 0 -4
BITMAP
FF80
0080
0080
0080
0080
0080
0080
0080
0080
0080
ENDCHAR
STARTCHAR 2511
ENCODING 9794
SWIDTH 1800 0
DWIDTH 18 0
BBX 10 10 -1 -4
BITMAP
FFC0
0040
0040
0040
0040
0040
0040
0040
0040
0040
ENDCHAR
STARTCHAR 251A
ENCODING 9795
SWIDTH 1800 0
DWIDTH 18 0
BBX 9 9 1 5
BITMAP
0080
0080
0080
0080
0080
0080
0080
0080
FF80
ENDCHAR
STARTCHAR 2519
ENCODING 9796
SWIDTH 1800 0
DWIDTH 18 0
BBX 10 9 0 5
BITMAP
0040
0040
0040
0040
0040
0040
0040
0040
FFC0
ENDCHAR
STARTCHAR 2516
ENCODING 9797
SWIDTH 1800 0
DWIDTH 18 0
BBX 9 9 8 5
BITMAP
8000
8000
8000
8000
8000
8000
8000
8000
FF80
ENDCHAR
STARTCHAR 2515
ENCODING 9798
SWIDTH 1800 0
DWIDTH 18 0
BBX 10 9 8 5
BITMAP
8000
8000
8000
8000
8000
8000
8000
8000
FFC0
ENDCHAR
STARTCHAR 250E
ENCODING 9799
SWIDTH 1800 0
DWIDTH 18 0
BBX 9 10 9 -4
BITMAP
FF80
8000
8000
8000
8000
8000
8000
8000
8000
8000
ENDCHAR
STARTCHAR 250D
ENCODING 9800
SWIDTH 1800 0
DWIDTH 18 0
BBX 10 10 8 -4
BITMAP
FFC0
8000
8000
8000
8000
8000
8000
8000
8000
8000
ENDCHAR
STARTCHAR 251E
ENCODING 9801
SWIDTH 1800 0
DWIDTH 18 0
BBX 10 18 8 -4
BITMAP
4000
4000
4000
4000
4000
4000
4000
4000
7FC0
8000
8000
8000
8000
8000
8000
8000
8000
8000
ENDCHAR
STARTCHAR 251F
ENCODING 9802
SWIDTH 1800 0
DWIDTH 18 0
BBX 9 18 9 -4
BITMAP
8000
8000
8000
8000
8000
8000
8000
8000
FF80
8000
8000
8000
8000
8000
8000
8000
8000
8000
ENDCHAR
STARTCHAR 2521
ENCODING 9803
SWIDTH 1800 0
DWIDTH 18 0
BBX 10 18 8 -4
BITMAP
4000
4000
4000
4000
4000
4000
4000
4000
7FC0
8000
8000
8000
8000
8000
8000
8000
8000
8000
ENDCHAR
STARTCHAR 2522
ENCODING 9804
SWIDTH 1800 0
DWIDTH 18 0
BBX 9 18 9 -4
BITMAP
8000
8000
8000
8000
8000
8000
8000
8000
FF80
8000
8000
8000
8000
8000
8000
8000
8000
8000
ENDCHAR
STARTCHAR 2526
ENCODING 9805
SWIDTH 1800 0
DWIDTH 18 0
BBX 9 18 0 -4
BITMAP
0080
0080
0080
0080
0080
0080
0080
0080
FF80
0080
0080
0080
0080
0080
0080
0080
0080
0080
ENDCHAR
STARTCHAR 2527
ENCODING 9806
SWIDTH 1800 0
DWIDTH 18 0
BBX 9 18 1 -4
BITMAP
0080
0080
0080
0080
0080
0080
0080
0080
FF80
0080
0080
0080
0080
0080
0080
0080
0080
0080
ENDCHAR
STARTCHAR 2529
ENCODING 9807
SWIDTH 1800 0
DWIDTH 18 0
BBX 9 18 1 -4
BITMAP
0080
0080
0080
0080
0080
0080
0080
0080
FF80
0080
0080
0080
0080
0080
0080
0080
0080
0080
ENDCHAR
STARTCHAR 252A
ENCODING 9808
SWIDTH 1800 0
DWIDTH 18 0
BBX 9 18 1 -4
BITMAP
0100
0100
0100
0100
0100
0100
0100
0100
FF00
0080
0080
0080
0080
0080
0080
0080
0080
0080
ENDCHAR
STARTCHAR 252D
ENCODING 9809
SWIDTH 1800 0
DWIDTH 18 0
BBX 19 10 -1 -4
BITMAP
FFFFE0
004000
004000
004000
004000
004000
004000
004000
004000
004000
ENDCHAR
STARTCHAR 252E
ENCODING 9810
SWIDTH 1800 0
DWIDTH 18 0
BBX 19 10 -1 -4
BITMAP
FFFFE0
004000
004000
004000
004000
004000
004000
004000
004000
004000
ENDCHAR
STARTCHAR 2531
ENCODING 9811
SWIDTH 1800 0
DWIDTH 18 0
BBX 17 10 0 -4
BITMAP
FFFF80
008000
008000
008000
008000
008000
008000
008000
008000
008000
ENDCHAR
STARTCHAR 2532
ENCODING 9812
SWIDTH 1800 0
DWIDTH 18 0
BBX 17 10 0 -4
BITMAP
FFFF80
008000
008000
008000
008000
008000
008000
008000
008000
008000
ENDCHAR
STARTCHAR 2535
ENCODING 9813
SWIDTH 1800 0
DWIDTH 18 0
BBX 19 9 -1 5
BITMAP
004000
004000
004000
004000
004000
004000
004000
004000
FFFFE0
ENDCHAR
STARTCHAR 2536
ENCODING 9814
SWIDTH 1800 0
DWIDTH 18 0
BBX 19 9 -1 5
BITMAP
004000
004000
004000
004000
004000
004000
004000
004000
FFFFE0
ENDCHAR
STARTCHAR 2539
ENCODING 9815
SWIDTH 1800 0
DWIDTH 18 0
BBX 17 9 0 5
BITMAP
008000
008000
008000
008000
008000
008000
008000
008000
FFFF80
ENDCHAR
STARTCHAR 253A
ENCODING 9816
SWIDTH 1800 0
DWIDTH 18 0
BBX 17 9 0 5
BITMAP
008000
008000
008000
008000
008000
008000
008000
008000
FFFF80
ENDCHAR
STARTCHAR 253D
ENCODING 9817
SWIDTH 1800 0
DWIDTH 18 0
BBX 19 18 -1 -4
BITMAP
004000
004000
004000
004000
004000
004000
004000
004000
FFFFE0
004000
004000
004000
004000
004000
004000
004000
004000
004000
ENDCHAR
STARTCHAR 253E
ENCODING 9818
SWIDTH 1800 0
DWIDTH 18 0
BBX 19 18 -1 -4
BITMAP
004000
004000
004000
004000
004000
004000
004000
004000
FFFFE0
004000
004000
004000
004000
004000
004000
004000
004000
004000
ENDCHAR
STARTCHAR 2540
ENCODING 9819
SWIDTH 1800 0
DWIDTH 18 0
BBX 17 18 0 -4
BITMAP
008000
008000
008000
008000
008000
008000
008000
008000
FFFF80
008000
008000
008000
008000
008000
008000
008000
008000
008000
ENDCHAR
STARTCHAR 2541
ENCODING 9820
SWIDTH 1800 0
DWIDTH 18 0
BBX 17 18 0 -4
BITMAP
008000
008000
008000
008000
008000
008000
008000
008000
FFFF80
008000
008000
008000
008000
008000
008000
008000
008000
008000
ENDCHAR
STARTCHAR 2543
ENCODING 9821
SWIDTH 1800 0
DWIDTH 18 0
BBX 17 18 1 -4
BITMAP
008000
008000
008000
008000
008000
008000
008000
008000
FFFF80
008000
008000
008000
008000
008000
008000
008000
008000
008000
ENDCHAR
STARTCHAR 2544
ENCODING 9822
SWIDTH 1800 0
DWIDTH 18 0
BBX 17 18 0 -4
BITMAP
008000
008000
008000
008000
008000
008000
008000
008000
FFFF80
008000
008000
008000
008000
008000
008000
008000
008000
008000
ENDCHAR
STARTCHAR 2545
ENCODING 9823
SWIDTH 1800 0
DWIDTH 18 0
BBX 17 18 0 -4
BITMAP
008000
008000
008000
008000
008000
008000
008000
008000
FFFF80
008000
008000
008000
008000
008000
008000
008000
008000
008000
ENDCHAR
STARTCHAR 2546
ENCODING 9824
SWIDTH 1800 0
DWIDTH 18 0
BBX 17 18 0 -4
BITMAP
008000
008000
008000
008000
008000
008000
008000
008000
FFFF80
008000
008000
008000
008000
008000
008000
008000
008000
008000
ENDCHAR
STARTCHAR 2547
ENCODING 9825
SWIDTH 1800 0
DWIDTH 18 0
BBX 17 18 1 -4
BITMAP
008000
008000
008000
008000
008000
008000
008000
008000
FFFF80
010000
010000
010000
010000
010000
010000
010000
010000
010000
ENDCHAR
STARTCHAR 2548
ENCODING 9826
SWIDTH 1800 0
DWIDTH 18 0
BBX 17 18 1 -4
BITMAP
008000
008000
008000
008000
008000
008000
008000
008000
FFFF80
008000
008000
008000
008000
008000
008000
008000
008000
008000
ENDCHAR
STARTCHAR 2549
ENCODING 9827
SWIDTH 1800 0
DWIDTH 18 0
BBX 17 18 0 -4
BITMAP
008000
008000
008000
008000
008000
008000
008000
008000
FFFF80
008000
008000
008000
008000
008000
008000
008000
008000
008000
ENDCHAR
STARTCHAR 254A
ENCODING 9828
SWIDTH 1800 0
DWIDTH 18 0
BBX 17 18 0 -4
BITMAP
008000
008000
008000
008000
008000
008000
008000
008000
FFFF80
008000
008000
008000
008000
008000
008000
008000
008000
008000
ENDCHAR
STARTCHAR 3395
ENCODING 10017
SWIDTH 1800 0
DWIDTH 18 0
BBX 17 15 0 -3
BITMAP
000700
000500
000900
000900
080900
084A00
184A00
10CC00
108800
208800
213880
32C500
4C0200
400000
C00000
ENDCHAR
STARTCHAR 3396
ENCODING 10018
SWIDTH 1800 0
DWIDTH 18 0
BBX 16 13 1 -1
BITMAP
000E
000A
0012
0012
FB12
4D14
4914
4918
4910
4930
4911
490A
0004
ENDCHAR
STARTCHAR 3397
ENCODING 10019
SWIDTH 1800 0
DWIDTH 18 0
BBX 14 14 2 -1
BITMAP
0010
0428
0428
0448
0448
2448
5C50
8460
8460
8440
84C0
8424
5C28
2010
ENDCHAR
STARTCHAR 2113
ENCODING 10020
SWIDTH 1800 0
DWIDTH 18 0
BBX 7 13 5 0
BITMAP
0C
14
14
24
24
28
28
30
20
60
A2
14
08
ENDCHAR
STARTCHAR 3398
ENCODING 10021
SWIDTH 1800 0
DWIDTH 18 0
BBX 15 13 2 -1
BITMAP
801C
8014
8024
8024
8024
8428
9828
9030
F820
8860
8422
8614
0008
ENDCHAR
STARTCHAR 33C4
ENCODING 10022
SWIDTH 1800 0
DWIDTH 18 0
BBX 16 9 1 -1
BITMAP
3C1E
4221
8643
8040
8040
8040
C020
4432
380C
ENDCHAR
STARTCHAR 33A3
ENCODING 10023
SWIDTH 1800 0
DWIDTH 18 0
BBX 14 14 2 0
BITMAP
0008
0014
0004
0004
0014
0008
ECEC
B4B4
A4A4
A4A4
A4A4
A4A4
A4A4
A4A4
ENDCHAR
STARTCHAR 33A4
ENCODING 10024
SWIDTH 1800 0
DWIDTH 18 0
BBX 14 15 2 -1
BITMAP
0008
0004
0004
0004
0014
0008
79FC
8924
8124
8124
8124
8124
8124
4924
3000
ENDCHAR
STARTCHAR 33A5
ENCODING 10025
SWIDTH 1800 0
DWIDTH 18 0
BBX 13 13 3 0
BITMAP
0010
0010
0010
0008
0030
DDC0
6220
4220
4220
4220
4220
4220
4220
ENDCHAR
STARTCHAR 33A6
ENCODING 10026
SWIDTH 1800 0
DWIDTH 18 0
BBX 15 14 1 0
BITMAP
0002
C002
4002
4002
4002
4004
44F6
589A
5092
7892
4892
4C92
4492
C692
ENDCHAR
STARTCHAR 3399
ENCODING 10027
SWIDTH 1800 0
DWIDTH 18 0
BBX 13 12 2 0
BITMAP
3800
4000
4000
4000
F3F8
4248
4248
4248
4248
4248
4248
4248
ENDCHAR
STARTCHAR 339A
ENCODING 10028
SWIDTH 1800 0
DWIDTH 18 0
BBX 16 8 1 0
BITMAP
18F7
E499
8491
8491
8491
8491
8491
8491
ENDCHAR
STARTCHAR 339B
ENCODING 10029
SWIDTH 1800 0
DWIDTH 18 0
BBX 17 11 0 -3
BITMAP
18BD80
11A680
112480
212480
232480
222480
222480
67A480
580000
400000
C00000
ENDCHAR
STARTCHAR 339C
ENCODING 10030
SWIDTH 1800 0
DWIDTH 18 0
BBX 16 8 1 0
BITMAP
B67F
DA49
9249
9249
9249
9249
9249
924F
ENDCHAR
STARTCHAR 339D
ENCODING 10031
SWIDTH 1800 0
DWIDTH 18 0
BBX 16 9 1 -1
BITMAP
78F7
8499
8491
8091
8091
8091
8491
4891
3000
ENDCHAR
STARTCHAR 339E
ENCODING 10032
SWIDTH 1800 0
DWIDTH 18 0
BBX 15 12 2 0
BITMAP
8000
8000
8000
8000
9DEE
9132
A122
A122
D122
9122
8922
8922
ENDCHAR
STARTCHAR 339F
ENCODING 10033
SWIDTH 1800 0
DWIDTH 18 0
BBX 14 14 2 0
BITMAP
0018
0004
0008
0010
001C
0000
ECEC
B4B4
A4A4
A4A4
A4A4
A4A4
A4A4
A4A4
ENDCHAR
STARTCHAR 33A0
ENCODING 10034
SWIDTH 1800 0
DWIDTH 18 0
BBX 14 15 2 -1
BITMAP
000C
0014
0004
0008
0010
0008
79FC
8D24
8124
8124
8124
8124
8524
4924
3000
ENDCHAR
STARTCHAR 33A1
ENCODING 10035
SWIDTH 1800 0
DWIDTH 18 0
BBX 12 14 4 0
BITMAP
0060
0010
0020
0040
0080
0060
BDC0
C620
8420
8420
8420
8420
8420
8420
ENDCHAR
STARTCHAR 33A2
ENCODING 10036
SWIDTH 1800 0
DWIDTH 18 0
BBX 14 14 2 0
BITMAP
000C
0004
800C
8010
801C
8000
89FC
9124
A124
E124
9124
9124
8924
8924
ENDCHAR
STARTCHAR 33CA
ENCODING 10037
SWIDTH 1800 0
DWIDTH 18 0
BBX 16 12 1 0
BITMAP
4000
4000
4000
4000
401C
7E62
4262
420E
4232
4242
4242
E63F
ENDCHAR
STARTCHAR 338D
ENCODING 10038
SWIDTH 1800 0
DWIDTH 18 0
BBX 18 12 0 -4
BITMAP
084FC0
185100
10D100
109100
319200
211C00
211000
624F00
5D90C0
402040
C02080
001F00
ENDCHAR
STARTCHAR 338E
ENCODING 10039
SWIDTH 1800 0
DWIDTH 18 0
BBX 18 12 0 -4
BITMAP
DB8FC0
6C9100
489100
489100
489200
48AC00
48A000
489F00
002080
002080
002080
001F00
ENDCHAR
STARTCHAR 338F
ENCODING 10040
SWIDTH 1800 0
DWIDTH 18 0
BBX 16 16 2 -4
BITMAP
8000
8000
8000
8000
807F
844C
9884
A088
D050
98A0
8880
847C
0082
0102
0084
0078
ENDCHAR
STARTCHAR 33CF
ENCODING 10041
SWIDTH 1800 0
DWIDTH 18 0
BBX 14 13 2 -1
BITMAP
C000
4000
4000
4020
4020
4738
4420
4820
5820
6420
4420
421C
E780
ENDCHAR
STARTCHAR 3388
ENCODING 10042
SWIDTH 1800 0
DWIDTH 18 0
BBX 17 13 0 -1
BITMAP
000080
000080
000080
000080
3C7080
448880
800880
807880
808880
C08880
408880
64F880
180000
ENDCHAR
STARTCHAR 3389
ENCODING 10043
SWIDTH 1800 0
DWIDTH 18 0
BBX 16 13 1 -1
BITMAP
8001
8001
8001
8001
8BB9
94A5
A405
A41D
D425
9445
9445
8AFF
0100
ENDCHAR
STARTCHAR 33C8
ENCODING 10044
SWIDTH 1800 0
DWIDTH 18 0
BBX 18 13 0 -1
BITMAP
023F00
022080
022080
022080
022180
7A3E00
862180
822040
822040
822040
8220C0
4E2300
301C00
ENDCHAR
STARTCHAR 33A7
ENCODING 10045
SWIDTH 1800 0
DWIDTH 18 0
BBX 16 16 1 -3
BITMAP
2600
DA01
9202
9204
9208
9210
9220
FA78
00C6
0140
0230
040E
1802
2042
4032
000C
ENDCHAR
STARTCHAR 33A8
ENCODING 10046
SWIDTH 1800 0
DWIDTH 18 0
BBX 18 16 0 -3
BITMAP
D20000
6D0080
490100
490200
490400
490800
4911C0
FFA080
007D00
00A340
012180
021C00
040200
082200
303200
000C00
ENDCHAR
STARTCHAR 33B0
ENCODING 10047
SWIDTH 1800 0
DWIDTH 18 0
BBX 14 11 2 -3
BITMAP
DC7C
6484
4240
4270
421C
4204
4284
6444
5838
4000
4000
ENDCHAR
STARTCHAR 33B1
ENCODING 10048
SWIDTH 1800 0
DWIDTH 18 0
BBX 13 9 3 -1
BITMAP
BCF0
C508
8580
84C0
8470
8408
8508
8488
0070
ENDCHAR
STARTCHAR 33B2
ENCODING 10049
SWIDTH 1800 0
DWIDTH 18 0
BBX 16 11 1 -3
BITMAP
089E
18A1
10B0
1198
2106
2101
2221
5399
4C06
C000
8000
ENDCHAR
STARTCHAR 33B3
ENCODING 10050
SWIDTH 1800 0
DWIDTH 18 0
BBX 15 9 2 -1
BITMAP
B73C
D942
9160
9138
910C
9102
9142
9134
0008
ENDCHAR
STARTCHAR 33B4
ENCODING 10051
SWIDTH 1800 0
DWIDTH 18 0
BBX 16 17 1 -4
BITMAP
03C7
0182
0082
0082
0084
DC44
6444
4248
4228
4228
4230
4210
6410
5C00
4000
4000
C000
ENDCHAR
STARTCHAR 33B5
ENCODING 10052
SWIDTH 1800 0
DWIDTH 18 0
BBX 15 12 2 0
BITMAP
0306
0104
0104
0108
1888
E488
8490
8450
8450
8460
8420
8420
ENDCHAR
STARTCHAR 33B6
ENCODING 10053
SWIDTH 1800 0
DWIDTH 18 0
BBX 17 15 0 -3
BITMAP
006080
004080
002100
002100
086100
189200
109200
319200
210C00
210C00
220C00
558000
480000
400000
C00000
ENDCHAR
STARTCHAR 33B7
ENCODING 10054
SWIDTH 1800 0
DWIDTH 18 0
BBX 16 12 1 0
BITMAP
00C3
0081
0042
0042
F742
9924
9124
9124
9118
9118
9118
9100
ENDCHAR
STARTCHAR 33B8
ENCODING 10055
SWIDTH 1800 0
DWIDTH 18 0
BBX 16 12 1 0
BITMAP
40C3
40C2
4042
4042
4744
4424
4824
5828
6838
4418
4210
E710
ENDCHAR
STARTCHAR 33B9
ENCODING 10056
SWIDTH 1800 0
DWIDTH 18 0
BBX 16 12 1 0
BITMAP
8221
C621
C622
CA12
CA12
AA12
AA14
AA0C
B20C
920C
9208
9200
ENDCHAR
STARTCHAR 3380
ENCODING 10057
SWIDTH 1800 0
DWIDTH 18 0
BBX 16 15 1 -3
BITMAP
0010
0010
0030
0028
DC48
6648
4244
437C
4184
4284
4282
65C7
5800
4000
4000
ENDCHAR
STARTCHAR 3381
ENCODING 10058
SWIDTH 1800 0
DWIDTH 18 0
BBX 16 12 1 0
BITMAP
0008
0008
0018
0014
BC24
C424
8424
843E
8442
8442
8482
84E3
ENDCHAR
STARTCHAR 3382
ENCODING 10059
SWIDTH 1800 0
DWIDTH 18 0
BBX 17 15 0 -3
BITMAP
000400
000400
000A00
000A00
084A00
189200
109100
119F00
211100
212180
226080
25A180
580000
400000
C00000
ENDCHAR
STARTCHAR 3383
ENCODING 10060
SWIDTH 1800 0
DWIDTH 18 0
BBX 16 12 1 0
BITMAP
0008
0008
0018
0018
B624
DA24
9224
923E
9242
9242
9242
92C3
ENDCHAR
STARTCHAR 3384
ENCODING 10061
SWIDTH 1800 0
DWIDTH 18 0
BBX 16 13 1 -1
BITMAP
8008
8008
8008
8014
8024
8824
9024
A03E
D042
8842
8843
8401
0040
ENDCHAR
STARTCHAR 33BA
ENCODING 10062
SWIDTH 1800 0
DWIDTH 18 0
BBX 17 15 1 -3
BITMAP
1EF380
042100
042200
162200
FA5200
8E5200
865200
875C00
858C00
858C00
898C00
C88400
B00000
800000
800000
ENDCHAR
STARTCHAR 33BB
ENCODING 10063
SWIDTH 1800 0
DWIDTH 18 0
BBX 16 12 1 0
BITMAP
0631
0231
0231
0332
BD2A
C54A
854A
85CA
84C6
84C4
8484
8404
ENDCHAR
STARTCHAR 33BC
ENCODING 10064
SWIDTH 1800 0
DWIDTH 18 0
BBX 17 15 0 -3
BITMAP
00CC80
00C880
004C80
004C80
08D500
19D500
117500
333300
223300
223200
242200
272200
580000
400000
800000
ENDCHAR
STARTCHAR 33BD
ENCODING 10065
SWIDTH 1800 0
DWIDTH 18 0
BBX 16 12 1 0
BITMAP
0111
0111
0192
00AA
F6AA
9AAA
92AA
926A
9264
9244
9244
9244
ENDCHAR
STARTCHAR 33BE
ENCODING 10066
SWIDTH 1800 0
DWIDTH 18 0
BBX 16 12 1 0
BITMAP
8111
8111
8192
80AA
80AA
88AA
90AA
A0EA
D044
9844
8844
8C44
ENDCHAR
STARTCHAR 33BF
ENCODING 10067
SWIDTH 1800 0
DWIDTH 18 0
BBX 17 12 1 0
BITMAP
824880
824900
C64500
C64D00
CA4D00
CA7500
AA3600
AA3600
B23600
922200
922200
922000
ENDCHAR
STARTCHAR 3390
ENCODING 10068
SWIDTH 1800 0
DWIDTH 18 0
BBX 16 12 2 0
BITMAP
8200
8200
8200
8200
823F
FE46
820C
8208
8210
8221
8262
87FE
ENDCHAR
STARTCHAR 3391
ENCODING 10069
SWIDTH 1800 0
DWIDTH 18 0
BBX 18 12 0 0
BITMAP
43B800
411000
411000
411000
4117C0
41F480
591080
511100
711200
491240
4914C0
CD1780
ENDCHAR
STARTCHAR 3392
ENCODING 10070
SWIDTH 1800 0
DWIDTH 18 0
BBX 18 12 0 0
BITMAP
469800
449000
A49000
A49000
AC93C0
ACF480
B49480
B49100
B49100
949200
949240
469F80
ENDCHAR
STARTCHAR 3393
ENCODING 10071
SWIDTH 1800 0
DWIDTH 18 0
BBX 18 14 0 -1
BITMAP
03B800
791000
891000
811000
811000
8117C0
81F480
811080
851100
851100
851200
851240
591480
200300
ENDCHAR
STARTCHAR 3394
ENCODING 10072
SWIDTH 1800 0
DWIDTH 18 0
BBX 18 12 0 0
BITMAP
FF1000
221000
221000
221000
2217C0
23F480
221080
221100
221200
221240
2214C0
231780
ENDCHAR
STARTCHAR 2126
ENCODING 10073
SWIDTH 1800 0
DWIDTH 18 0
BBX 13 13 3 0
BITMAP
0F80
10E0
2030
4010
4018
4018
4010
2030
1060
8D80
8510
8510
FDF0
ENDCHAR
STARTCHAR 33C0
ENCODING 10074
SWIDTH 1800 0
DWIDTH 18 0
BBX 17 12 1 0
BITMAP
807E00
808100
808080
808080
808080
8C8080
908100
B04100
D02600
882880
852880
86E780
ENDCHAR
STARTCHAR 33C1
ENCODING 10075
SWIDTH 1800 0
DWIDTH 18 0
BBX 17 13 1 0
BITMAP
003E00
826300
824180
C68080
C68080
CA8080
CA8080
AA4100
AA6100
B21600
929480
929480
92F780
ENDCHAR
STARTCHAR 338A
ENCODING 10076
SWIDTH 1800 0
DWIDTH 18 0
BBX 14 15 2 -3
BITMAP
01FC
0084
0080
0080
FC88
86F8
8288
8280
8280
8280
8480
C880
B000
8000
8000
ENDCHAR
STARTCHAR 338B
ENCODING 10077
SWIDTH 1800 0
DWIDTH 18 0
BBX 14 12 2 0
BITMAP
00FC
0080
0080
0080
1888
E4F8
8488
8480
8480
8480
8480
8480
ENDCHAR
STARTCHAR 338C
ENCODING 10078
SWIDTH 1800 0
DWIDTH 18 0
BBX 17 15 0 -3
BITMAP
001F80
001000
001000
001000
085100
085F00
189100
109000
119000
211000
211000
339000
4C0000
400000
C00000
ENDCHAR
STARTCHAR 33D6
ENCODING 10079
SWIDTH 1800 0
DWIDTH 18 0
BBX 16 13 1 -1
BITMAP
0001
0001
0001
0001
B671
DA89
9305
9305
9305
9305
9305
9289
0070
ENDCHAR
STARTCHAR 33C5
ENCODING 10080
SWIDTH 1800 0
DWIDTH 18 0
BBX 15 13 1 -1
BITMAP
0002
0002
0002
0002
7C02
447A
8046
8082
8082
8082
8482
4846
3038
ENDCHAR
STARTCHAR 33AD
ENCODING 10081
SWIDTH 1800 0
DWIDTH 18 0
BBX 17 12 0 0
BITMAP
000080
000080
000080
000080
DBC080
6A2F80
402880
41E880
422880
422880
422C80
43E780
ENDCHAR
STARTCHAR 33AE
ENCODING 10082
SWIDTH 1800 0
DWIDTH 18 0
BBX 16 16 1 -3
BITMAP
0010
0010
0010
FFF0
8710
9B10
B310
BEF0
0002
000C
0037
00C9
0306
0C01
1009
6006
ENDCHAR
STARTCHAR 33AF
ENCODING 10083
SWIDTH 1800 0
DWIDTH 18 0
BBX 16 16 1 -3
BITMAP
0010
0010
0010
FFF0
8710
9B10
B310
BEF1
0006
0019
006D
0192
0608
1804
2014
0008
ENDCHAR
STARTCHAR 33DB
ENCODING 10084
SWIDTH 1800 0
DWIDTH 18 0
BBX 14 8 2 0
BITMAP
F85C
8460
C040
6040
1C40
0440
8440
6840
ENDCHAR
STARTCHAR 33A9
ENCODING 10085
SWIDTH 1800 0
DWIDTH 18 0
BBX 15 13 2 -1
BITMAP
FC00
8200
8200
8200
82F0
8388
8C88
F038
80C8
8108
8108
819E
0060
ENDCHAR
STARTCHAR 33AA
ENCODING 10086
SWIDTH 1800 0
DWIDTH 18 0
BBX 17 12 1 0
BITMAP
83C000
822000
822000
822000
822E00
823900
B26100
A38700
E20900
921100
921100
9B1F80
ENDCHAR
STARTCHAR 33AB
ENCODING 10087
SWIDTH 1800 0
DWIDTH 18 0
BBX 18 13 0 -1
BITMAP
C7F000
449800
448800
4C8800
AC8F80
AC8C80
B49080
B4F380
B48480
B48880
948880
9487C0
CFC000
ENDCHAR
STARTCHAR 33AC
ENCODING 10088
SWIDTH 1800 0
DWIDTH 18 0
BBX 18 13 0 -1
BITMAP
79E000
891000
891000
851000
811780
811C80
811080
8DE380
890480
890880
890880
510FC0
200000
ENDCHAR
STARTCHAR 33DD
ENCODING 10089
SWIDTH 1800 0
DWIDTH 18 0
BBX 17 13 1 -1
BITMAP
D92000
C92000
492000
492000
4A2000
563F00
562080
662080
262080
242080
242080
243B00
000400
ENDCHAR
STARTCHAR 33D0
ENCODING 10090
SWIDTH 1800 0
DWIDTH 18 0
BBX 12 12 3 0
BITMAP
8000
8000
8000
8000
8BF0
8C90
8890
8890
8890
8890
8890
88F0
ENDCHAR
STARTCHAR 33D3
ENCODING 10091
SWIDTH 1800 0
DWIDTH 18 0
BBX 12 12 3 0
BITMAP
8000
8000
8000
8000
8E30
8620
8240
8180
8180
8240
8460
8C30
ENDCHAR
STARTCHAR 33C3
ENCODING 10092
SWIDTH 1800 0
DWIDTH 18 0
BBX 16 15 1 -3
BITMAP
FC00
8200
8200
8200
821D
8C23
F621
8141
8141
8161
8321
8C1F
7001
0001
0001
ENDCHAR
STARTCHAR 33C9
ENCODING 10093
SWIDTH 1800 0
DWIDTH 18 0
BBX 15 15 1 -3
BITMAP
7C00
8400
8400
8000
8042
8042
8024
8224
8228
8218
4218
6610
1810
0020
00E0
ENDCHAR
STARTCHAR 33DC
ENCODING 10094
SWIDTH 1800 0
DWIDTH 18 0
BBX 18 13 0 0
BITMAP
3A0000
C60000
800000
800000
800000
60E1C0
1E2100
032100
011200
019200
810C00
410C00
7E0000
ENDCHAR
STARTCHAR 33C6
ENCODING 10095
SWIDTH 1800 0
DWIDTH 18 0
BBX 17 16 0 -3
BITMAP
300000
4C0000
846000
804000
808000
810000
460000
3A0000
048000
088780
10A480
10E700
209400
400780
000880
000780
ENDCHAR
STARTCHAR 00C6
ENCODING 10273
SWIDTH 1800 0
DWIDTH 18 0
BBX 17 12 0 0
BITMAP
01FF00
014180
014080
024000
044400
047C00
084400
0FC000
104000
204080
204180
F0FF00
ENDCHAR
STARTCHAR 00D0
ENCODING 10274
SWIDTH 1800 0
DWIDTH 18 0
BBX 13 12 2 0
BITMAP
3F80
1060
1010
1008
1008
FE08
1008
1008
1010
1010
1060
7F80
ENDCHAR
STARTCHAR 00AA
ENCODING 10275
SWIDTH 1800 0
DWIDTH 18 0
BBX 8 13 5 0
BITMAP
10
6E
42
02
1E
62
82
82
86
7B
00
00
FF
ENDCHAR
STARTCHAR 0126
ENCODING 10276
SWIDTH 1800 0
DWIDTH 18 0
BBX 14 12 2 0
BITMAP
7CF8
1020
FFFC
1020
1020
1FE0
1020
1020
1020
1020
1020
7CF8
ENDCHAR
STARTCHAR 0132
ENCODING 10278
SWIDTH 1800 0
DWIDTH 18 0
BBX 12 13 3 -1
BITMAP
79F0
2040
2040
2040
2040
2040
2040
2040
2040
2040
2040
FE80
0700
ENDCHAR
STARTCHAR 013F
ENCODING 10280
SWIDTH 1800 0
DWIDTH 18 0
BBX 10 12 4 0
BITMAP
7000
2000
2000
2000
2000
2400
2400
2000
2000
2000
2040
FB80
ENDCHAR
STARTCHAR 0141
ENCODING 10281
SWIDTH 1800 0
DWIDTH 18 0
BBX 11 12 3 0
BITMAP
3800
1200
1400
1400
1800
1000
3000
5000
9000
1000
1060
7FC0
ENDCHAR
STARTCHAR 00D8
ENCODING 10282
SWIDTH 1800 0
DWIDTH 18 0
BBX 13 14 2 -1
BITMAP
0FC8
1078
2030
4030
4048
8088
8108
C208
4408
4808
7008
3010
5860
8780
ENDCHAR
STARTCHAR 0152
ENCODING 10283
SWIDTH 1800 0
DWIDTH 18 0
BBX 16 14 1 -1
BITMAP
0400
3BFE
4081
4080
8080
8088
80F8
8088
8080
8080
4080
6081
11CF
0E30
ENDCHAR
STARTCHAR 00BA
ENCODING 10284
SWIDTH 1800 0
DWIDTH 18 0
BBX 8 13 5 0
BITMAP
3C
42
81
81
81
81
81
81
42
3C
00
00
FF
ENDCHAR
STARTCHAR 00DE
ENCODING 10285
SWIDTH 1800 0
DWIDTH 18 0
BBX 10 12 4 0
BITMAP
F000
2000
3F00
2080
2040
2040
2040
20C0
3F80
2000
2000
F000
ENDCHAR
STARTCHAR 0166
ENCODING 10286
SWIDTH 1800 0
DWIDTH 18 0
BBX 13 12 2 0
BITMAP
7FF0
6210
8210
8208
0200
0200
1FC0
0200
0200
0200
0200
0F80
ENDCHAR
STARTCHAR 014A
ENCODING 10287
SWIDTH 1800 0
DWIDTH 18 0
BBX 11 13 3 -1
BITMAP
EFC0
3020
2020
2020
2020
2020
2020
2020
2020
2320
2320
7A40
0180
ENDCHAR
STARTCHAR 3260
ENCODING 10289
SWIDTH 1800 0
DWIDTH 18 0
BBX 16 16 1 -3
BITMAP
07E0
1818
300C
6006
7FF2
8011
8011
8011
8011
8011
8011
4012
6016
300C
1818
07E0
ENDCHAR
STARTCHAR 3261
ENCODING 10290
SWIDTH 1800 0
DWIDTH 18 0
BBX 16 16 1 -3
BITMAP
07E0
1818
300C
6006
5802
8801
8801
8801
8801
8811
87F9
4002
6006
300C
1818
07E0
ENDCHAR
STARTCHAR 3262
ENCODING 10291
SWIDTH 1800 0
DWIDTH 18 0
BBX 16 16 1 -3
BITMAP
07E0
1818
300C
6006
5FF2
8801
8801
8801
8801
8801
8FF9
4002
6006
300C
1818
07E0
ENDCHAR
STARTCHAR 3263
ENCODING 10292
SWIDTH 1800 0
DWIDTH 18 0
BBX 16 16 1 -3
BITMAP
07E0
1818
300C
6006
5FF2
8021
8021
8FF1
8801
8801
8801
4FFA
6006
300C
1818
07E0
ENDCHAR
STARTCHAR 3264
ENCODING 10293
SWIDTH 1800 0
DWIDTH 18 0
BBX 16 16 1 -3
BITMAP
07E0
1818
300C
6006
5FF2
8811
8811
8821
8821
8821
8FF1
4802
6006
300C
1818
07E0
ENDCHAR
STARTCHAR 3265
ENCODING 10294
SWIDTH 1800 0
DWIDTH 18 0
BBX 16 16 1 -3
BITMAP
07E0
1818
300C
6836
4412
8411
87F1
8411
8411
8411
87F1
4412
6006
300C
1818
07E0
ENDCHAR
STARTCHAR 3266
ENCODING 10295
SWIDTH 1800 0
DWIDTH 18 0
BBX 16 16 1 -3
BITMAP
07E0
1818
300C
6106
40C2
8081
8181
8341
8631
8C19
9009
4002
6006
300C
1818
07E0
ENDCHAR
STARTCHAR 3267
ENCODING 10296
SWIDTH 1800 0
DWIDTH 18 0
BBX 16 16 1 -3
BITMAP
07E0
1818
300C
6086
43E2
8411
8809
8809
8809
8809
8411
43E2
6006
300C
1818
07E0
ENDCHAR
STARTCHAR 3268
ENCODING 10297
SWIDTH 1800 0
DWIDTH 18 0
BBX 16 16 1 -3
BITMAP
07E0
1818
300C
6016
4FF2
8411
8021
8041
8081
8161
8619
580A
6006
300C
1818
07E0
ENDCHAR
STARTCHAR 3269
ENCODING 10298
SWIDTH 1800 0
DWIDTH 18 0
BBX 16 16 1 -3
BITMAP
07E0
1818
320C
61C6
4012
8FF1
8031
8041
8081
8161
8619
580A
6006
300C
1818
07E0
ENDCHAR
STARTCHAR 326A
ENCODING 10299
SWIDTH 1800 0
DWIDTH 18 0
BBX 16 16 1 -3
BITMAP
07E0
1818
300C
601E
4FFA
8009
8009
8071
9F91
8011
8021
4022
6046
308C
1818
07E0
ENDCHAR
STARTCHAR 326B
ENCODING 10300
SWIDTH 1800 0
DWIDTH 18 0
BBX 16 16 1 -3
BITMAP
07E0
1818
300C
6026
5FF2
8801
8801
8FF1
8801
8801
8801
4FFA
6006
300C
1818
07E0
ENDCHAR
STARTCHAR 326C
ENCODING 10301
SWIDTH 1800 0
DWIDTH 18 0
BBX 16 16 1 -3
BITMAP
07E0
1818
300C
6006
5FFA
8861
8421
8241
8241
8081
9FFD
4002
6006
300C
1818
07E0
ENDCHAR
STARTCHAR 326D
ENCODING 10302
SWIDTH 1800 0
DWIDTH 18 0
BBX 16 16 1 -3
BITMAP
07E0
1818
300C
63C6
4002
807D
9F81
83C1
8661
8421
8421
4622
63C6
300C
1818
07E0
ENDCHAR
STARTCHAR 326E
ENCODING 10303
SWIDTH 1800 0
DWIDTH 18 0
BBX 16 16 1 -3
BITMAP
07E0
1818
303C
6016
4012
9F91
8111
8117
8219
8411
8811
7012
6016
301C
1818
07E0
ENDCHAR
STARTCHAR 326F
ENCODING 10304
SWIDTH 1800 0
DWIDTH 18 0
BBX 16 16 1 -3
BITMAP
07E0
1818
303C
6016
6012
9011
9011
9017
9059
9391
9C11
4012
6016
301C
1818
07E0
ENDCHAR
STARTCHAR 3270
ENCODING 10305
SWIDTH 1800 0
DWIDTH 18 0
BBX 16 16 1 -3
BITMAP
07E0
1818
303C
6116
7F12
9011
9011
9017
9019
9F91
8011
4012
6016
301C
1818
07E0
ENDCHAR
STARTCHAR 3271
ENCODING 10306
SWIDTH 1800 0
DWIDTH 18 0
BBX 16 16 1 -3
BITMAP
07E0
1818
303C
6016
5F12
8111
8111
BF17
9019
9011
9391
5C12
6016
301C
1818
07E0
ENDCHAR
STARTCHAR 3272
ENCODING 10307
SWIDTH 1800 0
DWIDTH 18 0
BBX 16 16 1 -3
BITMAP
07E0
1818
303C
6016
4012
BF11
9111
9117
9119
9F11
9011
4012
6016
301C
1818
07E0
ENDCHAR
STARTCHAR 3273
ENCODING 10308
SWIDTH 1800 0
DWIDTH 18 0
BBX 16 16 1 -3
BITMAP
07E0
1818
303C
6316
5112
9111
9F11
9117
9119
9111
9F11
5112
6016
301C
1818
07E0
ENDCHAR
STARTCHAR 3274
ENCODING 10309
SWIDTH 1800 0
DWIDTH 18 0
BBX 16 16 1 -3
BITMAP
07E0
1818
303C
6016
4312
8211
8611
8617
8919
9091
A011
4012
6016
301C
1818
07E0
ENDCHAR
STARTCHAR 3275
ENCODING 10310
SWIDTH 1800 0
DWIDTH 18 0
BBX 16 16 1 -3
BITMAP
07E0
1818
303C
6016
4C12
9E11
B111
A117
A119
B111
9E11
4012
6016
301C
1818
07E0
ENDCHAR
STARTCHAR 3276
ENCODING 10311
SWIDTH 1800 0
DWIDTH 18 0
BBX 16 16 1 -3
BITMAP
07E0
1818
303C
6016
4192
9F11
8311
8217
8519
8891
B011
4012
6016
301C
1818
07E0
ENDCHAR
STARTCHAR 3277
ENCODING 10312
SWIDTH 1800 0
DWIDTH 18 0
BBX 16 16 1 -3
BITMAP
07E0
1818
303C
6416
4212
9F91
8111
8217
8619
8991
9011
4012
6016
301C
1818
07E0
ENDCHAR
STARTCHAR 3278
ENCODING 10313
SWIDTH 1800 0
DWIDTH 18 0
BBX 16 16 1 -3
BITMAP
07E0
1818
303C
6016
5F92
8191
8111
9F17
8219
8411
8811
5012
6016
301C
1818
07E0
ENDCHAR
STARTCHAR 3279
ENCODING 10314
SWIDTH 1800 0
DWIDTH 18 0
BBX 16 16 1 -3
BITMAP
07E0
1818
303C
6016
4312
9C11
9011
9E17
9019
9191
9E11
4012
6016
301C
1818
07E0
ENDCHAR
STARTCHAR 327A
ENCODING 10315
SWIDTH 1800 0
DWIDTH 18 0
BBX 16 16 1 -3
BITMAP
07E0
1818
303C
6016
7F92
8011
8091
8917
8919
83F1
9C11
4012
6016
301C
1818
07E0
ENDCHAR
STARTCHAR 327B
ENCODING 10316
SWIDTH 1800 0
DWIDTH 18 0
BBX 16 16 1 -3
BITMAP
07E0
1818
303C
6E16
4092
BFD1
8411
8F1F
9091
9091
9091
4F12
6016
301C
1818
07E0
ENDCHAR
STARTCHAR 24D0
ENCODING 10317
SWIDTH 1800 0
DWIDTH 18 0
BBX 16 16 1 -3
BITMAP
07E0
1818
300C
6006
4782
8441
8041
81C1
8641
8841
8CC1
4322
6006
300C
1818
07E0
ENDCHAR
STARTCHAR 24D1
ENCODING 10318
SWIDTH 1800 0
DWIDTH 18 0
BBX 16 16 1 -3
BITMAP
07E0
1818
3C0C
6406
4402
8401
87E1
8411
8411
8411
8411
4432
6666
318C
1818
07E0
ENDCHAR
STARTCHAR 24D2
ENCODING 10319
SWIDTH 1800 0
DWIDTH 18 0
BBX 16 16 1 -3
BITMAP
07E0
1818
300C
6006
43E2
8461
8401
8401
8401
8401
8221
41C2
6006
300C
1818
07E0
ENDCHAR
STARTCHAR 24D3
ENCODING 10320
SWIDTH 1800 0
DWIDTH 18 0
BBX 16 16 1 -3
BITMAP
07E0
1818
306C
6026
4022
8021
87E1
8421
8821
8821
8821
4822
6666
319C
1818
07E0
ENDCHAR
STARTCHAR 24D4
ENCODING 10321
SWIDTH 1800 0
DWIDTH 18 0
BBX 16 16 1 -3
BITMAP
07E0
1818
300C
6006
41C2
8661
8421
87E1
8401
8401
8611
4322
60C6
300C
1818
07E0
ENDCHAR
STARTCHAR 24D5
ENCODING 10322
SWIDTH 1800 0
DWIDTH 18 0
BBX 16 16 1 -3
BITMAP
07E0
1818
30EC
6106
4102
8101
87C1
8101
8101
8101
8101
4102
6106
33CC
1818
07E0
ENDCHAR
STARTCHAR 24D6
ENCODING 10323
SWIDTH 1800 0
DWIDTH 18 0
BBX 16 16 1 -3
BITMAP
07E0
1818
300C
63DE
4662
8421
8421
8441
8781
83C1
8C21
4C32
67E6
300C
1818
07E0
ENDCHAR
STARTCHAR 24D7
ENCODING 10324
SWIDTH 1800 0
DWIDTH 18 0
BBX 16 16 1 -3
BITMAP
07E0
1818
340C
6406
4402
8401
85C1
8621
8421
8421
8421
4422
6426
300C
1818
07E0
ENDCHAR
STARTCHAR 24D8
ENCODING 10325
SWIDTH 1800 0
DWIDTH 18 0
BBX 16 16 1 -3
BITMAP
07E0
1818
318C
6006
4002
8001
8181
8081
8081
8081
8081
4082
61C6
300C
1818
07E0
ENDCHAR
STARTCHAR 24D9
ENCODING 10326
SWIDTH 1800 0
DWIDTH 18 0
BBX 16 16 1 -3
BITMAP
07E0
1898
300C
6006
4002
8181
8081
8081
8081
8081
8081
4082
6086
330C
1818
07E0
ENDCHAR
STARTCHAR 24DA
ENCODING 10327
SWIDTH 1800 0
DWIDTH 18 0
BBX 16 16 1 -3
BITMAP
07E0
1818
3C0C
6406
4402
8401
8461
8481
8501
8681
8441
4462
6E76
300C
1818
07E0
ENDCHAR
STARTCHAR 24DB
ENCODING 10328
SWIDTH 1800 0
DWIDTH 18 0
BBX 16 16 1 -3
BITMAP
07E0
1818
318C
6086
4082
8081
8081
8081
8081
8081
8081
4082
6086
300C
1818
07E0
ENDCHAR
STARTCHAR 24DC
ENCODING 10329
SWIDTH 1800 0
DWIDTH 18 0
BBX 16 16 1 -3
BITMAP
07E0
1818
300C
6006
773A
98C5
9085
9085
9085
9085
9085
4002
6006
300C
1818
07E0
ENDCHAR
STARTCHAR 24DD
ENCODING 10330
SWIDTH 1800 0
DWIDTH 18 0
BBX 16 16 1 -3
BITMAP
07E0
1818
300C
6006
4DC2
8621
8421
8421
8421
8421
8421
4002
6006
300C
1818
07E0
ENDCHAR
STARTCHAR 24DE
ENCODING 10331
SWIDTH 1800 0
DWIDTH 18 0
BBX 16 16 1 -3
BITMAP
07E0
1818
300C
6006
43C2
8421
8811
8811
8811
8811
8421
43C2
6006
300C
1818
07E0
ENDCHAR
STARTCHAR 24DF
ENCODING 10332
SWIDTH 1800 0
DWIDTH 18 0
BBX 16 16 1 -3
BITMAP
07E0
1818
300C
62C6
4322
8211
8211
8211
8211
8221
83C1
4202
6706
300C
1818
07E0
ENDCHAR
STARTCHAR 24E0
ENCODING 10333
SWIDTH 1800 0
DWIDTH 18 0
BBX 16 16 1 -3
BITMAP
07E0
1818
300C
67C6
4842
8841
8841
8841
8841
84C1
8341
4042
60E6
300C
1818
07E0
ENDCHAR
STARTCHAR 24E1
ENCODING 10334
SWIDTH 1800 0
DWIDTH 18 0
BBX 16 16 1 -3
BITMAP
07E0
1818
300C
6006
4122
81E1
8101
8101
8101
8101
8101
4382
6006
300C
1818
07E0
ENDCHAR
STARTCHAR 24E2
ENCODING 10335
SWIDTH 1800 0
DWIDTH 18 0
BBX 16 16 1 -3
BITMAP
07E0
1818
300C
6006
43C2
8221
8201
8181
8061
8421
8621
41C2
6006
300C
1818
07E0
ENDCHAR
STARTCHAR 24E3
ENCODING 10336
SWIDTH 1800 0
DWIDTH 18 0
BBX 16 16 1 -3
BITMAP
07E0
1818
300C
6106
4102
83C1
8101
8101
8101
8101
8101
4102
60C6
300C
1818
07E0
ENDCHAR
STARTCHAR 24E4
ENCODING 10337
SWIDTH 1800 0
DWIDTH 18 0
BBX 16 16 1 -3
BITMAP
07E0
1818
300C
6006
4022
8421
8421
8421
8421
8421
8461
43B2
6006
300C
1818
07E0
ENDCHAR
STARTCHAR 24E5
ENCODING 10338
SWIDTH 1800 0
DWIDTH 18 0
BBX 16 16 1 -3
BITMAP
07E0
1818
300C
6006
4E72
8421
8241
8241
8341
8181
8181
4002
6006
300C
1818
07E0
ENDCHAR
STARTCHAR 24E6
ENCODING 10339
SWIDTH 1800 0
DWIDTH 18 0
BBX 16 16 1 -3
BITMAP
07E0
1818
300C
6006
4002
9889
8889
8991
8D51
8661
8621
4022
6006
300C
1818
07E0
ENDCHAR
STARTCHAR 24E7
ENCODING 10340
SWIDTH 1800 0
DWIDTH 18 0
BBX 16 16 1 -3
BITMAP
07E0
1818
300C
6006
4F72
8241
8181
8181
8181
8241
8421
4002
6006
300C
1818
07E0
ENDCHAR
STARTCHAR 24E8
ENCODING 10341
SWIDTH 1800 0
DWIDTH 18 0
BBX 16 16 1 -3
BITMAP
07E0
1818
300C
6736
4222
8221
8141
8141
8181
8081
8081
4102
6606
300C
1818
07E0
ENDCHAR
STARTCHAR 24E9
ENCODING 10342
SWIDTH 1800 0
DWIDTH 18 0
BBX 16 16 1 -3
BITMAP
07E0
1818
300C
6006
43E2
8041
8041
8081
8101
8201
8421
47C2
6006
300C
1818
07E0
ENDCHAR
STARTCHAR 2460
ENCODING 10343
SWIDTH 1800 0
DWIDTH 18 0
BBX 16 16 1 -3
BITMAP
07E0
1818
370C
6106
4102
8101
8101
8101
8101
8101
8101
4102
67C6
300C
1818
07E0
ENDCHAR
STARTCHAR 2461
ENCODING 10344
SWIDTH 1800 0
DWIDTH 18 0
BBX 16 16 1 -3
BITMAP
07E0
1818
308C
6366
4422
8621
8021
8041
8081
8101
8201
4422
67E6
300C
1818
07E0
ENDCHAR
STARTCHAR 2462
ENCODING 10345
SWIDTH 1800 0
DWIDTH 18 0
BBX 16 16 1 -3
BITMAP
07E0
1818
31CC
6666
4622
8021
8041
8181
8041
8021
8021
4C22
6446
338C
1818
07E0
ENDCHAR
STARTCHAR 2463
ENCODING 10346
SWIDTH 1800 0
DWIDTH 18 0
BBX 16 16 1 -3
BITMAP
07E0
1818
308C
6086
4182
8281
8281
8481
8881
8881
8FE1
4082
6086
304C
1818
07E0
ENDCHAR
STARTCHAR 2464
ENCODING 10347
SWIDTH 1800 0
DWIDTH 18 0
BBX 16 16 1 -3
BITMAP
07E0
1818
37CC
6406
4402
8401
8581
8661
8021
8021
8421
4422
6444
338C
1818
07E0
ENDCHAR
STARTCHAR 2465
ENCODING 10348
SWIDTH 1800 0
DWIDTH 18 0
BBX 16 16 1 -3
BITMAP
07E0
1818
300C
61E6
4232
8201
8401
87C1
8421
8421
8421
4422
6266
31CC
1818
07E0
ENDCHAR
STARTCHAR 2466
ENCODING 10349
SWIDTH 1800 0
DWIDTH 18 0
BBX 16 16 1 -3
BITMAP
07E0
1818
300C
67F6
4422
8041
8041
8081
8081
8101
8101
4102
6306
330C
1818
07E0
ENDCHAR
STARTCHAR 2467
ENCODING 10350
SWIDTH 1800 0
DWIDTH 18 0
BBX 16 16 1 -3
BITMAP
07E0
1818
23CC
6626
4422
8421
8641
8181
8261
8421
8831
4C32
6426
33CC
1818
07E0
ENDCHAR
STARTCHAR 2468
ENCODING 10351
SWIDTH 1800 0
DWIDTH 18 0
BBX 16 16 1 -3
BITMAP
07E0
1818
338C
6246
4422
8421
8421
8421
82E1
8121
8021
4442
6686
310C
1818
07E0
ENDCHAR
STARTCHAR 2469
ENCODING 10352
SWIDTH 1800 0
DWIDTH 18 0
BBX 16 16 1 -3
BITMAP
07E0
1818
300C
7C3E
442A
8445
8445
8445
8445
8445
8445
5F2A
603E
300C
1818
07E0
ENDCHAR
STARTCHAR 246A
ENCODING 10353
SWIDTH 1800 0
DWIDTH 18 0
BBX 16 16 1 -3
BITMAP
07E0
1818
300C
7C76
4412
8411
8411
8411
8411
8411
8411
5F7E
6006
300C
1818
07E0
ENDCHAR
STARTCHAR 246B
ENCODING 10354
SWIDTH 1800 0
DWIDTH 18 0
BBX 16 16 1 -3
BITMAP
07E0
1818
300C
687E
4846
8845
8809
8811
8821
8841
8845
7E7E
6006
300C
1818
07E0
ENDCHAR
STARTCHAR 246C
ENCODING 10355
SWIDTH 1800 0
DWIDTH 18 0
BBX 16 16 1 -3
BITMAP
07E0
1818
300C
687E
4846
8809
8811
8809
8805
8845
88C5
7E3A
6006
300C
1818
07E0
ENDCHAR
STARTCHAR 246D
ENCODING 10356
SWIDTH 1800 0
DWIDTH 18 0
BBX 16 16 1 -3
BITMAP
07E0
1818
300C
7C0E
441A
8429
8429
8449
8449
847F
8409
5F0E
6006
300C
1818
07E0
ENDCHAR
STARTCHAR 246E
ENCODING 10357
SWIDTH 1800 0
DWIDTH 18 0
BBX 16 16 1 -3
BITMAP
07E0
1818
300C
64FE
4C82
8481
8481
84F9
8405
8405
8445
444A
6A36
300C
1818
07E0
ENDCHAR
STARTCHAR 00BD
ENCODING 10358
SWIDTH 1800 0
DWIDTH 18 0
BBX 13 15 2 -2
BITMAP
2000
2008
2010
2020
2040
2080
2100
7270
0488
0488
0808
1030
2040
4080
80F8
ENDCHAR
STARTCHAR 2153
ENCODING 10359
SWIDTH 1800 0
DWIDTH 18 0
BBX 14 16 2 -3
BITMAP
2000
2008
2010
2020
2040
2080
2100
7200
04F8
0488
0808
1030
2008
408C
8088
0070
ENDCHAR
STARTCHAR 2154
ENCODING 10360
SWIDTH 1800 0
DWIDTH 18 0
BBX 14 16 2 -3
BITMAP
7804
8408
C410
0820
3040
4040
8480
F900
0278
0444
0804
1018
200C
40C4
0084
0078
ENDCHAR
STARTCHAR 00BC
ENCODING 10361
SWIDTH 1800 0
DWIDTH 18 0
BBX 14 15 2 -2
BITMAP
6004
2008
2010
2020
2040
2080
2100
0200
0220
04E0
0920
1220
2220
43F0
8020
ENDCHAR
STARTCHAR 00BE
ENCODING 10362
SWIDTH 1800 0
DWIDTH 18 0
BBX 14 15 2 -2
BITMAP
7804
4408
4410
0820
1420
C440
8480
7900
0210
0470
0890
1110
1110
21F8
4010
ENDCHAR
STARTCHAR 215B
ENCODING 10363
SWIDTH 1800 0
DWIDTH 18 0
BBX 14 16 2 -3
BITMAP
2000
2008
2010
2020
2040
2080
2100
7200
0278
0484
0884
1078
208C
4084
8084
0078
ENDCHAR
STARTCHAR 215C
ENCODING 10364
SWIDTH 1800 0
DWIDTH 18 0
BBX 14 16 2 -3
BITMAP
7804
CC08
0410
0820
1C20
8440
8480
5900
2278
0484
0884
1078
208C
2084
4084
0078
ENDCHAR
STARTCHAR 215D
ENCODING 10365
SWIDTH 1800 0
DWIDTH 18 0
BBX 14 16 2 -3
BITMAP
FC04
8008
8010
F820
0440
8480
8480
7978
028C
0484
0848
10FC
2084
4084
0088
0070
ENDCHAR
STARTCHAR 215E
ENCODING 10366
SWIDTH 1800 0
DWIDTH 18 0
BBX 14 16 2 -3
BITMAP
7C00
0408
0810
0820
1040
1080
1100
1200
0478
0484
0884
1078
20CC
4084
8084
0078
ENDCHAR
STARTCHAR 00E6
ENCODING 10529
SWIDTH 1800 0
DWIDTH 18 0
BBX 12 9 3 -1
BITMAP
79C0
C620
C410
07F0
7C00
8400
8610
DBE0
2000
ENDCHAR
STARTCHAR 0111
ENCODING 10530
SWIDTH 1800 0
DWIDTH 18 0
BBX 9 13 5 -1
BITMAP
0E00
0200
1F80
0200
3A00
4600
8200
8200
8200
8200
C200
6600
1800
ENDCHAR
STARTCHAR 00F0
ENCODING 10531
SWIDTH 1800 0
DWIDTH 18 0
BBX 8 12 5 -1
BITMAP
12
0C
34
06
3A
C5
81
81
81
81
42
3C
ENDCHAR
STARTCHAR 0127
ENCODING 10532
SWIDTH 1800 0
DWIDTH 18 0
BBX 9 12 4 0
BITMAP
6000
2000
FC00
2000
2E00
3100
2100
2100
2100
2100
2100
6180
ENDCHAR
STARTCHAR 0131
ENCODING 10533
SWIDTH 1800 0
DWIDTH 18 0
BBX 3 8 8 0
BITMAP
C0
40
40
40
40
40
40
60
ENDCHAR
STARTCHAR 0133
ENCODING 10534
SWIDTH 1800 0
DWIDTH 18 0
BBX 7 14 5 -2
BITMAP
42
42
00
00
C6
42
42
42
42
42
42
62
0A
0C
ENDCHAR
STARTCHAR 0138
ENCODING 10535
SWIDTH 1800 0
DWIDTH 18 0
BBX 7 8 6 0
BITMAP
CE
88
90
B0
D0
98
8C
8E
ENDCHAR
STARTCHAR 0140
ENCODING 10536
SWIDTH 1800 0
DWIDTH 18 0
BBX 5 12 6 0
BITMAP
C0
40
40
40
40
48
48
40
40
40
40
60
ENDCHAR
STARTCHAR 0142
ENCODING 10537
SWIDTH 1800 0
DWIDTH 18 0
BBX 6 13 7 0
BITMAP
20
20
24
28
30
20
20
60
A0
A0
20
20
70
ENDCHAR
STARTCHAR 00F8
ENCODING 10538
SWIDTH 1800 0
DWIDTH 18 0
BBX 9 10 4 -1
BITMAP
0C00
3380
4180
4280
C480
4880
7080
2100
5600
0800
ENDCHAR
STARTCHAR 0153
ENCODING 10539
SWIDTH 1800 0
DWIDTH 18 0
BBX 13 9 3 -1
BITMAP
7DF0
8208
8208
83F0
8200
8200
8708
6DF0
1000
ENDCHAR
STARTCHAR 00DF
ENCODING 10540
SWIDTH 1800 0
DWIDTH 18 0
BBX 8 14 5 -1
BITMAP
3C
66
42
42
42
46
4C
42
43
41
41
52
FA
04
ENDCHAR
STARTCHAR 00FE
ENCODING 10541
SWIDTH 1800 0
DWIDTH 18 0
BBX 8 14 5 -2
BITMAP
C0
40
40
40
7E
42
41
41
41
41
42
66
58
E0
ENDCHAR
STARTCHAR 0167
ENCODING 10542
SWIDTH 1800 0
DWIDTH 18 0
BBX 5 12 7 0
BITMAP
40
40
40
F8
40
60
40
40
40
40
40
78
ENDCHAR
STARTCHAR 014B
ENCODING 10543
SWIDTH 1800 0
DWIDTH 18 0
BBX 8 12 5 -4
BITMAP
DE
61
41
41
41
41
41
61
09
09
0A
04
ENDCHAR
STARTCHAR 0149
ENCODING 10544
SWIDTH 1800 0
DWIDTH 18 0
BBX 11 11 3 0
BITMAP
6000
4000
8000
9B80
0C40
0840
0840
0840
0840
0840
1CE0
ENDCHAR
STARTCHAR 3200
ENCODING 10545
SWIDTH 1800 0
DWIDTH 18 0
BBX 16 13 1 -2
BITMAP
6004
4002
5FF2
8011
8011
8011
8011
8011
8011
4012
4002
2004
1008
ENDCHAR
STARTCHAR 3201
ENCODING 10546
SWIDTH 1800 0
DWIDTH 18 0
BBX 16 14 1 -2
BITMAP
2000
4004
4002
8C02
8401
8401
8401
8401
8401
87FD
4002
4002
2004
0008
ENDCHAR
STARTCHAR 3202
ENCODING 10547
SWIDTH 1800 0
DWIDTH 18 0
BBX 16 13 1 -2
BITMAP
6004
4012
5FF2
8801
8801
8801
8801
8801
8FF9
4002
4002
2004
1008
ENDCHAR
STARTCHAR 3203
ENCODING 10548
SWIDTH 1800 0
DWIDTH 18 0
BBX 16 13 1 -2
BITMAP
6004
4002
5FF2
8021
8021
9FE1
8801
8801
8801
4FFA
4002
2004
1008
ENDCHAR
STARTCHAR 3204
ENCODING 10549
SWIDTH 1800 0
DWIDTH 18 0
BBX 16 13 1 -2
BITMAP
6004
4002
4002
8FF9
8409
8409
8411
8411
87F9
4402
4002
2004
1008
ENDCHAR
STARTCHAR 3205
ENCODING 10550
SWIDTH 1800 0
DWIDTH 18 0
BBX 16 13 1 -2
BITMAP
6004
4832
4412
8411
87F1
8411
8411
8411
87F1
4412
4002
2004
1008
ENDCHAR
STARTCHAR 3206
ENCODING 10551
SWIDTH 1800 0
DWIDTH 18 0
BBX 16 13 1 -2
BITMAP
6004
4102
40C2
8081
8181
8141
8221
8419
8809
4002
4002
2004
1008
ENDCHAR
STARTCHAR 3207
ENCODING 10552
SWIDTH 1800 0
DWIDTH 18 0
BBX 16 14 1 -2
BITMAP
0004
6004
4102
43C2
8421
8811
8811
8811
8811
8422
43C2
4004
2004
1008
ENDCHAR
STARTCHAR 3208
ENCODING 10553
SWIDTH 1800 0
DWIDTH 18 0
BBX 16 13 1 -2
BITMAP
6004
4012
5FF2
8C31
8021
8041
8081
8361
8411
580A
4002
2004
1008
ENDCHAR
STARTCHAR 3209
ENCODING 10554
SWIDTH 1800 0
DWIDTH 18 0
BBX 16 13 1 -2
BITMAP
6004
43C2
4002
8011
8FF1
8061
8081
8141
8631
580A
4002
2004
1008
ENDCHAR
STARTCHAR 320A
ENCODING 10555
SWIDTH 1800 0
DWIDTH 18 0
BBX 16 13 1 -2
BITMAP
6004
400A
4FFA
8409
8011
8071
8F91
8011
8021
4022
4042
2084
1008
ENDCHAR
STARTCHAR 320B
ENCODING 10556
SWIDTH 1800 0
DWIDTH 18 0
BBX 16 13 1 -2
BITMAP
6004
4032
5FF2
8801
8821
8FF1
8801
8801
8801
4FFA
4002
2004
1008
ENDCHAR
STARTCHAR 320C
ENCODING 10557
SWIDTH 1800 0
DWIDTH 18 0
BBX 16 13 1 -2
BITMAP
2004
4002
5FFA
8001
8461
8221
8241
8041
8081
9FFE
4002
4004
2008
ENDCHAR
STARTCHAR 320D
ENCODING 10558
SWIDTH 1800 0
DWIDTH 18 0
BBX 16 13 1 -2
BITMAP
6004
43C2
4002
8001
9FFD
83C1
8621
8421
8421
4662
43C2
2004
1008
ENDCHAR
STARTCHAR 320E
ENCODING 10559
SWIDTH 1800 0
DWIDTH 18 0
BBX 16 14 1 -2
BITMAP
0030
6014
4012
5F92
8891
8111
8211
861D
8811
9011
4012
4012
2014
1008
ENDCHAR
STARTCHAR 320F
ENCODING 10560
SWIDTH 1800 0
DWIDTH 18 0
BBX 16 14 1 -2
BITMAP
0020
6014
4012
7012
9011
9011
9017
9019
9191
9E11
4012
4012
2014
1008
ENDCHAR
STARTCHAR 3210
ENCODING 10561
SWIDTH 1800 0
DWIDTH 18 0
BBX 16 13 1 -2
BITMAP
6014
4112
5F92
9011
9011
9017
9019
90D1
9F11
4012
4012
2014
1008
ENDCHAR
STARTCHAR 3211
ENCODING 10562
SWIDTH 1800 0
DWIDTH 18 0
BBX 16 14 1 -2
BITMAP
0020
6014
4012
7F92
8111
8111
9F17
9019
9011
9191
5E12
4012
2014
1008
ENDCHAR
STARTCHAR 3212
ENCODING 10563
SWIDTH 1800 0
DWIDTH 18 0
BBX 16 14 1 -2
BITMAP
0020
6014
4012
7F92
9111
9111
9115
9119
9F11
9011
4012
4012
2014
1008
ENDCHAR
STARTCHAR 3213
ENCODING 10564
SWIDTH 1800 0
DWIDTH 18 0
BBX 16 14 1 -2
BITMAP
0020
6014
4012
4312
9111
9111
9F17
9119
9111
9F11
5012
4012
2014
1008
ENDCHAR
STARTCHAR 3214
ENCODING 10565
SWIDTH 1800 0
DWIDTH 18 0
BBX 16 14 1 -2
BITMAP
0030
6014
4412
4312
8211
8411
8615
8999
9091
8011
4012
4012
2014
1008
ENDCHAR
STARTCHAR 3215
ENCODING 10566
SWIDTH 1800 0
DWIDTH 18 0
BBX 16 14 1 -2
BITMAP
0030
6014
4412
5F12
B191
A091
A09F
B191
9F11
8011
4012
4012
2014
1008
ENDCHAR
STARTCHAR 3216
ENCODING 10567
SWIDTH 1800 0
DWIDTH 18 0
BBX 16 14 1 -2
BITMAP
0020
6014
4012
4392
8D11
8211
8617
8D19
9091
A011
4012
4012
2014
1008
ENDCHAR
STARTCHAR 3217
ENCODING 10568
SWIDTH 1800 0
DWIDTH 18 0
BBX 16 14 1 -2
BITMAP
0030
6014
4F12
4012
9F91
8111
8217
8519
8891
B011
4012
4012
2014
1008
ENDCHAR
STARTCHAR 3218
ENCODING 10569
SWIDTH 1800 0
DWIDTH 18 0
BBX 16 14 1 -2
BITMAP
0020
6014
4012
5F92
8111
8311
9E11
841D
8811
9011
6012
4012
2014
1008
ENDCHAR
STARTCHAR 3219
ENCODING 10570
SWIDTH 1800 0
DWIDTH 18 0
BBX 16 13 1 -2
BITMAP
6014
4012
7F12
9011
9011
9F15
9019
9011
9791
5812
4012
2014
1008
ENDCHAR
STARTCHAR 321A
ENCODING 10571
SWIDTH 1800 0
DWIDTH 18 0
BBX 16 14 1 -2
BITMAP
0020
6014
4012
5F92
8011
8891
8915
8919
8191
9E11
4012
4012
2014
1008
ENDCHAR
STARTCHAR 321B
ENCODING 10572
SWIDTH 1800 0
DWIDTH 18 0
BBX 16 14 1 -2
BITMAP
0024
6014
4712
4012
BFD1
8211
8F17
8899
8891
8F12
4012
4014
2014
1000
ENDCHAR
STARTCHAR 249C
ENCODING 10573
SWIDTH 1800 0
DWIDTH 18 0
BBX 16 13 1 -2
BITMAP
6004
4002
4782
8441
8041
81C1
8641
8C41
8CC1
4722
4002
2004
1008
ENDCHAR
STARTCHAR 249D
ENCODING 10574
SWIDTH 1800 0
DWIDTH 18 0
BBX 16 13 1 -2
BITMAP
6C04
4402
4402
8401
87E1
8431
8411
8411
8411
4432
4662
2184
1008
ENDCHAR
STARTCHAR 249E
ENCODING 10575
SWIDTH 1800 0
DWIDTH 18 0
BBX 16 13 1 -2
BITMAP
6004
4002
43E2
8621
8401
8401
8401
8401
8221
41C2
4002
2004
1008
ENDCHAR
STARTCHAR 249F
ENCODING 10576
SWIDTH 1800 0
DWIDTH 18 0
BBX 16 13 1 -2
BITMAP
6064
4022
4022
8021
87E1
8C21
8821
8821
8821
4422
43E2
2014
1008
ENDCHAR
STARTCHAR 24A0
ENCODING 10577
SWIDTH 1800 0
DWIDTH 18 0
BBX 16 13 1 -2
BITMAP
6004
41C2
4242
8421
8421
87E1
8401
8401
8401
4322
40C2
2004
1008
ENDCHAR
STARTCHAR 24A1
ENCODING 10578
SWIDTH 1800 0
DWIDTH 18 0
BBX 16 13 1 -2
BITMAP
60E4
4102
4102
8101
87C1
8101
8101
8101
8101
4102
4102
2384
1008
ENDCHAR
STARTCHAR 24A2
ENCODING 10579
SWIDTH 1800 0
DWIDTH 18 0
BBX 16 13 1 -2
BITMAP
6004
47F2
4442
8461
8441
8381
8401
83C1
8C21
4822
47C2
2004
1008
ENDCHAR
STARTCHAR 24A3
ENCODING 10580
SWIDTH 1800 0
DWIDTH 18 0
BBX 16 13 1 -2
BITMAP
6C04
4402
4402
8401
85E1
8621
8421
8421
8421
4422
4422
2004
1008
ENDCHAR
STARTCHAR 24A4
ENCODING 10581
SWIDTH 1800 0
DWIDTH 18 0
BBX 16 13 1 -2
BITMAP
6184
4002
4002
8001
8181
8081
8081
8081
8081
4082
4082
2004
1008
ENDCHAR
STARTCHAR 24A5
ENCODING 10582
SWIDTH 1800 0
DWIDTH 18 0
BBX 16 14 1 -2
BITMAP
0080
2004
4002
4002
8181
8081
8081
8081
8081
8081
4082
4082
2304
1008
ENDCHAR
STARTCHAR 24A6
ENCODING 10583
SWIDTH 1800 0
DWIDTH 18 0
BBX 16 13 1 -2
BITMAP
6C04
4402
4402
8401
8461
8481
8501
8681
84C1
4442
4662
2004
1008
ENDCHAR
STARTCHAR 24A7
ENCODING 10584
SWIDTH 1800 0
DWIDTH 18 0
BBX 16 13 1 -2
BITMAP
6184
4082
4082
8081
8081
8081
8081
8081
8081
4082
4082
2004
1008
ENDCHAR
STARTCHAR 24A8
ENCODING 10585
SWIDTH 1800 0
DWIDTH 18 0
BBX 16 13 1 -2
BITMAP
6004
4002
777A
9889
9089
9089
9089
9089
9089
4002
4002
2004
1008
ENDCHAR
STARTCHAR 24A9
ENCODING 10586
SWIDTH 1800 0
DWIDTH 18 0
BBX 16 13 1 -2
BITMAP
6004
4002
4DC2
8621
8421
8421
8421
8421
8421
4002
4002
2004
1008
ENDCHAR
STARTCHAR 24AA
ENCODING 10587
SWIDTH 1800 0
DWIDTH 18 0
BBX 16 13 1 -2
BITMAP
6004
4002
43C2
8241
8421
8421
8421
8421
8241
4382
4002
2004
1008
ENDCHAR
STARTCHAR 24AB
ENCODING 10588
SWIDTH 1800 0
DWIDTH 18 0
BBX 16 13 1 -2
BITMAP
6004
42E2
4332
8211
8211
8211
8211
8221
83C1
4202
4202
2004
1008
ENDCHAR
STARTCHAR 24AC
ENCODING 10589
SWIDTH 1800 0
DWIDTH 18 0
BBX 16 13 1 -2
BITMAP
6004
4302
44C2
8841
8841
8841
8841
8441
83C1
4042
40E2
2004
1008
ENDCHAR
STARTCHAR 24AD
ENCODING 10590
SWIDTH 1800 0
DWIDTH 18 0
BBX 16 13 1 -2
BITMAP
6004
4002
4372
8181
8101
8101
8101
8101
8101
4002
4002
2004
1008
ENDCHAR
STARTCHAR 24AE
ENCODING 10591
SWIDTH 1800 0
DWIDTH 18 0
BBX 16 13 1 -2
BITMAP
6004
4002
43C2
8421
8201
81C1
8021
8421
8221
41C2
4002
2004
1008
ENDCHAR
STARTCHAR 24AF
ENCODING 10592
SWIDTH 1800 0
DWIDTH 18 0
BBX 16 13 1 -2
BITMAP
6004
4102
4102
83C1
8101
8101
8101
8101
8101
4102
40C2
2004
1008
ENDCHAR
STARTCHAR 24B0
ENCODING 10593
SWIDTH 1800 0
DWIDTH 18 0
BBX 16 13 1 -2
BITMAP
6004
4002
4C62
8421
8421
8421
8421
8421
86E1
4102
4002
2004
1008
ENDCHAR
STARTCHAR 24B1
ENCODING 10594
SWIDTH 1800 0
DWIDTH 18 0
BBX 16 13 1 -2
BITMAP
6004
4002
4002
8421
8641
8241
8241
8181
8181
4002
4002
2004
1008
ENDCHAR
STARTCHAR 24B2
ENCODING 10595
SWIDTH 1800 0
DWIDTH 18 0
BBX 16 13 1 -2
BITMAP
6004
4002
4002
9189
8891
8991
8A51
8661
8661
4002
4002
2004
1008
ENDCHAR
STARTCHAR 24B3
ENCODING 10596
SWIDTH 1800 0
DWIDTH 18 0
BBX 16 13 1 -2
BITMAP
6004
4002
4E72
8241
8381
8101
8281
8241
8421
4002
4002
2004
1008
ENDCHAR
STARTCHAR 24B4
ENCODING 10597
SWIDTH 1800 0
DWIDTH 18 0
BBX 16 13 1 -2
BITMAP
6004
4002
4632
8221
8241
8141
8141
8181
8081
4102
4702
2004
1008
ENDCHAR
STARTCHAR 24B5
ENCODING 10598
SWIDTH 1800 0
DWIDTH 18 0
BBX 16 14 1 -2
BITMAP
0004
6004
4002
43E2
8241
8481
8081
8101
8201
8422
47C2
4004
2004
1008
ENDCHAR
STARTCHAR 2474
ENCODING 10599
SWIDTH 1800 0
DWIDTH 18 0
BBX 16 13 1 -2
BITMAP
6384
4082
4082
8081
8081
8081
8081
8081
8081
4082
4082
23F4
1008
ENDCHAR
STARTCHAR 2475
ENCODING 10600
SWIDTH 1800 0
DWIDTH 18 0
BBX 16 14 1 -2
BITMAP
01C0
6624
4432
4422
8021
8041
8081
8101
8201
8411
4822
47E2
2004
1008
ENDCHAR
STARTCHAR 2476
ENCODING 10601
SWIDTH 1800 0
DWIDTH 18 0
BBX 16 13 1 -2
BITMAP
67C4
4422
4022
8021
8041
8181
8061
8011
8011
4412
4422
23C4
1008
ENDCHAR
STARTCHAR 2477
ENCODING 10602
SWIDTH 1800 0
DWIDTH 18 0
BBX 16 13 1 -2
BITMAP
6084
4182
4282
8281
8481
8881
8881
9081
9FE1
4082
4082
2144
1008
ENDCHAR
STARTCHAR 2478
ENCODING 10603
SWIDTH 1800 0
DWIDTH 18 0
BBX 16 13 1 -2
BITMAP
67E4
4402
4402
8401
8481
8761
8011
8011
8011
4612
4422
2344
1088
ENDCHAR
STARTCHAR 2479
ENCODING 10604
SWIDTH 1800 0
DWIDTH 18 0
BBX 16 14 1 -2
BITMAP
0080
6364
4462
4402
8801
89C1
8E21
8811
8811
8811
4812
4422
23C4
1008
ENDCHAR
STARTCHAR 247A
ENCODING 10605
SWIDTH 1800 0
DWIDTH 18 0
BBX 16 13 1 -2
BITMAP
67F4
4422
4022
8041
8081
8081
8081
8101
8101
4102
4302
2004
1008
ENDCHAR
STARTCHAR 247B
ENCODING 10606
SWIDTH 1800 0
DWIDTH 18 0
BBX 16 13 1 -2
BITMAP
63C4
4422
4422
8421
8441
83C1
8661
8431
8811
4422
4422
23C4
1008
ENDCHAR
STARTCHAR 247C
ENCODING 10607
SWIDTH 1800 0
DWIDTH 18 0
BBX 16 13 1 -2
BITMAP
6184
4642
4422
8421
8421
8421
82E1
8121
8021
4442
4482
2304
1008
ENDCHAR
STARTCHAR 247D
ENCODING 10608
SWIDTH 1800 0
DWIDTH 18 0
BBX 16 14 1 -2
BITMAP
0070
6454
4C8A
448A
8489
8489
8489
8489
8489
8489
4492
4462
2004
1008
ENDCHAR
STARTCHAR 247E
ENCODING 10609
SWIDTH 1800 0
DWIDTH 18 0
BBX 16 13 1 -2
BITMAP
6004
5C72
4412
8411
8411
8411
8411
8411
8411
5F7E
4002
2004
1008
ENDCHAR
STARTCHAR 247F
ENCODING 10610
SWIDTH 1800 0
DWIDTH 18 0
BBX 16 14 1 -2
BITMAP
2000
4004
787A
8846
8845
8809
8811
8821
8841
8845
7E7E
4002
2004
0008
ENDCHAR
STARTCHAR 2480
ENCODING 10611
SWIDTH 1800 0
DWIDTH 18 0
BBX 16 13 1 -2
BITMAP
6004
787A
4846
8809
8811
8809
8805
8845
88C5
7E3A
4002
2004
1008
ENDCHAR
STARTCHAR 2481
ENCODING 10612
SWIDTH 1800 0
DWIDTH 18 0
BBX 16 13 1 -2
BITMAP
6004
780A
481A
8829
8829
8849
8849
887F
8809
7E0E
4002
2004
1008
ENDCHAR
STARTCHAR 2482
ENCODING 10613
SWIDTH 1800 0
DWIDTH 18 0
BBX 16 13 1 -2
BITMAP
6004
44FA
4C82
8481
8481
84F9
8405
8405
8445
444A
4A32
2004
1008
ENDCHAR
STARTCHAR 00B9
ENCODING 10614
SWIDTH 1800 0
DWIDTH 18 0
BBX 3 8 8 6
BITMAP
40
40
40
40
40
40
40
E0
ENDCHAR
STARTCHAR 00B2
ENCODING 10615
SWIDTH 1800 0
DWIDTH 18 0
BBX 5 7 7 6
BITMAP
F0
90
10
20
40
88
F0
ENDCHAR
STARTCHAR 00B3
ENCODING 10616
SWIDTH 1800 0
DWIDTH 18 0
BBX 5 8 6 5
BITMAP
30
48
48
08
18
08
C8
70
ENDCHAR
STARTCHAR 2074
ENCODING 10617
SWIDTH 1800 0
DWIDTH 18 0
BBX 5 7 6 6
BITMAP
10
30
50
50
90
F8
10
ENDCHAR
STARTCHAR 207F
ENCODING 10618
SWIDTH 1800 0
DWIDTH 18 0
BBX 6 6 7 6
BITMAP
38
C8
88
88
88
8C
ENDCHAR
STARTCHAR 2081
ENCODING 10619
SWIDTH 1800 0
DWIDTH 18 0
BBX 3 8 7 -3
BITMAP
40
40
40
40
40
40
40
E0
ENDCHAR
STARTCHAR 2082
ENCODING 10620
SWIDTH 1800 0
DWIDTH 18 0
BBX 4 7 7 -3
BITMAP
F0
90
10
20
40
80
F0
ENDCHAR
STARTCHAR 2083
ENCODING 10621
SWIDTH 1800 0
DWIDTH 18 0
BBX 5 8 7 -3
BITMAP
70
90
90
10
30
08
88
F0
ENDCHAR
STARTCHAR 2084
ENCODING 10622
SWIDTH 1800 0
DWIDTH 18 0
BBX 5 7 6 -3
BITMAP
10
30
50
50
90
F8
10
ENDCHAR
STARTCHAR 3041
ENCODING 10785
SWIDTH 1800 0
DWIDTH 18 0
BBX 10 12 4 -2
BITMAP
0800
0800
1600
3800
1200
1F00
1480
7840
9040
B080
C080
0300
ENDCHAR
STARTCHAR 3042
ENCODING 10786
SWIDTH 1800 0
DWIDTH 18 0
BBX 12 15 3 -2
BITMAP
0800
0400
0400
4F80
3800
0900
0900
1FE0
2A10
4C10
8810
9810
E830
8040
0180
ENDCHAR
STARTCHAR 3043
ENCODING 10787
SWIDTH 1800 0
DWIDTH 18 0
BBX 10 7 4 -2
BITMAP
8000
8080
8080
8040
A040
6000
2000
ENDCHAR
STARTCHAR 3044
ENCODING 10788
SWIDTH 1800 0
DWIDTH 18 0
BBX 12 9 3 1
BITMAP
8000
8000
8040
8020
8010
9010
5030
6000
2000
ENDCHAR
STARTCHAR 3045
ENCODING 10789
SWIDTH 1800 0
DWIDTH 18 0
BBX 6 11 6 -2
BITMAP
18
04
00
BC
44
04
04
08
08
10
20
ENDCHAR
STARTCHAR 3046
ENCODING 10790
SWIDTH 1800 0
DWIDTH 18 0
BBX 8 15 5 -2
BITMAP
10
0C
06
00
00
9E
61
01
01
01
01
02
02
04
08
ENDCHAR
STARTCHAR 3047
ENCODING 10791
SWIDTH 1800 0
DWIDTH 18 0
BBX 9 11 4 -2
BITMAP
0800
0600
0000
0E00
3400
0800
1000
2000
5800
C480
0300
ENDCHAR
STARTCHAR 3048
ENCODING 10792
SWIDTH 1800 0
DWIDTH 18 0
BBX 12 13 3 -1
BITMAP
0600
0100
0000
0100
0F00
3200
0400
0800
0800
1000
6C00
C400
83F0
ENDCHAR
STARTCHAR 3049
ENCODING 10793
SWIDTH 1800 0
DWIDTH 18 0
BBX 10 10 4 -1
BITMAP
2000
1800
1180
1C40
3000
1100
1EC0
3040
D040
3380
ENDCHAR
STARTCHAR 304A
ENCODING 10794
SWIDTH 1800 0
DWIDTH 18 0
BBX 14 13 2 -1
BITMAP
0C00
0C00
0838
4F0C
3C10
0800
09E0
0E18
0808
3808
E818
58F0
0800
ENDCHAR
STARTCHAR 304B
ENCODING 10795
SWIDTH 1800 0
DWIDTH 18 0
BBX 14 13 2 -1
BITMAP
0800
0400
0400
0C30
0F98
F88C
108C
1094
2080
2100
4100
CE00
8600
ENDCHAR
STARTCHAR 304C
ENCODING 10796
SWIDTH 1800 0
DWIDTH 18 0
BBX 15 12 2 0
BITMAP
0C00
0402
040C
0B24
BC98
508C
108C
109C
2180
6100
4B00
8600
ENDCHAR
STARTCHAR 304D
ENCODING 10797
SWIDTH 1800 0
DWIDTH 18 0
BBX 10 14 4 -1
BITMAP
3000
1000
0F00
F800
0480
0780
7A00
0100
0080
7FC0
80C0
8000
4000
3E00
ENDCHAR
STARTCHAR 304E
ENCODING 10798
SWIDTH 1800 0
DWIDTH 18 0
BBX 12 14 4 -1
BITMAP
3000
1010
0F50
F820
0480
0780
7A00
0100
0080
7FC0
80C0
8000
4000
3E00
ENDCHAR
STARTCHAR 304F
ENCODING 10799
SWIDTH 1800 0
DWIDTH 18 0
BBX 6 15 6 -2
BITMAP
08
0C
0C
10
20
40
80
80
40
20
30
18
08
0C
04
ENDCHAR
STARTCHAR 3050
ENCODING 10800
SWIDTH 1800 0
DWIDTH 18 0
BBX 10 15 6 -2
BITMAP
0800
0C00
0C00
1000
22C0
4100
8000
8000
4000
2000
1000
1800
0C00
0C00
0400
ENDCHAR
STARTCHAR 3051
ENCODING 10801
SWIDTH 1800 0
DWIDTH 18 0
BBX 14 13 2 -1
BITMAP
4060
4020
4020
407C
83A0
8020
8020
A020
C020
C060
C040
4040
0080
ENDCHAR
STARTCHAR 3052
ENCODING 10802
SWIDTH 1800 0
DWIDTH 18 0
BBX 15 14 2 -1
BITMAP
0004
606A
6028
4020
407C
43A0
8020
8020
8020
A020
4060
4040
4040
0080
ENDCHAR
STARTCHAR 3053
ENCODING 10803
SWIDTH 1800 0
DWIDTH 18 0
BBX 11 12 3 0
BITMAP
2000
1F80
0380
0000
0000
0000
0000
0000
8000
8000
4000
3FE0
ENDCHAR
STARTCHAR 3054
ENCODING 10804
SWIDTH 1800 0
DWIDTH 18 0
BBX 13 12 3 0
BITMAP
2010
1FA8
0390
0000
0000
0000
0000
0000
8000
8000
4000
3FE0
ENDCHAR
STARTCHAR 3055
ENCODING 10805
SWIDTH 1800 0
DWIDTH 18 0
BBX 11 14 3 -1
BITMAP
0C00
1B80
08C0
8780
7D00
0080
0080
0040
1FE0
6060
4000
4000
3000
0F80
ENDCHAR
STARTCHAR 3056
ENCODING 10806
SWIDTH 1800 0
DWIDTH 18 0
BBX 14 14 3 -1
BITMAP
0800
1F8C
04D4
8388
7D00
0080
0080
0040
1FE0
6060
4000
4000
3000
0F80
ENDCHAR
STARTCHAR 3057
ENCODING 10807
SWIDTH 1800 0
DWIDTH 18 0
BBX 9 13 5 -1
BITMAP
8000
C000
8000
8000
8000
8000
8000
8000
8000
8000
8080
8300
7C00
ENDCHAR
STARTCHAR 3058
ENCODING 10808
SWIDTH 1800 0
DWIDTH 18 0
BBX 9 13 5 -1
BITMAP
8000
C000
8200
8A00
8400
8000
8000
8000
8000
8000
8080
8300
7C00
ENDCHAR
STARTCHAR 3059
ENCODING 10809
SWIDTH 1800 0
DWIDTH 18 0
BBX 14 15 2 -2
BITMAP
0100
0100
0100
0FFC
F100
0300
0700
0900
0980
0900
0700
0100
0300
0200
0400
ENDCHAR
STARTCHAR 305A
ENCODING 10810
SWIDTH 1800 0
DWIDTH 18 0
BBX 14 15 2 -2
BITMAP
0108
0124
0110
0FFC
F100
0300
0700
0980
0980
0580
0300
0100
0100
0200
0400
ENDCHAR
STARTCHAR 305B
ENCODING 10811
SWIDTH 1800 0
DWIDTH 18 0
BBX 16 12 1 0
BITMAP
0010
0818
0410
0410
05FF
FE20
6420
0420
0440
0400
0200
01FC
ENDCHAR
STARTCHAR 305C
ENCODING 10812
SWIDTH 1800 0
DWIDTH 18 0
BBX 17 12 1 0
BITMAP
006100
003580
0C2200
042000
047E00
8FA200
742000
042000
046000
044000
020000
01FC00
ENDCHAR
STARTCHAR 305D
ENCODING 10813
SWIDTH 1800 0
DWIDTH 18 0
BBX 12 13 3 -1
BITMAP
1780
1980
0200
0400
0860
37F0
7A00
C400
0800
0800
0800
0600
0380
ENDCHAR
STARTCHAR 305E
ENCODING 10814
SWIDTH 1800 0
DWIDTH 18 0
BBX 14 13 3 -1
BITMAP
1788
19A4
0214
0400
0860
17F0
7A00
C400
0800
0800
0800
0600
0380
ENDCHAR
STARTCHAR 305F
ENCODING 10815
SWIDTH 1800 0
DWIDTH 18 0
BBX 14 12 2 -1
BITMAP
0C00
0C00
0F00
F8E0
1018
1018
1000
2000
2000
4200
C300
80FC
ENDCHAR
STARTCHAR 3060
ENCODING 10816
SWIDTH 1800 0
DWIDTH 18 0
BBX 15 13 2 -1
BITMAP
0004
0C02
0C0C
0F04
FCF0
1018
1018
1000
2000
2200
4200
4300
40FC
ENDCHAR
STARTCHAR 3061
ENCODING 10817
SWIDTH 1800 0
DWIDTH 18 0
BBX 12 14 3 -1
BITMAP
1000
0800
0800
1700
F800
1000
1000
21C0
2E30
3010
2010
0030
0060
0380
ENDCHAR
STARTCHAR 3062
ENCODING 10818
SWIDTH 1800 0
DWIDTH 18 0
BBX 14 14 3 -1
BITMAP
1800
0800
1308
FC24
1010
1000
2000
27E0
3810
2010
2030
0060
01C0
0780
ENDCHAR
STARTCHAR 3063
ENCODING 10819
SWIDTH 1800 0
DWIDTH 18 0
BBX 12 7 3 -2
BITMAP
07E0
F820
4010
0010
0020
0040
0180
ENDCHAR
STARTCHAR 3064
ENCODING 10820
SWIDTH 1800 0
DWIDTH 18 0
BBX 14 9 2 0
BITMAP
07F0
1808
E004
0004
0004
000C
0018
0030
00C0
ENDCHAR
STARTCHAR 3065
ENCODING 10821
SWIDTH 1800 0
DWIDTH 18 0
BBX 17 11 1 0
BITMAP
000180
000680
03F200
1C0800
F00400
000400
000400
000C00
000800
003000
00C000
ENDCHAR
STARTCHAR 3066
ENCODING 10822
SWIDTH 1800 0
DWIDTH 18 0
BBX 12 12 3 -1
BITMAP
01F0
FF80
4200
0400
0400
0800
0800
0800
0800
0400
03C0
01C0
ENDCHAR
STARTCHAR 3067
ENCODING 10823
SWIDTH 1800 0
DWIDTH 18 0
BBX 14 12 3 -1
BITMAP
01F0
BF80
422C
0414
0800
0800
0800
0800
0800
0400
03C0
01C0
ENDCHAR
STARTCHAR 3068
ENCODING 10824
SWIDTH 1800 0
DWIDTH 18 0
BBX 10 13 4 -1
BITMAP
6000
3000
1000
1000
1380
1700
1800
2000
4000
8000
8000
4000
3FC0
ENDCHAR
STARTCHAR 3069
ENCODING 10825
SWIDTH 1800 0
DWIDTH 18 0
BBX 11 13 4 -1
BITMAP
3060
10C0
1040
1000
1180
1700
1800
2000
4000
4000
8000
4000
3FC0
ENDCHAR
STARTCHAR 306A
ENCODING 10826
SWIDTH 1800 0
DWIDTH 18 0
BBX 13 15 3 -2
BITMAP
0800
0C00
0800
FE00
1000
2030
2078
4180
C100
8100
0100
0F80
11C0
1120
0E00
ENDCHAR
STARTCHAR 306B
ENCODING 10827
SWIDTH 1800 0
DWIDTH 18 0
BBX 13 12 3 0
BITMAP
8000
4000
41F0
4270
C000
8000
8000
A000
A800
C400
C3F8
4000
ENDCHAR
STARTCHAR 306C
ENCODING 10828
SWIDTH 1800 0
DWIDTH 18 0
BBX 14 12 2 -1
BITMAP
0200
0200
43C0
4E30
5208
2408
640C
980C
9808
B8F8
E118
40E4
ENDCHAR
STARTCHAR 306D
ENCODING 10829
SWIDTH 1800 0
DWIDTH 18 0
BBX 15 14 2 -2
BITMAP
1000
0800
0800
0800
18F0
7B08
1C08
1008
3008
5008
50F8
F11C
90F6
1000
ENDCHAR
STARTCHAR 306E
ENCODING 10830
SWIDTH 1800 0
DWIDTH 18 0
BBX 14 11 2 0
BITMAP
03C0
1D30
2108
420C
4204
8404
8C04
880C
5008
6010
0060
ENDCHAR
STARTCHAR 306F
ENCODING 10831
SWIDTH 1800 0
DWIDTH 18 0
BBX 13 13 3 -1
BITMAP
40C0
4040
4040
4078
83E0
8040
8040
C040
C040
C3C0
CC70
C848
4780
ENDCHAR
STARTCHAR 3070
ENCODING 10832
SWIDTH 1800 0
DWIDTH 18 0
BBX 15 13 3 -1
BITMAP
40C6
404C
4040
4078
83E0
8040
8040
C040
C040
C3C0
CC70
CC48
4380
ENDCHAR
STARTCHAR 3071
ENCODING 10833
SWIDTH 1800 0
DWIDTH 18 0
BBX 15 14 3 -1
BITMAP
000C
4052
4054
4048
8078
83E0
8040
8040
8040
C040
C3C0
CC70
C8C8
4780
ENDCHAR
STARTCHAR 3072
ENCODING 10834
SWIDTH 1800 0
DWIDTH 18 0
BBX 13 12 3 0
BITMAP
10C0
70C0
A040
6040
40A0
40B0
8098
8088
8100
8300
4600
7C00
ENDCHAR
STARTCHAR 3073
ENCODING 10835
SWIDTH 1800 0
DWIDTH 18 0
BBX 14 13 3 -1
BITMAP
0048
30D4
F058
2040
40A0
40B0
8098
8098
8100
8100
8200
7C00
1000
ENDCHAR
STARTCHAR 3074
ENCODING 10836
SWIDTH 1800 0
DWIDTH 18 0
BBX 15 13 3 -1
BITMAP
005C
30D2
E04C
2040
40A0
40B0
8098
8098
8100
8100
8200
7C00
1000
ENDCHAR
STARTCHAR 3075
ENCODING 10837
SWIDTH 1800 0
DWIDTH 18 0
BBX 14 11 2 0
BITMAP
0300
0180
0100
0200
0400
0200
0200
03F8
9D8C
E08C
6780
ENDCHAR
STARTCHAR 3076
ENCODING 10838
SWIDTH 1800 0
DWIDTH 18 0
BBX 15 11 2 0
BITMAP
0300
0180
0116
0208
0400
0200
0200
03F8
9D8C
E19C
6780
ENDCHAR
STARTCHAR 3077
ENCODING 10839
SWIDTH 1800 0
DWIDTH 18 0
BBX 14 12 3 0
BITMAP
0400
0200
013C
0124
0624
0438
0400
0200
05F0
1908
E118
C700
ENDCHAR
STARTCHAR 3078
ENCODING 10840
SWIDTH 1800 0
DWIDTH 18 0
BBX 15 7 2 2
BITMAP
1E00
2100
4080
8060
0030
001C
0006
ENDCHAR
STARTCHAR 3079
ENCODING 10841
SWIDTH 1800 0
DWIDTH 18 0
BBX 15 9 2 2
BITMAP
000C
0010
1E10
2100
4080
8060
0030
001C
0006
ENDCHAR
STARTCHAR 307A
ENCODING 10842
SWIDTH 1800 0
DWIDTH 18 0
BBX 16 10 1 2
BITMAP
001C
0014
0014
0F1C
1080
A040
6030
0018
0006
0003
ENDCHAR
STARTCHAR 307B
ENCODING 10843
SWIDTH 1800 0
DWIDTH 18 0
BBX 13 13 3 -1
BITMAP
4060
47C0
4040
4050
81E0
8240
A040
C040
C040
C1E0
C658
C440
4380
ENDCHAR
STARTCHAR 307C
ENCODING 10844
SWIDTH 1800 0
DWIDTH 18 0
BBX 16 13 2 -1
BITMAP
4030
63C2
4025
402C
40F0
8120
8020
A020
A020
C1F0
C23C
4220
41C0
ENDCHAR
STARTCHAR 307D
ENCODING 10845
SWIDTH 1800 0
DWIDTH 18 0
BBX 17 13 1 -1
BITMAP
203B80
21E480
202280
402900
40F000
412000
402000
A02000
A02000
60F000
633C00
622000
61C000
ENDCHAR
STARTCHAR 307E
ENCODING 10846
SWIDTH 1800 0
DWIDTH 18 0
BBX 10 15 4 -2
BITMAP
0800
0400
0400
0480
FF80
0400
0480
7F80
0400
0400
0400
7E00
8580
8C40
7000
ENDCHAR
STARTCHAR 307F
ENCODING 10847
SWIDTH 1800 0
DWIDTH 18 0
BBX 14 12 2 0
BITMAP
0100
1F80
0900
0300
0220
0410
0F10
38F0
5038
A06C
A040
4080
ENDCHAR
STARTCHAR 3080
ENCODING 10848
SWIDTH 1800 0
DWIDTH 18 0
BBX 14 13 2 -1
BITMAP
1000
0800
0F00
F800
1078
3044
582C
9820
5020
3020
2030
2030
1FE0
ENDCHAR
STARTCHAR 3081
ENCODING 10849
SWIDTH 1800 0
DWIDTH 18 0
BBX 14 13 2 -1
BITMAP
0100
4080
2100
23C0
2D30
3208
520C
9404
8C04
9C0C
B408
4030
00C0
ENDCHAR
STARTCHAR 3082
ENCODING 10850
SWIDTH 1800 0
DWIDTH 18 0
BBX 9 15 4 -2
BITMAP
1000
0800
0800
0800
3000
1800
7000
A100
6080
3C80
2080
2080
2080
1B80
0E00
ENDCHAR
STARTCHAR 3083
ENCODING 10851
SWIDTH 1800 0
DWIDTH 18 0
BBX 11 11 4 -2
BITMAP
0400
3E00
4180
2E60
3020
D2C0
0900
0400
0400
0200
0200
ENDCHAR
STARTCHAR 3084
ENCODING 10852
SWIDTH 1800 0
DWIDTH 18 0
BBX 16 13 1 -1
BITMAP
0080
0FC0
1058
09A6
0603
9C02
722E
0110
0180
0080
00C0
0040
0060
ENDCHAR
STARTCHAR 3085
ENCODING 10853
SWIDTH 1800 0
DWIDTH 18 0
BBX 10 11 4 -2
BITMAP
0800
1400
A780
9AC0
A240
E240
E240
9280
8F00
0400
0800
ENDCHAR
STARTCHAR 3086
ENCODING 10854
SWIDTH 1800 0
DWIDTH 18 0
BBX 14 13 2 -1
BITMAP
0300
8D00
4BE0
5498
4888
588C
688C
688C
6498
46B0
41E0
0100
0200
ENDCHAR
STARTCHAR 3087
ENCODING 10855
SWIDTH 1800 0
DWIDTH 18 0
BBX 8 11 5 -2
BITMAP
18
08
08
0F
08
08
08
08
FF
89
70
ENDCHAR
STARTCHAR 3088
ENCODING 10856
SWIDTH 1800 0
DWIDTH 18 0
BBX 10 14 3 -2
BITMAP
0400
0400
0400
05C0
0600
0400
0400
0400
0400
0C00
7380
C4C0
6C00
1000
ENDCHAR
STARTCHAR 3089
ENCODING 10857
SWIDTH 1800 0
DWIDTH 18 0
BBX 11 13 4 -1
BITMAP
1000
0C00
0C00
7000
4000
4000
4000
4780
5840
E060
C040
00C0
0300
ENDCHAR
STARTCHAR 308A
ENCODING 10858
SWIDTH 1800 0
DWIDTH 18 0
BBX 7 14 6 -2
BITMAP
98
A4
C4
C6
82
82
86
86
86
04
0C
08
10
20
ENDCHAR
STARTCHAR 308B
ENCODING 10859
SWIDTH 1800 0
DWIDTH 18 0
BBX 10 13 4 -1
BITMAP
0600
3B00
0600
0400
0800
1000
2F80
7040
C040
8040
3C40
2280
1F00
ENDCHAR
STARTCHAR 308C
ENCODING 10860
SWIDTH 1800 0
DWIDTH 18 0
BBX 15 13 2 -1
BITMAP
0800
0800
0860
19A0
FE20
1820
1820
3060
3040
5040
5040
9066
1018
ENDCHAR
STARTCHAR 308D
ENCODING 10861
SWIDTH 1800 0
DWIDTH 18 0
BBX 12 13 3 -1
BITMAP
0700
1900
0200
0400
0800
1380
3C60
6010
C010
0030
0020
00C0
0700
ENDCHAR
STARTCHAR 308E
ENCODING 10862
SWIDTH 1800 0
DWIDTH 18 0
BBX 10 11 4 -2
BITMAP
1000
1000
2000
3000
6780
3840
2040
6040
A080
E300
2000
ENDCHAR
STARTCHAR 308F
ENCODING 10863
SWIDTH 1800 0
DWIDTH 18 0
BBX 13 13 3 -1
BITMAP
0800
0800
0800
0800
38E0
5330
1C08
1008
3008
5018
D030
B060
1080
ENDCHAR
STARTCHAR 3090
ENCODING 10864
SWIDTH 1800 0
DWIDTH 18 0
BBX 12 13 3 -1
BITMAP
0600
1B00
0200
0400
0400
0FE0
1810
7010
9010
A190
A670
C220
01C0
ENDCHAR
STARTCHAR 3091
ENCODING 10865
SWIDTH 1800 0
DWIDTH 18 0
BBX 14 13 2 -1
BITMAP
0180
0F80
0100
03C0
0420
0820
1720
0940
0780
0800
3070
7D88
C61C
ENDCHAR
STARTCHAR 3092
ENCODING 10866
SWIDTH 1800 0
DWIDTH 18 0
BBX 12 15 3 -2
BITMAP
0C00
0400
0580
7F00
0800
1020
2C70
77C0
C200
8E00
1200
2200
2000
30C0
0FC0
ENDCHAR
STARTCHAR 3093
ENCODING 10867
SWIDTH 1800 0
DWIDTH 18 0
BBX 14 13 2 -1
BITMAP
0200
0100
0200
0200
0400
0800
0800
1E00
3100
2104
4108
C1B0
00C0
ENDCHAR
STARTCHAR 30A1
ENCODING 11041
SWIDTH 1800 0
DWIDTH 18 0
BBX 10 9 4 -1
BITMAP
BFC0
41C0
0600
0C00
0800
0800
1000
1000
2000
ENDCHAR
STARTCHAR 30A2
ENCODING 11042
SWIDTH 1800 0
DWIDTH 18 0
BBX 13 13 3 -1
BITMAP
07F0
F830
4478
0380
0200
0600
0400
0400
0C00
0800
1000
1000
2000
ENDCHAR
STARTCHAR 30A3
ENCODING 11043
SWIDTH 1800 0
DWIDTH 18 0
BBX 7 11 5 -2
BITMAP
02
06
04
08
18
28
C8
08
08
08
08
ENDCHAR
STARTCHAR 30A4
ENCODING 11044
SWIDTH 1800 0
DWIDTH 18 0
BBX 9 14 5 -2
BITMAP
0100
0180
0300
0600
0C00
1C00
3400
6400
8400
0400
0400
0400
0400
0400
ENDCHAR
STARTCHAR 30A5
ENCODING 11045
SWIDTH 1800 0
DWIDTH 18 0
BBX 9 10 5 -2
BITMAP
1800
1000
FF00
8180
8100
8200
0200
0400
0800
1000
ENDCHAR
STARTCHAR 30A6
ENCODING 11046
SWIDTH 1800 0
DWIDTH 18 0
BBX 12 13 3 0
BITMAP
0400
0600
0400
FFF0
4030
4020
4060
4040
00C0
0080
0100
0200
0400
ENDCHAR
STARTCHAR 30A7
ENCODING 11047
SWIDTH 1800 0
DWIDTH 18 0
BBX 10 6 4 -1
BITMAP
4780
3800
0400
0400
0800
FFC0
ENDCHAR
STARTCHAR 30A8
ENCODING 11048
SWIDTH 1800 0
DWIDTH 18 0
BBX 14 9 2 1
BITMAP
0020
1FF0
0200
0100
0100
0100
0100
9FFC
6004
ENDCHAR
STARTCHAR 30A9
ENCODING 11049
SWIDTH 1800 0
DWIDTH 18 0
BBX 9 10 4 -2
BITMAP
0400
0400
1F80
EC00
1C00
1400
2400
4400
1C00
0400
ENDCHAR
STARTCHAR 30AA
ENCODING 11050
SWIDTH 1800 0
DWIDTH 18 0
BBX 13 13 3 -1
BITMAP
0100
0100
0100
FFF8
4300
0700
0D00
1900
3100
4100
8100
0300
0100
ENDCHAR
STARTCHAR 30AB
ENCODING 11051
SWIDTH 1800 0
DWIDTH 18 0
BBX 12 13 3 -1
BITMAP
0300
0300
0200
43E0
3E30
0420
0820
0820
1040
2040
44C0
8380
0100
ENDCHAR
STARTCHAR 30AC
ENCODING 11052
SWIDTH 1800 0
DWIDTH 18 0
BBX 14 13 4 -1
BITMAP
0600
060C
0414
0FD0
F860
0840
1040
3040
2080
4080
8900
0700
0200
ENDCHAR
STARTCHAR 30AD
ENCODING 11053
SWIDTH 1800 0
DWIDTH 18 0
BBX 12 13 3 -1
BITMAP
0C00
0800
05C0
0F00
7400
0230
03E0
0E00
F200
0100
0100
0100
0180
ENDCHAR
STARTCHAR 30AE
ENCODING 11054
SWIDTH 1800 0
DWIDTH 18 0
BBX 14 13 3 -1
BITMAP
0808
0814
05D0
0E00
7400
0430
03E0
0E00
F200
0100
0100
0100
0180
ENDCHAR
STARTCHAR 30AF
ENCODING 11055
SWIDTH 1800 0
DWIDTH 18 0
BBX 10 13 4 -1
BITMAP
0400
0CC0
0B40
10C0
2080
4100
0300
0200
0400
0800
1000
6000
8000
ENDCHAR
STARTCHAR 30B0
ENCODING 11056
SWIDTH 1800 0
DWIDTH 18 0
BBX 14 15 3 -2
BITMAP
0008
0404
0218
07E8
0C60
0840
10C0
6080
0100
0300
0600
0C00
1800
2000
C000
ENDCHAR
STARTCHAR 30B1
ENCODING 11057
SWIDTH 1800 0
DWIDTH 18 0
BBX 11 12 4 0
BITMAP
2000
1000
3000
61E0
5E00
8300
0200
0600
0400
0800
1000
2000
ENDCHAR
STARTCHAR 30B2
ENCODING 11058
SWIDTH 1800 0
DWIDTH 18 0
BBX 15 13 3 0
BITMAP
0008
1016
1808
1000
31F0
6F00
8100
0100
0200
0200
0400
0800
1000
ENDCHAR
STARTCHAR 30B3
ENCODING 11059
SWIDTH 1800 0
DWIDTH 18 0
BBX 10 8 4 2
BITMAP
8FC0
70C0
0080
0080
0080
0080
0100
FF80
ENDCHAR
STARTCHAR 30B4
ENCODING 11060
SWIDTH 1800 0
DWIDTH 18 0
BBX 13 11 4 1
BITMAP
0008
0020
0190
FEC0
00C0
0080
0080
0080
0080
FF80
4000
ENDCHAR
STARTCHAR 30B5
ENCODING 11061
SWIDTH 1800 0
DWIDTH 18 0
BBX 14 13 2 0
BITMAP
0080
1040
0840
0840
BFFC
6840
0840
0840
0880
0080
0080
0100
0200
ENDCHAR
STARTCHAR 30B6
ENCODING 11062
SWIDTH 1800 0
DWIDTH 18 0
BBX 15 13 2 0
BITMAP
0080
1042
084E
0844
BFFC
6840
0840
0840
0880
0080
0080
0100
0200
ENDCHAR
STARTCHAR 30B7
ENCODING 11063
SWIDTH 1800 0
DWIDTH 18 0
BBX 11 12 4 0
BITMAP
8000
6000
3000
0000
0020
C040
0080
0300
0600
1800
F000
6000
ENDCHAR
STARTCHAR 30B8
ENCODING 11064
SWIDTH 1800 0
DWIDTH 18 0
BBX 11 12 4 0
BITMAP
8000
6060
31A0
0080
0020
E040
2080
0100
0600
0C00
B000
6000
ENDCHAR
STARTCHAR 30B9
ENCODING 11065
SWIDTH 1800 0
DWIDTH 18 0
BBX 11 11 4 0
BITMAP
0180
7F80
2100
0200
0600
0400
0C00
1300
20C0
C060
0020
ENDCHAR
STARTCHAR 30BA
ENCODING 11066
SWIDTH 1800 0
DWIDTH 18 0
BBX 13 12 4 0
BITMAP
0058
0128
7F90
2100
0200
0600
0400
0C00
1300
60C0
8060
0020
ENDCHAR
STARTCHAR 30BB
ENCODING 11067
SWIDTH 1800 0
DWIDTH 18 0
BBX 13 12 2 0
BITMAP
0800
0400
0400
0400
05F8
0E30
F440
0400
0400
0400
0200
01F8
ENDCHAR
STARTCHAR 30BC
ENCODING 11068
SWIDTH 1800 0
DWIDTH 18 0
BBX 16 11 2 0
BITMAP
0403
0405
0406
05F0
0E38
F440
0400
0400
0400
0400
03F8
ENDCHAR
STARTCHAR 30BD
ENCODING 11069
SWIDTH 1800 0
DWIDTH 18 0
BBX 11 11 3 0
BITMAP
8060
4020
2060
3040
0080
0180
0100
0200
0400
0800
1000
ENDCHAR
STARTCHAR 30BE
ENCODING 11070
SWIDTH 1800 0
DWIDTH 18 0
BBX 15 13 3 0
BITMAP
0008
0016
8068
4020
2060
3040
0080
0180
0100
0200
0400
0800
1000
ENDCHAR
STARTCHAR 30BF
ENCODING 11071
SWIDTH 1800 0
DWIDTH 18 0
BBX 10 13 4 -1
BITMAP
0400
05C0
0A40
10C0
2180
5900
0700
0600
0400
0800
1000
2000
C000
ENDCHAR
STARTCHAR 30C0
ENCODING 11072
SWIDTH 1800 0
DWIDTH 18 0
BBX 14 13 4 -1
BITMAP
042C
04D4
0BD0
10C0
2180
5900
8700
0200
0400
0800
1000
2000
C000
ENDCHAR
STARTCHAR 30C1
ENCODING 11073
SWIDTH 1800 0
DWIDTH 18 0
BBX 12 13 3 -1
BITMAP
0180
0380
0C00
7200
0200
0FF0
F200
0200
0600
0400
0400
0800
0800
ENDCHAR
STARTCHAR 30C2
ENCODING 11074
SWIDTH 1800 0
DWIDTH 18 0
BBX 14 13 3 -1
BITMAP
0180
03AC
0C14
7200
0200
0FF0
F200
0200
0600
0400
0400
0800
1000
ENDCHAR
STARTCHAR 30C3
ENCODING 11075
SWIDTH 1800 0
DWIDTH 18 0
BBX 10 8 4 -1
BITMAP
1080
88C0
4880
4100
0300
0200
0400
0800
ENDCHAR
STARTCHAR 30C4
ENCODING 11076
SWIDTH 1800 0
DWIDTH 18 0
BBX 12 11 3 0
BITMAP
0820
8430
4420
4460
4040
0080
0180
0100
0200
0400
0800
ENDCHAR
STARTCHAR 30C5
ENCODING 11077
SWIDTH 1800 0
DWIDTH 18 0
BBX 15 12 3 0
BITMAP
0004
080A
8438
4430
4460
4040
00C0
0080
0100
0200
0400
0800
ENDCHAR
STARTCHAR 30C6
ENCODING 11078
SWIDTH 1800 0
DWIDTH 18 0
BBX 12 14 3 -2
BITMAP
27C0
1800
0000
0000
0FF0
F200
0200
0200
0600
0400
0C00
0800
1000
2000
ENDCHAR
STARTCHAR 30C7
ENCODING 11079
SWIDTH 1800 0
DWIDTH 18 0
BBX 15 14 3 -2
BITMAP
27C4
180A
0008
0000
0FF0
F200
0200
0200
0600
0400
0C00
0800
1000
2000
ENDCHAR
STARTCHAR 30C8
ENCODING 11080
SWIDTH 1800 0
DWIDTH 18 0
BBX 6 14 8 -2
BITMAP
80
80
80
80
80
C0
B0
8C
84
80
80
80
80
80
ENDCHAR
STARTCHAR 30C9
ENCODING 11081
SWIDTH 1800 0
DWIDTH 18 0
BBX 8 14 8 -1
BITMAP
80
80
82
89
84
C0
B0
8C
80
80
80
80
80
80
ENDCHAR
STARTCHAR 30CA
ENCODING 11082
SWIDTH 1800 0
DWIDTH 18 0
BBX 14 13 2 -1
BITMAP
0100
0100
0100
0100
8FFC
7100
0100
0100
0200
0200
0200
0400
0800
ENDCHAR
STARTCHAR 30CB
ENCODING 11083
SWIDTH 1800 0
DWIDTH 18 0
BBX 14 7 2 2
BITMAP
1FE0
0000
0000
0000
0000
FFFC
6004
ENDCHAR
STARTCHAR 30CC
ENCODING 11084
SWIDTH 1800 0
DWIDTH 18 0
BBX 9 12 5 0
BITMAP
0100
7F80
2180
0100
4200
3600
0C00
0E00
1300
2100
4000
8000
ENDCHAR
STARTCHAR 30CD
ENCODING 11085
SWIDTH 1800 0
DWIDTH 18 0
BBX 11 14 4 -2
BITMAP
0600
0200
0000
0780
7B00
0600
0C00
1480
2460
C420
0400
0400
0400
0400
ENDCHAR
STARTCHAR 30CE
ENCODING 11086
SWIDTH 1800 0
DWIDTH 18 0
BBX 10 13 4 -1
BITMAP
0100
0080
00C0
0180
0100
0200
0600
0400
0800
1000
2000
4000
8000
ENDCHAR
STARTCHAR 30CF
ENCODING 11087
SWIDTH 1800 0
DWIDTH 18 0
BBX 13 6 3 3
BITMAP
1000
1840
3020
2010
4018
8008
ENDCHAR
STARTCHAR 30D0
ENCODING 11088
SWIDTH 1800 0
DWIDTH 18 0
BBX 16 9 2 2
BITMAP
0006
000B
0804
0C20
1810
1018
200C
4004
8000
ENDCHAR
STARTCHAR 30D1
ENCODING 11089
SWIDTH 1800 0
DWIDTH 18 0
BBX 16 9 2 2
BITMAP
0006
0009
0806
0C20
1810
1018
200C
4004
8000
ENDCHAR
STARTCHAR 30D2
ENCODING 11090
SWIDTH 1800 0
DWIDTH 18 0
BBX 10 12 4 0
BITMAP
C000
4000
4000
4000
4F80
7000
4000
4000
4000
4000
2040
1FC0
ENDCHAR
STARTCHAR 30D3
ENCODING 11091
SWIDTH 1800 0
DWIDTH 18 0
BBX 12 12 4 0
BITMAP
C000
4010
4060
4020
4F80
7000
4000
4000
4000
4000
2040
1FC0
ENDCHAR
STARTCHAR 30D4
ENCODING 11092
SWIDTH 1800 0
DWIDTH 18 0
BBX 12 12 4 0
BITMAP
C070
4090
4070
4000
4F80
7000
4000
4000
4000
4000
2040
1FC0
ENDCHAR
STARTCHAR 30D5
ENCODING 11093
SWIDTH 1800 0
DWIDTH 18 0
BBX 12 11 3 0
BITMAP
00E0
FF30
6020
0060
0040
0080
0180
0100
0200
0400
0800
ENDCHAR
STARTCHAR 30D6
ENCODING 11094
SWIDTH 1800 0
DWIDTH 18 0
BBX 15 13 3 0
BITMAP
0004
000A
01E8
FE30
4060
0040
00C0
0080
0100
0300
0600
0800
1000
ENDCHAR
STARTCHAR 30D7
ENCODING 11095
SWIDTH 1800 0
DWIDTH 18 0
BBX 16 13 2 0
BITMAP
0006
0009
00F6
FF10
6020
0020
0040
00C0
0080
0100
0200
0400
0800
ENDCHAR
STARTCHAR 30D8
ENCODING 11096
SWIDTH 1800 0
DWIDTH 18 0
BBX 15 7 1 2
BITMAP
0600
1980
A040
6020
0018
000E
0002
ENDCHAR
STARTCHAR 30D9
ENCODING 11097
SWIDTH 1800 0
DWIDTH 18 0
BBX 15 9 1 2
BITMAP
0006
001A
0608
1980
A040
6020
0018
000E
0002
ENDCHAR
STARTCHAR 30DA
ENCODING 11098
SWIDTH 1800 0
DWIDTH 18 0
BBX 15 9 1 2
BITMAP
001E
0012
061E
1980
A040
4030
0018
000E
0002
ENDCHAR
STARTCHAR 30DB
ENCODING 11099
SWIDTH 1800 0
DWIDTH 18 0
BBX 12 13 3 -1
BITMAP
0400
0200
0200
0200
FFF0
0200
0200
4240
4220
C230
8210
0600
0200
ENDCHAR
STARTCHAR 30DC
ENCODING 11100
SWIDTH 1800 0
DWIDTH 18 0
BBX 15 13 2 -1
BITMAP
0400
0206
0208
0204
FFF0
0200
2200
2220
2210
6218
4208
0600
0200
ENDCHAR
STARTCHAR 30DD
ENCODING 11101
SWIDTH 1800 0
DWIDTH 18 0
BBX 13 14 3 -1
BITMAP
0038
0428
0238
0200
0200
7FF0
0200
0200
4240
4220
C230
8210
0600
0200
ENDCHAR
STARTCHAR 30DE
ENCODING 11102
SWIDTH 1800 0
DWIDTH 18 0
BBX 14 8 2 2
BITMAP
0078
9F8C
F018
0030
0440
0380
0300
0180
ENDCHAR
STARTCHAR 30DF
ENCODING 11103
SWIDTH 1800 0
DWIDTH 18 0
BBX 7 12 5 0
BITMAP
40
3C
06
00
00
38
0C
00
00
80
78
06
ENDCHAR
STARTCHAR 30E0
ENCODING 11104
SWIDTH 1800 0
DWIDTH 18 0
BBX 13 11 2 0
BITMAP
0100
0180
0300
0200
0600
0440
0820
0810
9078
7F88
2000
ENDCHAR
STARTCHAR 30E1
ENCODING 11105
SWIDTH 1800 0
DWIDTH 18 0
BBX 10 11 4 0
BITMAP
0040
00C0
0080
0180
0700
0200
0500
0880
1000
2000
C000
ENDCHAR
STARTCHAR 30E2
ENCODING 11106
SWIDTH 1800 0
DWIDTH 18 0
BBX 12 11 3 0
BITMAP
03C0
3C00
0400
0400
0430
9FD0
6400
0400
0400
0400
03F0
ENDCHAR
STARTCHAR 30E3
ENCODING 11107
SWIDTH 1800 0
DWIDTH 18 0
BBX 12 10 3 -2
BITMAP
1800
0800
0BF0
BC60
4480
0400
0400
0200
0200
0200
ENDCHAR
STARTCHAR 30E4
ENCODING 11108
SWIDTH 1800 0
DWIDTH 18 0
BBX 14 12 2 0
BITMAP
1800
0C00
0418
07EC
1E18
E220
0200
0200
0100
0100
0100
0180
ENDCHAR
STARTCHAR 30E5
ENCODING 11109
SWIDTH 1800 0
DWIDTH 18 0
BBX 11 7 3 -2
BITMAP
0100
1F80
0100
0100
0200
FFE0
4000
ENDCHAR
STARTCHAR 30E6
ENCODING 11110
SWIDTH 1800 0
DWIDTH 18 0
BBX 14 8 2 1
BITMAP
13C0
1C60
00C0
00C0
0080
0080
BFFC
E004
ENDCHAR
STARTCHAR 30E7
ENCODING 11111
SWIDTH 1800 0
DWIDTH 18 0
BBX 8 7 5 -1
BITMAP
7F
02
02
7E
02
02
FE
ENDCHAR
STARTCHAR 30E8
ENCODING 11112
SWIDTH 1800 0
DWIDTH 18 0
BBX 10 9 4 1
BITMAP
7FC0
00C0
00C0
0080
7F80
0080
0080
0080
FF80
ENDCHAR
STARTCHAR 30E9
ENCODING 11113
SWIDTH 1800 0
DWIDTH 18 0
BBX 12 13 3 -1
BITMAP
23C0
1C00
0000
01E0
FE70
0060
00C0
0080
0100
0300
0600
0800
1000
ENDCHAR
STARTCHAR 30EA
ENCODING 11114
SWIDTH 1800 0
DWIDTH 18 0
BBX 6 12 6 0
BITMAP
04
84
84
84
84
84
84
84
04
08
08
10
ENDCHAR
STARTCHAR 30EB
ENCODING 11115
SWIDTH 1800 0
DWIDTH 18 0
BBX 15 11 1 0
BITMAP
0180
18C0
0880
0880
0880
1082
108C
1090
20E0
40C0
8000
ENDCHAR
STARTCHAR 30EC
ENCODING 11116
SWIDTH 1800 0
DWIDTH 18 0
BBX 10 10 4 1
BITMAP
8000
4000
4000
4000
40C0
4100
4200
4C00
7800
6000
ENDCHAR
STARTCHAR 30ED
ENCODING 11117
SWIDTH 1800 0
DWIDTH 18 0
BBX 11 9 4 1
BITMAP
FFC0
4060
4040
4040
40C0
4080
4080
7F80
4000
ENDCHAR
STARTCHAR 30EE
ENCODING 11118
SWIDTH 1800 0
DWIDTH 18 0
BBX 9 9 5 -2
BITMAP
FF00
8180
8100
8200
8200
0400
0800
1000
2000
ENDCHAR
STARTCHAR 30EF
ENCODING 11119
SWIDTH 1800 0
DWIDTH 18 0
BBX 11 11 4 0
BITMAP
FFC0
8060
8040
80C0
8080
8100
0100
0200
0400
0800
1000
ENDCHAR
STARTCHAR 30F0
ENCODING 11120
SWIDTH 1800 0
DWIDTH 18 0
BBX 14 15 2 -2
BITMAP
0080
0080
0080
1FF0
0080
1880
0880
0880
9FFC
7080
0080
0080
0080
0080
0080
ENDCHAR
STARTCHAR 30F1
ENCODING 11121
SWIDTH 1800 0
DWIDTH 18 0
BBX 14 9 2 2
BITMAP
23E0
1C70
04C0
0300
0200
0200
0200
9FFC
600C
ENDCHAR
STARTCHAR 30F2
ENCODING 11122
SWIDTH 1800 0
DWIDTH 18 0
BBX 10 12 4 0
BITMAP
01C0
7E40
00C0
0080
BF80
E100
0100
0200
0400
0800
1000
2000
ENDCHAR
STARTCHAR 30F3
ENCODING 11123
SWIDTH 1800 0
DWIDTH 18 0
BBX 11 10 4 1
BITMAP
8000
6000
3000
0020
0040
0180
0200
0C00
B800
6000
ENDCHAR
STARTCHAR 30F4
ENCODING 11124
SWIDTH 1800 0
DWIDTH 18 0
BBX 15 14 3 -1
BITMAP
0400
0614
040A
FFF0
4030
4020
4060
4040
4040
0080
0100
0200
0400
0800
ENDCHAR
STARTCHAR 30F5
ENCODING 11125
SWIDTH 1800 0
DWIDTH 18 0
BBX 9 9 4 -1
BITMAP
0400
0400
4F80
3880
0880
1080
2100
4100
8600
ENDCHAR
STARTCHAR 30F6
ENCODING 11126
SWIDTH 1800 0
DWIDTH 18 0
BBX 9 9 5 -2
BITMAP
2000
2000
5F80
A400
0400
0800
1000
1000
2000
ENDCHAR
STARTCHAR 0410
ENCODING 11297
SWIDTH 1800 0
DWIDTH 18 0
BBX 13 12 2 0
BITMAP
0200
0500
0500
0900
0880
1080
1040
1FC0
2020
2020
4010
E078
ENDCHAR
STARTCHAR 0411
ENCODING 11298
SWIDTH 1800 0
DWIDTH 18 0
BBX 10 12 4 0
BITMAP
7FC0
20C0
2040
2040
2000
3F00
2080
2040
2040
2040
2080
FF00
ENDCHAR
STARTCHAR 0412
ENCODING 11299
SWIDTH 1800 0
DWIDTH 18 0
BBX 10 12 4 0
BITMAP
7F00
2180
2080
2080
2080
3F00
2080
2040
2040
2040
20C0
FF00
ENDCHAR
STARTCHAR 0413
ENCODING 11300
SWIDTH 1800 0
DWIDTH 18 0
BBX 11 12 4 0
BITMAP
FFC0
2060
2020
2000
2000
2000
2000
2000
2000
2000
2000
F000
ENDCHAR
STARTCHAR 0414
ENCODING 11301
SWIDTH 1800 0
DWIDTH 18 0
BBX 13 15 2 -3
BITMAP
1FF8
0420
0420
0420
0420
0820
0820
0820
1020
1020
2020
7FE0
4018
8008
8008
ENDCHAR
STARTCHAR 0415
ENCODING 11302
SWIDTH 1800 0
DWIDTH 18 0
BBX 10 12 5 0
BITMAP
FF80
4080
4000
4000
4100
7F00
4100
4100
4000
4040
4080
C180
ENDCHAR
STARTCHAR 0401
ENCODING 11303
SWIDTH 1800 0
DWIDTH 18 0
BBX 11 14 4 0
BITMAP
3100
2100
0000
FFC0
2040
2040
2000
2080
3F80
2080
2000
2020
2040
FFC0
ENDCHAR
STARTCHAR 0416
ENCODING 11304
SWIDTH 1800 0
DWIDTH 18 0
BBX 17 13 0 0
BITMAP
E00780
53E580
088800
088800
088800
049000
03F000
049800
0C9800
188C00
108400
308600
E3E300
ENDCHAR
STARTCHAR 0417
ENCODING 11305
SWIDTH 1800 0
DWIDTH 18 0
BBX 8 13 5 0
BITMAP
3C
42
81
01
03
06
3C
06
03
01
01
83
7E
ENDCHAR
STARTCHAR 0418
ENCODING 11306
SWIDTH 1800 0
DWIDTH 18 0
BBX 14 12 2 0
BITMAP
F87C
2010
2070
2050
2090
2110
2210
2410
2810
3010
2010
F87C
ENDCHAR
STARTCHAR 0419
ENCODING 11307
SWIDTH 1800 0
DWIDTH 18 0
BBX 12 13 3 0
BITMAP
1980
0F80
E070
4020
4060
40A0
4320
4420
4820
5020
6020
4020
F0F0
ENDCHAR
STARTCHAR 041A
ENCODING 11308
SWIDTH 1800 0
DWIDTH 18 0
BBX 12 12 3 0
BITMAP
F870
20B0
2100
2100
2200
2200
3C00
2300
2180
2080
2040
F870
ENDCHAR
STARTCHAR 041B
ENCODING 11309
SWIDTH 1800 0
DWIDTH 18 0
BBX 12 12 3 0
BITMAP
1FE0
0840
0840
0840
0840
0840
0840
0840
0840
1040
9040
E1F0
ENDCHAR
STARTCHAR 041C
ENCODING 11310
SWIDTH 1800 0
DWIDTH 18 0
BBX 17 13 0 0
BITMAP
E00380
300600
300600
280A00
280A00
241200
241200
222200
212200
214200
20C200
208200
F80F80
ENDCHAR
STARTCHAR 041D
ENCODING 11311
SWIDTH 1800 0
DWIDTH 18 0
BBX 14 12 2 0
BITMAP
F87C
2010
2010
2010
2010
3FF0
2010
2010
2010
2010
2010
F83C
ENDCHAR
STARTCHAR 041E
ENCODING 11312
SWIDTH 1800 0
DWIDTH 18 0
BBX 12 13 3 0
BITMAP
1F00
30C0
4020
4020
8010
8010
8010
8010
8010
4020
4020
30C0
1F00
ENDCHAR
STARTCHAR 041F
ENCODING 11313
SWIDTH 1800 0
DWIDTH 18 0
BBX 14 12 2 0
BITMAP
FFF8
2010
2010
2010
2010
2010
2010
2010
2010
2010
2010
783C
ENDCHAR
STARTCHAR 0420
ENCODING 11314
SWIDTH 1800 0
DWIDTH 18 0
BBX 10 12 4 0
BITMAP
7F00
2080
2040
2040
2040
2080
3F00
2000
2000
2000
2000
F800
ENDCHAR
STARTCHAR 0421
ENCODING 11315
SWIDTH 1800 0
DWIDTH 18 0
BBX 11 13 4 -1
BITMAP
1FE0
6020
4020
8000
8000
8000
8000
8000
8000
4000
2000
19C0
0600
ENDCHAR
STARTCHAR 0422
ENCODING 11316
SWIDTH 1800 0
DWIDTH 18 0
BBX 11 12 3 0
BITMAP
FFE0
8420
0420
0400
0400
0400
0400
0400
0400
0400
0400
0E00
ENDCHAR
STARTCHAR 0423
ENCODING 11317
SWIDTH 1800 0
DWIDTH 18 0
BBX 12 12 3 0
BITMAP
E030
2020
2020
1040
1080
0880
0900
0500
0600
0200
2400
7800
ENDCHAR
STARTCHAR 0424
ENCODING 11318
SWIDTH 1800 0
DWIDTH 18 0
BBX 12 12 3 0
BITMAP
0F80
1E00
6380
C260
8210
8210
8210
4230
6260
1FC0
0200
0F00
ENDCHAR
STARTCHAR 0425
ENCODING 11319
SWIDTH 1800 0
DWIDTH 18 0
BBX 13 12 2 0
BITMAP
3C78
1010
0820
0840
0480
0300
0300
0480
0840
1040
2020
E078
ENDCHAR
STARTCHAR 0426
ENCODING 11320
SWIDTH 1800 0
DWIDTH 18 0
BBX 13 15 2 -3
BITMAP
78F8
2020
2020
2020
2020
2020
2020
2020
2020
2020
2020
FFF0
0008
0008
0008
ENDCHAR
STARTCHAR 0427
ENCODING 11321
SWIDTH 1800 0
DWIDTH 18 0
BBX 12 12 3 0
BITMAP
F9F0
2040
2040
2040
2040
2040
2040
11C0
0E40
0040
0040
00F0
ENDCHAR
STARTCHAR 0428
ENCODING 11322
SWIDTH 1800 0
DWIDTH 18 0
BBX 16 12 1 0
BITMAP
E387
4102
4102
4102
4102
4102
4102
4102
4102
4102
4102
C103
ENDCHAR
STARTCHAR 0429
ENCODING 11323
SWIDTH 1800 0
DWIDTH 18 0
BBX 16 15 1 -3
BITMAP
FFDE
2104
2104
2104
2104
2104
2104
2104
2104
2104
2104
FFFC
0003
0001
0001
ENDCHAR
STARTCHAR 042A
ENCODING 11324
SWIDTH 1800 0
DWIDTH 18 0
BBX 13 12 2 0
BITMAP
7E00
C400
8400
8400
0400
07E0
0418
0408
0408
0408
0430
1FE0
ENDCHAR
STARTCHAR 042B
ENCODING 11325
SWIDTH 1800 0
DWIDTH 18 0
BBX 16 12 1 0
BITMAP
F01F
2004
2004
2004
2004
3F04
2084
2044
2044
2044
20C4
FF1E
ENDCHAR
STARTCHAR 042C
ENCODING 11326
SWIDTH 1800 0
DWIDTH 18 0
BBX 9 13 5 -1
BITMAP
E000
4000
4000
4000
4000
7800
4700
4080
4080
4080
4180
C600
3800
ENDCHAR
STARTCHAR 042D
ENCODING 11327
SWIDTH 1800 0
DWIDTH 18 0
BBX 11 13 3 0
BITMAP
9F00
E080
8040
8020
0020
0020
0FE0
0020
0020
0020
0040
40C0
3F00
ENDCHAR
STARTCHAR 042E
ENCODING 11328
SWIDTH 1800 0
DWIDTH 18 0
BBX 16 14 1 -1
BITMAP
0078
F884
2102
2102
2201
2201
3E01
2201
2201
2201
2102
2102
F884
0078
ENDCHAR
STARTCHAR 042F
ENCODING 11329
SWIDTH 1800 0
DWIDTH 18 0
BBX 12 12 3 0
BITMAP
0FF0
3040
2040
2040
3040
1FC0
0440
0840
1040
1040
2040
C0E0
ENDCHAR
STARTCHAR 0430
ENCODING 11345
SWIDTH 1800 0
DWIDTH 18 0
BBX 8 8 5 0
BITMAP
7C
84
84
1C
64
84
84
FF
ENDCHAR
STARTCHAR 0431
ENCODING 11346
SWIDTH 1800 0
DWIDTH 18 0
BBX 8 12 5 0
BITMAP
1F
20
40
B8
C6
82
81
81
81
C3
42
3C
ENDCHAR
STARTCHAR 0432
ENCODING 11347
SWIDTH 1800 0
DWIDTH 18 0
BBX 6 8 6 0
BITMAP
F8
44
44
78
44
44
44
FC
ENDCHAR
STARTCHAR 0433
ENCODING 11348
SWIDTH 1800 0
DWIDTH 18 0
BBX 7 8 6 0
BITMAP
FC
42
42
40
40
40
40
E0
ENDCHAR
STARTCHAR 0434
ENCODING 11349
SWIDTH 1800 0
DWIDTH 18 0
BBX 10 10 4 -2
BITMAP
3FC0
1100
1100
1100
2100
2100
4100
7F00
80C0
0040
ENDCHAR
STARTCHAR 0435
ENCODING 11350
SWIDTH 1800 0
DWIDTH 18 0
BBX 7 8 5 0
BITMAP
7C
42
FE
80
80
C0
42
3C
ENDCHAR
STARTCHAR 0451
ENCODING 11351
SWIDTH 1800 0
DWIDTH 18 0
BBX 7 11 5 0
BITMAP
24
24
00
7C
42
7E
80
C0
40
42
3C
ENDCHAR
STARTCHAR 0436
ENCODING 11352
SWIDTH 1800 0
DWIDTH 18 0
BBX 12 9 3 -1
BITMAP
CE60
2480
2500
1F00
2480
2480
4440
CE60
0010
ENDCHAR
STARTCHAR 0437
ENCODING 11353
SWIDTH 1800 0
DWIDTH 18 0
BBX 6 9 6 -1
BITMAP
F8
84
04
38
0C
04
04
8C
70
ENDCHAR
STARTCHAR 0438
ENCODING 11354
SWIDTH 1800 0
DWIDTH 18 0
BBX 8 8 5 0
BITMAP
EF
42
42
4E
52
62
42
E7
ENDCHAR
STARTCHAR 0439
ENCODING 11355
SWIDTH 1800 0
DWIDTH 18 0
BBX 8 11 5 0
BITMAP
66
66
18
EF
42
42
4E
52
62
42
E7
ENDCHAR
STARTCHAR 043A
ENCODING 11356
SWIDTH 1800 0
DWIDTH 18 0
BBX 7 8 5 0
BITMAP
E6
48
50
70
48
48
44
66
ENDCHAR
STARTCHAR 043B
ENCODING 11357
SWIDTH 1800 0
DWIDTH 18 0
BBX 9 9 4 -1
BITMAP
7F80
1100
1100
1100
1100
1100
1100
E780
C000
ENDCHAR
STARTCHAR 043C
ENCODING 11358
SWIDTH 1800 0
DWIDTH 18 0
BBX 12 8 3 0
BITMAP
C030
6060
50A0
50A0
4920
4A20
4620
E070
ENDCHAR
STARTCHAR 043D
ENCODING 11359
SWIDTH 1800 0
DWIDTH 18 0
BBX 9 8 4 0
BITMAP
F380
2100
2100
3F00
2100
2100
2100
7380
ENDCHAR
STARTCHAR 043E
ENCODING 11360
SWIDTH 1800 0
DWIDTH 18 0
BBX 8 8 5 0
BITMAP
3C
42
81
81
81
81
42
3C
ENDCHAR
STARTCHAR 043F
ENCODING 11361
SWIDTH 1800 0
DWIDTH 18 0
BBX 8 8 5 0
BITMAP
FF
42
42
42
42
42
42
E7
ENDCHAR
STARTCHAR 0440
ENCODING 11362
SWIDTH 1800 0
DWIDTH 18 0
BBX 9 12 4 -3
BITMAP
6E00
3F00
2180
2080
2080
2080
2080
2100
3E00
2000
2000
F800
ENDCHAR
STARTCHAR 0441
ENCODING 11363
SWIDTH 1800 0
DWIDTH 18 0
BBX 7 9 5 -1
BITMAP
1C
22
42
80
80
80
40
42
3C
ENDCHAR
STARTCHAR 0442
ENCODING 11364
SWIDTH 1800 0
DWIDTH 18 0
BBX 9 8 4 0
BITMAP
7F80
8880
0800
0800
0800
0800
0800
3E00
ENDCHAR
STARTCHAR 0443
ENCODING 11365
SWIDTH 1800 0
DWIDTH 18 0
BBX 8 12 5 -4
BITMAP
E3
42
42
24
24
14
18
08
10
10
E0
40
ENDCHAR
STARTCHAR 0444
ENCODING 11366
SWIDTH 1800 0
DWIDTH 18 0
BBX 11 16 3 -3
BITMAP
0400
0C00
0400
0400
0400
7FC0
4440
C420
C420
C420
C440
4440
6680
1D00
0400
0E00
ENDCHAR
STARTCHAR 0445
ENCODING 11367
SWIDTH 1800 0
DWIDTH 18 0
BBX 8 8 5 0
BITMAP
E7
24
38
10
28
24
44
C6
ENDCHAR
STARTCHAR 0446
ENCODING 11368
SWIDTH 1800 0
DWIDTH 18 0
BBX 10 10 4 -2
BITMAP
FFC0
2100
2100
2100
2100
2100
2100
6100
1EC0
0040
ENDCHAR
STARTCHAR 0447
ENCODING 11369
SWIDTH 1800 0
DWIDTH 18 0
BBX 9 8 5 0
BITMAP
EF80
4200
4200
4200
6E00
1200
0200
0700
ENDCHAR
STARTCHAR 0448
ENCODING 11370
SWIDTH 1800 0
DWIDTH 18 0
BBX 16 9 1 -1
BITMAP
FBFF
2084
2084
2084
2084
2084
2084
6086
1F78
ENDCHAR
STARTCHAR 0449
ENCODING 11371
SWIDTH 1800 0
DWIDTH 18 0
BBX 15 11 1 -3
BITMAP
FFFE
2108
2108
2108
2108
2108
2108
7FF8
0006
0002
0002
ENDCHAR
STARTCHAR 044A
ENCODING 11372
SWIDTH 1800 0
DWIDTH 18 0
BBX 9 8 5 0
BITMAP
FC00
9000
1000
1F00
1180
1080
1180
3F00
ENDCHAR
STARTCHAR 044B
ENCODING 11373
SWIDTH 1800 0
DWIDTH 18 0
BBX 13 9 3 -1
BITMAP
F0F8
4020
4020
7820
4620
4220
4220
CC70
3000
ENDCHAR
STARTCHAR 044C
ENCODING 11374
SWIDTH 1800 0
DWIDTH 18 0
BBX 7 9 6 -1
BITMAP
F0
40
40
78
46
42
42
CC
30
ENDCHAR
STARTCHAR 044D
ENCODING 11375
SWIDTH 1800 0
DWIDTH 18 0
BBX 7 8 6 0
BITMAP
FC
82
02
1E
02
02
84
78
ENDCHAR
STARTCHAR 044E
ENCODING 11376
SWIDTH 1800 0
DWIDTH 18 0
BBX 13 9 2 -1
BITMAP
F9E0
2210
2408
2408
3C08
2408
2210
7120
00C0
ENDCHAR
STARTCHAR 044F
ENCODING 11377
SWIDTH 1800 0
DWIDTH 18 0
BBX 7 8 6 0
BITMAP
7E
C4
C4
64
3C
24
44
8E
ENDCHAR
STARTCHAR AC00
ENCODING 12321
SWIDTH 1800 0
DWIDTH 18 0
BBX 15 15 2 -2
BITMAP
0030
0010
0010
FF10
0210
0210
0410
041E
0810
1010
2010
4010
8010
0010
0010
ENDCHAR
STARTCHAR AC01
ENCODING 12322
SWIDTH 1800 0
DWIDTH 18 0
BBX 15 15 2 -2
BITMAP
0030
0010
FF10
0210
0410
0C16
0818
1010
6010
9FF0
0010
0010
0010
0010
0010
ENDCHAR
STARTCHAR AC04
ENCODING 12323
SWIDTH 1800 0
DWIDTH 18 0
BBX 15 15 2 -2
BITMAP
0030
0010
FF10
0210
0410
0410
0816
1018
2010
4010
1C10
0400
0400
0408
07FC
ENDCHAR
STARTCHAR AC07
ENCODING 12324
SWIDTH 1800 0
DWIDTH 18 0
BBX 15 15 2 -2
BITMAP
0030
0010
FE10
0210
0410
0812
181C
3010
4010
8030
1FF0
0800
0800
0800
0FF8
ENDCHAR
STARTCHAR AC08
ENCODING 12325
SWIDTH 1800 0
DWIDTH 18 0
BBX 15 15 2 -2
BITMAP
0030
0010
FF10
0210
0410
0C12
081C
1010
6010
9FF0
0020
0020
0FF0
0800
0FF8
ENDCHAR
STARTCHAR AC09
ENCODING 12326
SWIDTH 1800 0
DWIDTH 18 0
BBX 15 16 2 -3
BITMAP
0030
0010
FF10
0210
0410
041E
0810
1010
3EF0
C210
0210
3E10
1010
1110
1E10
0010
ENDCHAR
STARTCHAR AC0A
ENCODING 12327
SWIDTH 1800 0
DWIDTH 18 0
BBX 15 15 2 -2
BITMAP
0030
0010
7F10
0210
0610
041E
0810
1010
6210
9EF8
0290
7E90
2090
20F0
3C80
ENDCHAR
STARTCHAR AC10
ENCODING 12328
SWIDTH 1800 0
DWIDTH 18 0
BBX 15 17 2 -3
BITMAP
0040
0030
0010
FF10
0210
0410
0C1E
0810
1010
6010
8000
0FF0
0410
0410
0420
07F0
0400
ENDCHAR
STARTCHAR AC11
ENCODING 12329
SWIDTH 1800 0
DWIDTH 18 0
BBX 15 17 2 -3
BITMAP
0060
0030
0010
FF10
0210
0410
041E
0810
1010
2000
C810
0410
07F0
0410
0410
07F0
0410
ENDCHAR
STARTCHAR AC12
ENCODING 12330
SWIDTH 1800 0
DWIDTH 18 0
BBX 15 17 2 -3
BITMAP
0040
0030
0010
FF10
0210
0410
0C1E
0810
1010
6000
B230
1220
1E20
1250
1248
1E84
1200
ENDCHAR
STARTCHAR AC13
ENCODING 12331
SWIDTH 1800 0
DWIDTH 18 0
BBX 15 15 2 -2
BITMAP
0020
0010
FF10
0210
0410
0412
081C
1010
2010
C190
0180
0140
0220
0418
1808
ENDCHAR
STARTCHAR AC14
ENCODING 12332
SWIDTH 1800 0
DWIDTH 18 0
BBX 15 16 2 -2
BITMAP
0060
0030
0010
FF10
0210
0410
0C12
081C
1010
6010
8C20
0420
0C20
1250
2088
4108
ENDCHAR
STARTCHAR AC15
ENCODING 12333
SWIDTH 1800 0
DWIDTH 18 0
BBX 15 16 2 -3
BITMAP
0020
0010
FF10
0210
0410
0C16
0818
1010
6010
8090
01C0
0630
0410
0410
0220
01C0
ENDCHAR
STARTCHAR AC16
ENCODING 12334
SWIDTH 1800 0
DWIDTH 18 0
BBX 15 16 2 -2
BITMAP
0060
0030
0010
FF10
0210
0410
0C16
0818
1010
6010
8030
1FC0
0100
02C0
0430
1818
ENDCHAR
STARTCHAR AC17
ENCODING 12335
SWIDTH 1800 0
DWIDTH 18 0
BBX 16 16 2 -3
BITMAP
0030
0010
FF10
0210
0610
0C1F
0810
3010
43C0
0000
3FF8
0180
0140
0630
0808
3000
ENDCHAR
STARTCHAR AC19
ENCODING 12336
SWIDTH 1800 0
DWIDTH 18 0
BBX 15 17 2 -3
BITMAP
0060
0030
0010
FF10
0210
0610
0C16
0818
1010
2010
C020
0FE0
0800
0FE0
0800
0800
07F0
ENDCHAR
STARTCHAR AC1A
ENCODING 12337
SWIDTH 1800 0
DWIDTH 18 0
BBX 15 17 2 -3
BITMAP
0060
0030
0010
FF10
0210
0610
0C12
081C
1010
2010
C000
1FF0
0060
0440
0440
3FF8
1800
ENDCHAR
STARTCHAR AC1B
ENCODING 12338
SWIDTH 1800 0
DWIDTH 18 0
BBX 15 15 2 -2
BITMAP
0030
0010
7F10
0110
0210
0416
0818
1010
2010
C3C8
1F30
01C0
0220
0220
03C0
ENDCHAR
STARTCHAR AC1C
ENCODING 12339
SWIDTH 1800 0
DWIDTH 18 0
BBX 13 16 2 -2
BITMAP
0030
0108
0088
0088
CC88
3488
0888
0888
18F8
1088
2088
4088
8088
0088
0088
0088
ENDCHAR
STARTCHAR AC1D
ENCODING 12340
SWIDTH 1800 0
DWIDTH 18 0
BBX 11 16 3 -3
BITMAP
0360
0120
0D20
F920
0920
11E0
3120
2120
4120
8000
7FE0
0020
0020
0020
0020
0020
ENDCHAR
STARTCHAR AC20
ENCODING 12341
SWIDTH 1800 0
DWIDTH 18 0
BBX 13 15 2 -2
BITMAP
0030
0190
00D0
FE90
0490
0C90
0890
10F0
2090
4090
B890
0890
0810
0800
0FF8
ENDCHAR
STARTCHAR AC24
ENCODING 12342
SWIDTH 1800 0
DWIDTH 18 0
BBX 13 15 3 -2
BITMAP
0060
0320
0D20
F920
0920
1120
31E0
2120
4120
9FE0
0020
0040
0FE0
0800
0FF8
ENDCHAR
STARTCHAR AC2C
ENCODING 12343
SWIDTH 1800 0
DWIDTH 18 0
BBX 11 16 3 -3
BITMAP
0060
0320
0D20
F920
0920
1120
31E0
2120
4120
8120
1FE0
0820
0820
0840
0FE0
0800
ENDCHAR
STARTCHAR AC2D
ENCODING 12344
SWIDTH 1800 0
DWIDTH 18 0
BBX 11 16 3 -3
BITMAP
0060
0320
0D20
F920
0920
1120
31E0
2120
4120
9160
0820
0FE0
0820
0820
0FE0
0820
ENDCHAR
STARTCHAR AC2F
ENCODING 12345
SWIDTH 1800 0
DWIDTH 18 0
BBX 14 15 2 -2
BITMAP
0098
0048
0048
7C48
0448
0848
1878
1048
6048
80C8
00C8
00C0
0130
0208
0C04
ENDCHAR
STARTCHAR AC30
ENCODING 12346
SWIDTH 1800 0
DWIDTH 18 0
BBX 15 16 2 -2
BITMAP
0030
00C8
0048
FE48
0448
0448
0878
1048
2048
4068
0610
0410
0630
0928
1044
2082
ENDCHAR
STARTCHAR AC31
ENCODING 12347
SWIDTH 1800 0
DWIDTH 18 0
BBX 12 16 3 -3
BITMAP
0060
0330
0120
F920
0920
1120
31E0
2120
4120
80A0
03E0
0630
0410
0410
0630
01E0
ENDCHAR
STARTCHAR AC38
ENCODING 12348
SWIDTH 1800 0
DWIDTH 18 0
BBX 15 16 2 -3
BITMAP
0060
0010
0010
FF10
0210
0216
0418
0410
0810
1010
201E
4010
8010
0010
0010
0010
ENDCHAR
STARTCHAR AC39
ENCODING 12349
SWIDTH 1800 0
DWIDTH 18 0
BBX 15 15 2 -2
BITMAP
0070
0010
FF10
0210
041E
0410
0810
1012
201C
FFF0
0810
0010
0010
0010
0010
ENDCHAR
STARTCHAR AC3C
ENCODING 12350
SWIDTH 1800 0
DWIDTH 18 0
BBX 15 15 2 -2
BITMAP
0030
0010
7F10
0310
021E
0410
0C10
0810
1016
6018
9C10
0410
0400
0408
07FC
ENDCHAR
STARTCHAR AC40
ENCODING 12351
SWIDTH 1800 0
DWIDTH 18 0
BBX 16 16 2 -2
BITMAP
0040
0030
0010
FF10
0212
061C
0410
0810
101F
2010
DFF0
0010
0010
0FF0
0800
0FF8
ENDCHAR
STARTCHAR AC4B
ENCODING 12352
SWIDTH 1800 0
DWIDTH 18 0
BBX 15 15 2 -2
BITMAP
0030
0010
7F10
0212
041C
0C10
0810
101E
2110
C090
0190
0340
0630
0818
1008
ENDCHAR
STARTCHAR AC4D
ENCODING 12353
SWIDTH 1800 0
DWIDTH 18 0
BBX 16 15 1 -2
BITMAP
0038
0008
7F88
0108
020F
0608
0408
0808
104F
61E8
8210
0210
0210
0330
01E0
ENDCHAR
STARTCHAR AC54
ENCODING 12354
SWIDTH 1800 0
DWIDTH 18 0
BBX 13 16 2 -2
BITMAP
0020
0118
0088
0088
FE88
0488
0CF8
0888
1088
1088
20F8
4088
8088
0088
0088
0008
ENDCHAR
STARTCHAR AC58
ENCODING 12355
SWIDTH 1800 0
DWIDTH 18 0
BBX 14 16 1 -2
BITMAP
0018
0184
0044
0044
7E44
067C
0444
0844
187C
1044
6044
9C44
0404
0400
0400
07FC
ENDCHAR
STARTCHAR AC5C
ENCODING 12356
SWIDTH 1800 0
DWIDTH 18 0
BBX 14 15 2 -2
BITMAP
0018
0188
0088
7C88
04F8
0888
10F8
2088
4FF8
8008
0010
0FF8
0400
0400
07FC
ENDCHAR
STARTCHAR AC70
ENCODING 12357
SWIDTH 1800 0
DWIDTH 18 0
BBX 13 16 2 -2
BITMAP
0070
0038
0018
0010
7F10
0310
0210
07F0
0410
0818
1010
2010
4010
8010
0010
0010
ENDCHAR
STARTCHAR AC71
ENCODING 12358
SWIDTH 1800 0
DWIDTH 18 0
BBX 11 15 3 -2
BITMAP
0060
0020
FE20
0420
0820
0BE0
1020
2020
4020
FFE0
1020
0020
0020
0020
0020
ENDCHAR
STARTCHAR AC74
ENCODING 12359
SWIDTH 1800 0
DWIDTH 18 0
BBX 14 15 2 -2
BITMAP
0030
0010
7F10
0310
0210
0410
0FF0
0810
1010
6010
9C10
0410
0400
0408
07FC
ENDCHAR
STARTCHAR AC77
ENCODING 12360
SWIDTH 1800 0
DWIDTH 18 0
BBX 13 15 2 -2
BITMAP
0030
0010
7F10
0110
0210
07F0
0410
0810
1010
6018
8FF8
0400
0400
0408
07F8
ENDCHAR
STARTCHAR AC78
ENCODING 12361
SWIDTH 1800 0
DWIDTH 18 0
BBX 14 15 2 -2
BITMAP
0030
0010
7F10
0310
03F0
0410
0810
1010
2010
4FF0
8010
0010
0FF0
0400
07FC
ENDCHAR
STARTCHAR AC7A
ENCODING 12362
SWIDTH 1800 0
DWIDTH 18 0
BBX 12 16 3 -3
BITMAP
00E0
0020
FE20
0620
0420
0BE0
1820
2020
4020
8020
7FF0
0520
7D20
2120
2DE0
1100
ENDCHAR
STARTCHAR AC80
ENCODING 12363
SWIDTH 1800 0
DWIDTH 18 0
BBX 13 16 2 -3
BITMAP
0070
0010
FF10
0310
0210
05F0
0810
1010
2010
4010
8FF8
0410
0410
0410
07F0
0400
ENDCHAR
STARTCHAR AC81
ENCODING 12364
SWIDTH 1800 0
DWIDTH 18 0
BBX 12 16 2 -3
BITMAP
0030
0010
FF10
0310
0210
05F0
0810
1010
2010
4C10
8410
07F0
0410
0410
07F0
0410
ENDCHAR
STARTCHAR AC83
ENCODING 12365
SWIDTH 1800 0
DWIDTH 18 0
BBX 13 15 2 -2
BITMAP
0030
0010
FF10
0310
0210
05F0
0810
1010
2010
4190
8180
0140
0220
0418
1808
ENDCHAR
STARTCHAR AC84
ENCODING 12366
SWIDTH 1800 0
DWIDTH 18 0
BBX 14 15 2 -2
BITMAP
0030
FF10
0210
0410
07F0
0810
1010
2010
4020
0610
0420
0A30
1948
208C
4100
ENDCHAR
STARTCHAR AC85
ENCODING 12367
SWIDTH 1800 0
DWIDTH 18 0
BBX 12 16 2 -3
BITMAP
0030
0010
FF10
0310
0210
05F0
0810
1010
2010
4010
80C0
0330
0210
0210
0330
01E0
ENDCHAR
STARTCHAR AC86
ENCODING 12368
SWIDTH 1800 0
DWIDTH 18 0
BBX 13 16 3 -3
BITMAP
0060
0020
FE20
0420
0820
0BE0
1020
2020
4030
BFF0
0100
0380
0640
0830
1018
2000
ENDCHAR
STARTCHAR AC89
ENCODING 12369
SWIDTH 1800 0
DWIDTH 18 0
BBX 13 16 2 -3
BITMAP
0030
0010
FF10
0210
0210
05F0
0810
1010
2010
4010
87F8
0410
07F0
0400
07F8
0300
ENDCHAR
STARTCHAR AC8A
ENCODING 12370
SWIDTH 1800 0
DWIDTH 18 0
BBX 14 15 2 -2
BITMAP
0030
0010
7F10
0310
0210
05F0
0810
1010
2018
5FF8
8060
0420
0220
0240
3FFC
ENDCHAR
STARTCHAR AC8B
ENCODING 12371
SWIDTH 1800 0
DWIDTH 18 0
BBX 13 15 2 -2
BITMAP
0030
0010
7F10
0210
0410
0DF0
0810
1010
6010
81D8
1FA0
0160
0220
0220
01C0
ENDCHAR
STARTCHAR AC8C
ENCODING 12372
SWIDTH 1800 0
DWIDTH 18 0
BBX 12 16 3 -2
BITMAP
0060
0030
0190
0090
FC90
0890
0890
1F90
1090
2090
4090
8090
0090
0090
0090
0010
ENDCHAR
STARTCHAR AC90
ENCODING 12373
SWIDTH 1800 0
DWIDTH 18 0
BBX 13 15 2 -2
BITMAP
0198
0088
0088
FC88
0888
0F88
1088
2088
4088
8088
3888
0808
0800
0800
0FF8
ENDCHAR
STARTCHAR AC94
ENCODING 12374
SWIDTH 1800 0
DWIDTH 18 0
BBX 13 16 3 -3
BITMAP
0030
0190
0490
7C90
0890
1F90
1090
2090
4090
9FF0
0020
0020
1FF0
0800
0800
0FF8
ENDCHAR
STARTCHAR AC9C
ENCODING 12375
SWIDTH 1800 0
DWIDTH 18 0
BBX 12 16 3 -3
BITMAP
0030
0110
0090
FC90
0C90
0890
1790
1090
2090
4080
9FE0
0820
0820
0840
0FE0
0800
ENDCHAR
STARTCHAR AC9D
ENCODING 12376
SWIDTH 1800 0
DWIDTH 18 0
BBX 12 16 3 -3
BITMAP
01B0
0090
FC90
0490
0890
0F90
1090
2090
4090
8830
0430
07E0
0420
0420
07E0
0420
ENDCHAR
STARTCHAR AC9F
ENCODING 12377
SWIDTH 1800 0
DWIDTH 18 0
BBX 13 16 3 -3
BITMAP
0030
0190
0490
7C90
0890
1F90
1090
2090
4090
8310
0110
0380
0640
0C30
1008
2000
ENDCHAR
STARTCHAR ACA0
ENCODING 12378
SWIDTH 1800 0
DWIDTH 18 0
BBX 14 15 2 -2
BITMAP
0018
00C8
0048
3E48
0448
07C8
0848
1048
2048
4038
8610
0430
0E30
094C
3084
ENDCHAR
STARTCHAR ACA1
ENCODING 12379
SWIDTH 1800 0
DWIDTH 18 0
BBX 13 15 2 -2
BITMAP
0318
0088
FC88
0488
0888
1F88
1088
2088
4088
83E0
0630
0410
0410
0630
01E0
ENDCHAR
STARTCHAR ACA8
ENCODING 12380
SWIDTH 1800 0
DWIDTH 18 0
BBX 12 16 2 -3
BITMAP
0070
0010
CF10
3310
03F0
0610
0410
0810
13F0
2010
4010
8010
0010
0010
0010
0010
ENDCHAR
STARTCHAR ACA9
ENCODING 12381
SWIDTH 1800 0
DWIDTH 18 0
BBX 13 16 2 -2
BITMAP
0030
0018
0008
7F08
02F8
0208
0408
0DF8
1808
2008
5FF0
8810
0010
0010
0010
0010
ENDCHAR
STARTCHAR ACAA
ENCODING 12382
SWIDTH 1800 0
DWIDTH 18 0
BBX 12 16 3 -2
BITMAP
0060
0030
0010
FE10
05F0
0810
0810
13F0
2020
4000
86F0
3D20
0420
0420
0420
0420
ENDCHAR
STARTCHAR ACAC
ENCODING 12383
SWIDTH 1800 0
DWIDTH 18 0
BBX 14 15 2 -2
BITMAP
0070
0010
7F10
0310
03F0
0410
0C10
0810
11F0
6010
9C10
0410
0400
0408
07FC
ENDCHAR
STARTCHAR ACAF
ENCODING 12384
SWIDTH 1800 0
DWIDTH 18 0
BBX 13 15 3 -2
BITMAP
0030
0010
FE10
0210
05F0
0C10
0810
13F0
6010
8030
1FF0
0800
0800
0810
07F8
ENDCHAR
STARTCHAR ACB0
ENCODING 12385
SWIDTH 1800 0
DWIDTH 18 0
BBX 14 16 2 -2
BITMAP
0060
0030
0010
7F10
01F0
0210
0410
0FF0
0810
1010
6FF8
8010
0010
0FF8
0400
07FC
ENDCHAR
STARTCHAR ACB8
ENCODING 12386
SWIDTH 1800 0
DWIDTH 18 0
BBX 12 17 2 -3
BITMAP
0060
0030
0010
7F10
03F0
0210
0410
0810
11F0
2010
4FF0
8410
0410
0410
0420
07F0
0400
ENDCHAR
STARTCHAR ACB9
ENCODING 12387
SWIDTH 1800 0
DWIDTH 18 0
BBX 12 17 2 -3
BITMAP
0060
0030
0010
7F10
03F0
0210
0410
0810
11F0
2010
4C10
8410
07F0
0410
0410
07F0
0410
ENDCHAR
STARTCHAR ACBB
ENCODING 12388
SWIDTH 1800 0
DWIDTH 18 0
BBX 13 16 2 -3
BITMAP
0030
0010
FE10
0210
05F0
0810
1010
21F0
4010
8090
0090
01C0
0320
0418
0808
1000
ENDCHAR
STARTCHAR ACBC
ENCODING 12389
SWIDTH 1800 0
DWIDTH 18 0
BBX 14 17 2 -3
BITMAP
0060
0030
0010
7F10
03F0
0210
0410
0810
10F0
2010
4820
8430
0C20
0A50
1188
210C
4000
ENDCHAR
STARTCHAR ACBD
ENCODING 12390
SWIDTH 1800 0
DWIDTH 18 0
BBX 12 17 2 -3
BITMAP
0060
0030
0010
7F10
03F0
0210
0410
0810
11F0
2010
4010
8040
01A0
0210
0210
0330
01E0
ENDCHAR
STARTCHAR ACC1
ENCODING 12391
SWIDTH 1800 0
DWIDTH 18 0
BBX 13 17 2 -3
BITMAP
0060
0030
0010
7F10
03F0
0210
0410
0810
11F0
2010
4000
87F0
0400
07F0
0400
0400
03F8
ENDCHAR
STARTCHAR ACC4
ENCODING 12392
SWIDTH 1800 0
DWIDTH 18 0
BBX 12 16 3 -3
BITMAP
0060
0190
0090
FC90
0C90
0B90
0890
1090
2790
2090
4090
0090
0090
0090
0010
0010
ENDCHAR
STARTCHAR ACC8
ENCODING 12393
SWIDTH 1800 0
DWIDTH 18 0
BBX 14 15 2 -2
BITMAP
0018
00C8
7E48
0248
07C8
0448
0848
13C8
2048
4048
9C48
0408
0400
0400
07FC
ENDCHAR
STARTCHAR ACCC
ENCODING 12394
SWIDTH 1800 0
DWIDTH 18 0
BBX 14 15 2 -2
BITMAP
01B0
0090
FC90
0490
0B90
1890
1790
2090
4FF8
8010
0010
0FF8
0400
0400
07FC
ENDCHAR
STARTCHAR ACD5
ENCODING 12395
SWIDTH 1800 0
DWIDTH 18 0
BBX 12 16 3 -3
BITMAP
0030
0090
FC90
0490
0B90
0890
1090
2790
4090
8C30
0430
07E0
0420
0420
07E0
0420
ENDCHAR
STARTCHAR ACD7
ENCODING 12396
SWIDTH 1800 0
DWIDTH 18 0
BBX 13 16 3 -2
BITMAP
0060
0130
0090
FC90
0C90
0B90
1090
1790
2090
4090
8110
0100
0380
0640
0C30
1018
ENDCHAR
STARTCHAR ACE0
ENCODING 12397
SWIDTH 1800 0
DWIDTH 18 0
BBX 16 11 1 0
BITMAP
3FFC
0008
0008
0008
0008
0310
0110
0100
0100
0100
FFFF
ENDCHAR
STARTCHAR ACE1
ENCODING 12398
SWIDTH 1800 0
DWIDTH 18 0
BBX 16 14 1 -2
BITMAP
1FFC
0008
0008
0190
0110
0100
FFFF
2000
0FF8
0008
0008
0008
0008
0008
ENDCHAR
STARTCHAR ACE4
ENCODING 12399
SWIDTH 1800 0
DWIDTH 18 0
BBX 16 14 1 -2
BITMAP
1FFC
000C
0008
0008
0188
0090
0080
FFFF
0000
0800
0400
0400
0400
07FC
ENDCHAR
STARTCHAR ACE7
ENCODING 12400
SWIDTH 1800 0
DWIDTH 18 0
BBX 16 14 1 -2
BITMAP
1FFC
0008
0008
0190
0110
0100
FFFF
2000
0030
0FC0
0800
0800
0800
0FF8
ENDCHAR
STARTCHAR ACE8
ENCODING 12401
SWIDTH 1800 0
DWIDTH 18 0
BBX 15 14 2 -2
BITMAP
3FF0
0010
0710
0220
0220
02FE
FF00
4000
0030
1FD0
0020
1FF0
0800
0FF8
ENDCHAR
STARTCHAR ACEA
ENCODING 12402
SWIDTH 1800 0
DWIDTH 18 0
BBX 15 15 2 -3
BITMAP
3FF8
0010
0010
0720
0220
0200
FFFE
4000
7CF8
0488
6C88
3090
2290
3CF8
0080
ENDCHAR
STARTCHAR ACEC
ENCODING 12403
SWIDTH 1800 0
DWIDTH 18 0
BBX 15 14 2 -2
BITMAP
3FF0
0010
0310
0220
0220
FFFE
4000
0040
1F30
0220
3E70
1048
128C
1C00
ENDCHAR
STARTCHAR ACEF
ENCODING 12404
SWIDTH 1800 0
DWIDTH 18 0
BBX 15 14 2 -2
BITMAP
3FF0
0010
0310
0220
FFFE
4000
00E0
3C00
05F8
3CF0
2110
2510
3910
00E0
ENDCHAR
STARTCHAR ACF0
ENCODING 12405
SWIDTH 1800 0
DWIDTH 18 0
BBX 15 15 2 -3
BITMAP
3FF0
0010
0010
0320
0320
0300
FFFE
4000
0000
1FF0
0820
0820
0820
0FF0
0800
ENDCHAR
STARTCHAR ACF1
ENCODING 12406
SWIDTH 1800 0
DWIDTH 18 0
BBX 16 15 1 -3
BITMAP
1FF8
0008
0008
0390
0190
0180
FFFF
2000
0830
0410
07F0
0410
0410
07F0
0410
ENDCHAR
STARTCHAR ACF3
ENCODING 12407
SWIDTH 1800 0
DWIDTH 18 0
BBX 16 14 1 -2
BITMAP
1FF8
0008
0008
0390
0110
0100
FFFF
2000
0300
0180
0180
0240
0C30
1008
ENDCHAR
STARTCHAR ACF5
ENCODING 12408
SWIDTH 1800 0
DWIDTH 18 0
BBX 16 14 1 -2
BITMAP
1FF8
0008
0008
0390
0190
0100
FFFF
2000
00C0
0320
0410
0410
0630
01E0
ENDCHAR
STARTCHAR ACF6
ENCODING 12409
SWIDTH 1800 0
DWIDTH 18 0
BBX 16 14 1 -2
BITMAP
1FFC
0008
0188
0110
0110
FFFF
2000
0008
3FFC
0080
0180
0260
0418
180C
ENDCHAR
STARTCHAR ACFC
ENCODING 12410
SWIDTH 1800 0
DWIDTH 18 0
BBX 14 16 3 -3
BITMAP
0060
0020
0020
FF20
0320
0220
0220
3224
1038
10E0
7F20
C020
0020
0020
0020
0020
ENDCHAR
STARTCHAR ACFD
ENCODING 12411
SWIDTH 1800 0
DWIDTH 18 0
BBX 14 15 3 -2
BITMAP
0060
0020
FE20
0220
0220
1420
143C
1FE0
E020
7FC0
0040
0040
0040
0040
0040
ENDCHAR
STARTCHAR AD00
ENCODING 12412
SWIDTH 1800 0
DWIDTH 18 0
BBX 13 15 3 -2
BITMAP
0040
0020
FF20
0220
0220
0220
1420
1038
1FE0
E020
2020
1020
1000
1000
1FF0
ENDCHAR
STARTCHAR AD04
ENCODING 12413
SWIDTH 1800 0
DWIDTH 18 0
BBX 13 15 3 -2
BITMAP
00E0
0020
FF20
0220
2220
1420
1478
3FA0
C020
3FC0
0040
0040
3FC0
1000
1FF0
ENDCHAR
STARTCHAR AD06
ENCODING 12414
SWIDTH 1800 0
DWIDTH 18 0
BBX 15 15 2 -2
BITMAP
0030
0010
7F90
0110
1910
0912
0A7C
FF90
2010
7FF0
0510
7D10
2120
3DF0
0100
ENDCHAR
STARTCHAR AD0C
ENCODING 12577
SWIDTH 1800 0
DWIDTH 18 0
BBX 15 15 2 -2
BITMAP
0070
0010
7F90
0110
1910
0912
087C
FF90
0000
1FF0
0820
0820
0820
0FE0
0800
ENDCHAR
STARTCHAR AD0D
ENCODING 12578
SWIDTH 1800 0
DWIDTH 18 0
BBX 15 15 2 -2
BITMAP
0030
0010
7F90
0110
1110
0A10
0A3E
FFD0
6010
3820
0820
0FE0
0820
0FE0
0820
ENDCHAR
STARTCHAR AD0F
ENCODING 12579
SWIDTH 1800 0
DWIDTH 18 0
BBX 16 15 2 -2
BITMAP
0030
0010
7F90
0110
0110
0910
0817
08F8
FF10
0190
0080
0140
0220
0418
1808
ENDCHAR
STARTCHAR AD11
ENCODING 12580
SWIDTH 1800 0
DWIDTH 18 0
BBX 15 15 2 -2
BITMAP
0030
0010
7F90
0110
0110
1910
0A1E
09F0
FE10
0090
03E0
0630
0410
0630
03E0
ENDCHAR
STARTCHAR AD18
ENCODING 12581
SWIDTH 1800 0
DWIDTH 18 0
BBX 12 15 2 -2
BITMAP
0030
00D0
0050
FE50
0250
0250
3450
1470
1050
1FD0
E050
0050
0050
0050
0010
ENDCHAR
STARTCHAR AD1C
ENCODING 12582
SWIDTH 1800 0
DWIDTH 18 0
BBX 13 15 2 -2
BITMAP
0018
00C8
0048
FE48
0248
0248
1448
1478
11C8
FE48
3848
0848
0800
0808
07F8
ENDCHAR
STARTCHAR AD20
ENCODING 12583
SWIDTH 1800 0
DWIDTH 18 0
BBX 14 15 2 -2
BITMAP
0018
0048
7E48
0248
0248
1248
1078
11C8
FE48
0048
0FF8
0010
0FF8
0400
07FC
ENDCHAR
STARTCHAR AD29
ENCODING 12584
SWIDTH 1800 0
DWIDTH 18 0
BBX 13 17 2 -3
BITMAP
0018
0048
0048
7E48
0248
1248
1478
15C8
FA48
0048
1C10
0410
07F0
0410
0410
07F0
0410
ENDCHAR
STARTCHAR AD2C
ENCODING 12585
SWIDTH 1800 0
DWIDTH 18 0
BBX 14 16 2 -3
BITMAP
0030
00D0
FE50
0250
0450
1450
1470
11D0
FE50
0070
0430
0420
0A50
1288
2104
4000
ENDCHAR
STARTCHAR AD2D
ENCODING 12586
SWIDTH 1800 0
DWIDTH 18 0
BBX 13 16 2 -2
BITMAP
0018
0088
0048
FE48
0248
0248
1448
1478
13C8
FC48
0048
01F0
0318
0208
0318
01F0
ENDCHAR
STARTCHAR AD34
ENCODING 12587
SWIDTH 1800 0
DWIDTH 18 0
BBX 12 16 2 -3
BITMAP
0030
0010
7F90
0090
0090
0110
1910
0910
0810
09F0
FE10
0010
0010
0010
0010
0010
ENDCHAR
STARTCHAR AD35
ENCODING 12588
SWIDTH 1800 0
DWIDTH 18 0
BBX 11 16 4 -3
BITMAP
0060
FF20
0220
0220
2220
1020
1060
1FA0
E000
0000
FFC0
2040
0040
0040
0040
0040
ENDCHAR
STARTCHAR AD38
ENCODING 12589
SWIDTH 1800 0
DWIDTH 18 0
BBX 13 15 3 -2
BITMAP
0030
0010
FF10
0110
0310
2210
1A10
1070
1F90
F010
3810
0800
0800
0818
07F8
ENDCHAR
STARTCHAR AD3C
ENCODING 12590
SWIDTH 1800 0
DWIDTH 18 0
BBX 14 15 2 -2
BITMAP
0030
7F90
0090
0090
1910
0910
0870
FF90
4000
0FF0
0010
0FF0
0400
0400
07FC
ENDCHAR
STARTCHAR AD44
ENCODING 12591
SWIDTH 1800 0
DWIDTH 18 0
BBX 13 16 1 -3
BITMAP
0018
0008
3FC8
0048
1848
0488
04B8
FF48
0008
0000
0FF8
0208
0208
0208
03F8
0200
ENDCHAR
STARTCHAR AD45
ENCODING 12592
SWIDTH 1800 0
DWIDTH 18 0
BBX 12 16 2 -3
BITMAP
0030
0010
7F90
0090
0090
0910
0910
0FF0
F010
1C10
0410
07F0
0410
0410
07F0
0410
ENDCHAR
STARTCHAR AD47
ENCODING 12593
SWIDTH 1800 0
DWIDTH 18 0
BBX 12 16 3 -3
BITMAP
0070
0010
FF10
0110
0110
3210
1210
10F0
1F10
E210
0110
0300
02C0
0C30
1010
2000
ENDCHAR
STARTCHAR AD49
ENCODING 12594
SWIDTH 1800 0
DWIDTH 18 0
BBX 12 15 2 -2
BITMAP
0030
0010
7F90
0090
0090
1910
0910
09F0
FE10
0050
01A0
0210
0210
0330
01E0
ENDCHAR
STARTCHAR AD50
ENCODING 12595
SWIDTH 1800 0
DWIDTH 18 0
BBX 16 11 1 0
BITMAP
3FFC
000C
000C
0008
0008
0C48
0450
0440
0440
0440
FFFF
ENDCHAR
STARTCHAR AD54
ENCODING 12596
SWIDTH 1800 0
DWIDTH 18 0
BBX 16 13 1 -1
BITMAP
1FFC
000C
0008
0C28
0620
0222
FFFF
2000
3800
0800
0800
0808
07FC
ENDCHAR
STARTCHAR AD58
ENCODING 12597
SWIDTH 1800 0
DWIDTH 18 0
BBX 15 14 2 -2
BITMAP
3FF8
0010
0890
0490
04A0
FFFE
0000
3FF0
0020
0020
1FE0
1000
1FF0
0010
ENDCHAR
STARTCHAR AD61
ENCODING 12598
SWIDTH 1800 0
DWIDTH 18 0
BBX 15 14 2 -2
BITMAP
3FF8
0010
1890
04A0
04A0
FFFE
0000
3020
1020
1FE0
1020
1020
1FE0
1020
ENDCHAR
STARTCHAR AD63
ENCODING 12599
SWIDTH 1800 0
DWIDTH 18 0
BBX 15 14 2 -2
BITMAP
3FF8
0018
0010
1850
0C50
0440
FFFE
0000
0300
0100
0280
0460
0818
3008
ENDCHAR
STARTCHAR AD6C
ENCODING 12600
SWIDTH 1800 0
DWIDTH 18 0
BBX 15 15 2 -3
BITMAP
3FF0
0010
0010
0020
0020
0020
FFFE
0100
0100
0100
0100
0100
0100
0100
0100
ENDCHAR
STARTCHAR AD6D
ENCODING 12601
SWIDTH 1800 0
DWIDTH 18 0
BBX 15 14 2 -2
BITMAP
3FF8
0010
0010
0020
0020
FFFE
0100
0100
3FE0
0020
0020
0020
0020
0020
ENDCHAR
STARTCHAR AD70
ENCODING 12602
SWIDTH 1800 0
DWIDTH 18 0
BBX 15 14 2 -2
BITMAP
3FF8
0010
0010
0010
0020
0020
FFFE
0100
0100
7100
1100
1000
1000
0FF8
ENDCHAR
STARTCHAR AD73
ENCODING 12603
SWIDTH 1800 0
DWIDTH 18 0
BBX 16 14 1 -2
BITMAP
1FF8
0008
0008
0010
0010
FFFF
0080
0080
0010
1FF0
0800
0800
0800
0FF8
ENDCHAR
STARTCHAR AD74
ENCODING 12604
SWIDTH 1800 0
DWIDTH 18 0
BBX 15 14 2 -2
BITMAP
1FF8
0010
0010
0010
0020
FFFE
0100
0100
3F10
00F0
0020
3FF0
1000
1FF0
ENDCHAR
STARTCHAR AD75
ENCODING 12605
SWIDTH 1800 0
DWIDTH 18 0
BBX 16 14 1 -2
BITMAP
1FF8
0008
0010
0010
0010
FFFF
0180
0100
1EF8
0208
3E08
1008
1308
1C08
ENDCHAR
STARTCHAR AD76
ENCODING 12606
SWIDTH 1800 0
DWIDTH 18 0
BBX 16 13 1 -1
BITMAP
1FF8
0008
0010
0010
0010
FFFF
0180
0100
1EF8
02C8
1E48
1048
1E78
ENDCHAR
STARTCHAR AD7B
ENCODING 12607
SWIDTH 1800 0
DWIDTH 18 0
BBX 15 14 2 -2
BITMAP
3FF0
0010
0020
0020
FFFE
0100
01F0
3C00
05F8
6CF0
3110
2110
3D10
00E0
ENDCHAR
STARTCHAR AD7C
ENCODING 12608
SWIDTH 1800 0
DWIDTH 18 0
BBX 15 15 2 -3
BITMAP
3FF8
0010
0010
0020
0020
FFFE
0100
0100
1F00
08F0
0820
0820
0820
0FE0
0800
ENDCHAR
STARTCHAR AD7D
ENCODING 12609
SWIDTH 1800 0
DWIDTH 18 0
BBX 16 14 1 -2
BITMAP
1FF8
0008
0008
0010
0010
FFFF
0080
1CB0
0410
07F0
0410
0410
07F0
0410
ENDCHAR
STARTCHAR AD7F
ENCODING 12610
SWIDTH 1800 0
DWIDTH 18 0
BBX 16 14 1 -2
BITMAP
0FF8
0008
0010
0010
0010
FFFF
0080
0080
0300
0180
0180
0260
0C18
1008
ENDCHAR
STARTCHAR AD81
ENCODING 12611
SWIDTH 1800 0
DWIDTH 18 0
BBX 15 14 2 -2
BITMAP
3FF8
0010
0010
0020
0020
FFFE
0100
0100
0100
07C0
0C60
0820
0C60
07C0
ENDCHAR
STARTCHAR AD82
ENCODING 12612
SWIDTH 1800 0
DWIDTH 18 0
BBX 15 14 2 -2
BITMAP
3FF8
0010
0010
0020
FFFE
0100
0100
0100
33F8
0D00
0300
06C0
0C30
3008
ENDCHAR
STARTCHAR AD88
ENCODING 12613
SWIDTH 1800 0
DWIDTH 18 0
BBX 12 16 2 -3
BITMAP
0070
0010
7F90
0090
0190
0110
0110
01D0
FE10
0410
04F0
0410
0410
0410
0410
0010
ENDCHAR
STARTCHAR AD89
ENCODING 12614
SWIDTH 1800 0
DWIDTH 18 0
BBX 13 16 2 -3
BITMAP
0038
0108
3F08
0108
0108
9F88
6408
04F8
0408
0008
3FF0
0010
0010
0010
0010
0010
ENDCHAR
STARTCHAR AD8C
ENCODING 12615
SWIDTH 1800 0
DWIDTH 18 0
BBX 14 15 2 -2
BITMAP
0038
0008
7F88
0108
0108
0108
0788
F808
08F8
0808
0808
0408
0400
0400
07FC
ENDCHAR
STARTCHAR AD90
ENCODING 12616
SWIDTH 1800 0
DWIDTH 18 0
BBX 15 15 1 -2
BITMAP
001C
0004
3FC4
0084
0084
0104
87C4
7C7C
0404
0400
03F8
0008
07F8
0200
03FE
ENDCHAR
STARTCHAR AD9C
ENCODING 12617
SWIDTH 1800 0
DWIDTH 18 0
BBX 14 15 2 -2
BITMAP
0038
0108
3F08
0108
0208
FF88
6408
04F8
0408
0438
0210
0430
0F30
114C
2184
ENDCHAR
STARTCHAR AD9D
ENCODING 12618
SWIDTH 1800 0
DWIDTH 18 0
BBX 12 15 2 -2
BITMAP
0060
0010
7F90
0110
0110
0250
FF90
05F0
0410
0490
07E0
0630
0410
0630
01E0
ENDCHAR
STARTCHAR ADA4
ENCODING 12619
SWIDTH 1800 0
DWIDTH 18 0
BBX 13 16 2 -3
BITMAP
0018
00C8
0048
7E48
0248
0248
0448
0748
F848
0BC8
0848
0848
0848
0048
0008
0008
ENDCHAR
STARTCHAR ADB7
ENCODING 12620
SWIDTH 1800 0
DWIDTH 18 0
BBX 14 16 2 -3
BITMAP
0098
0048
7E48
0248
0248
0248
05C8
FA48
0BC8
09C8
08C8
0180
0140
0638
080C
3000
ENDCHAR
STARTCHAR ADC0
ENCODING 12621
SWIDTH 1800 0
DWIDTH 18 0
BBX 12 16 2 -3
BITMAP
0070
0010
7F90
0190
0110
0110
0110
02D0
FD10
0410
0410
0410
0410
0410
0410
0010
ENDCHAR
STARTCHAR ADC1
ENCODING 12622
SWIDTH 1800 0
DWIDTH 18 0
BBX 12 16 2 -3
BITMAP
0020
0010
3F90
0110
0110
0270
FF90
6410
0410
0410
3FF0
0010
0010
0010
0010
0010
ENDCHAR
STARTCHAR ADC4
ENCODING 12623
SWIDTH 1800 0
DWIDTH 18 0
BBX 14 15 2 -2
BITMAP
0018
0008
3F88
0088
0088
0108
00F8
FF08
0408
0408
0C08
0408
0400
0400
07FC
ENDCHAR
STARTCHAR ADC8
ENCODING 12624
SWIDTH 1800 0
DWIDTH 18 0
BBX 12 15 3 -2
BITMAP
0030
FF90
0110
0110
02F0
0F10
F810
0810
0800
1FE0
0020
1FE0
0800
0800
0FF0
ENDCHAR
STARTCHAR ADD0
ENCODING 12625
SWIDTH 1800 0
DWIDTH 18 0
BBX 13 16 2 -3
BITMAP
0010
0008
3F88
0088
0088
0138
FFC8
2608
0608
0FF8
0410
0410
0410
0420
07F0
0400
ENDCHAR
STARTCHAR ADD1
ENCODING 12626
SWIDTH 1800 0
DWIDTH 18 0
BBX 13 16 2 -3
BITMAP
0018
0008
3F88
0088
0088
0138
FFC8
2608
0408
1C10
0410
07F0
0410
0410
07F0
0410
ENDCHAR
STARTCHAR ADD3
ENCODING 12627
SWIDTH 1800 0
DWIDTH 18 0
BBX 13 15 3 -2
BITMAP
0020
0010
7F90
0110
0110
0230
07D0
FC10
0410
0190
0110
0280
0440
0830
3018
ENDCHAR
STARTCHAR ADDC
ENCODING 12628
SWIDTH 1800 0
DWIDTH 18 0
BBX 16 15 1 -3
BITMAP
1FF8
0018
0010
0010
0010
0020
FFFF
0420
0420
0420
0420
0420
0420
0420
0020
ENDCHAR
STARTCHAR ADE0
ENCODING 12629
SWIDTH 1800 0
DWIDTH 18 0
BBX 16 14 1 -2
BITMAP
1FF8
0008
0010
0010
0010
FFFF
0420
0420
0420
3C20
0820
0800
0800
0FF8
ENDCHAR
STARTCHAR ADE4
ENCODING 12630
SWIDTH 1800 0
DWIDTH 18 0
BBX 14 14 3 -2
BITMAP
3FF0
0020
0020
0040
0040
FFFC
1080
0F80
1040
0040
3FC0
1000
1000
1FE0
ENDCHAR
STARTCHAR ADF8
ENCODING 12631
SWIDTH 1800 0
DWIDTH 18 0
BBX 16 10 1 0
BITMAP
3FFC
000C
0008
0008
0008
0010
0010
0020
FFFF
2000
ENDCHAR
STARTCHAR ADF9
ENCODING 12632
SWIDTH 1800 0
DWIDTH 18 0
BBX 16 14 1 -2
BITMAP
1FFC
0008
0008
0008
0010
FFFF
2000
0000
0FF8
0008
0008
0008
0008
0008
ENDCHAR
STARTCHAR ADFC
ENCODING 12633
SWIDTH 1800 0
DWIDTH 18 0
BBX 16 12 1 -1
BITMAP
1FFC
0008
0008
0008
0010
FFFF
2000
1800
0800
0800
0808
07FC
ENDCHAR
STARTCHAR ADFF
ENCODING 12634
SWIDTH 1800 0
DWIDTH 18 0
BBX 16 13 1 -1
BITMAP
1FFC
0008
0008
0010
0010
FFFF
2000
0000
07F8
0400
0400
0400
07FC
ENDCHAR
STARTCHAR AE00
ENCODING 12635
SWIDTH 1800 0
DWIDTH 18 0
BBX 16 13 1 -1
BITMAP
1FFC
0008
0008
0008
0010
FFFF
2000
0010
0FF0
0010
0FF0
0400
07F8
ENDCHAR
STARTCHAR AE01
ENCODING 12636
SWIDTH 1800 0
DWIDTH 18 0
BBX 16 13 1 -1
BITMAP
1FFC
0008
0008
0010
0010
FFFF
2000
1EF8
0208
3E08
1008
1108
1E08
ENDCHAR
STARTCHAR AE08
ENCODING 12637
SWIDTH 1800 0
DWIDTH 18 0
BBX 16 14 1 -2
BITMAP
1FFC
0008
0008
0008
0010
FFFF
2000
0000
0FF8
0410
0410
0410
07F0
0400
ENDCHAR
STARTCHAR AE09
ENCODING 12638
SWIDTH 1800 0
DWIDTH 18 0
BBX 16 14 1 -2
BITMAP
1FFC
0008
0008
0010
0010
FFFF
0000
0C30
0410
07F0
0410
0410
07F0
0410
ENDCHAR
STARTCHAR AE0B
ENCODING 12639
SWIDTH 1800 0
DWIDTH 18 0
BBX 16 14 1 -2
BITMAP
1FFC
0008
0008
0008
0010
FFFF
2000
0300
0080
0180
0340
0630
0808
3004
ENDCHAR
STARTCHAR AE0D
ENCODING 12640
SWIDTH 1800 0
DWIDTH 18 0
BBX 16 14 1 -2
BITMAP
1FFC
0008
0008
0008
0010
FFFF
2000
0080
03E0
0630
0410
0410
0630
03E0
ENDCHAR
STARTCHAR AE14
ENCODING 12641
SWIDTH 1800 0
DWIDTH 18 0
BBX 13 16 1 -3
BITMAP
0038
0008
3FC8
0048
0048
0088
0088
0088
0008
00F8
FF08
0008
0008
0008
0008
0008
ENDCHAR
STARTCHAR AE30
ENCODING 12642
SWIDTH 1800 0
DWIDTH 18 0
BBX 12 15 2 -2
BITMAP
0030
0010
0310
3F10
0210
0610
0410
0810
1010
2010
4010
8010
0010
0010
0010
ENDCHAR
STARTCHAR AE31
ENCODING 12643
SWIDTH 1800 0
DWIDTH 18 0
BBX 12 15 3 -2
BITMAP
0070
0010
FE10
0610
0410
0810
1010
2010
4010
BFE0
0020
0020
0020
0020
0020
ENDCHAR
STARTCHAR AE34
ENCODING 12644
SWIDTH 1800 0
DWIDTH 18 0
BBX 14 16 2 -2
BITMAP
0070
0010
0010
7F10
0310
0210
0410
0C10
0810
1010
6010
9C10
0400
0400
0404
07FC
ENDCHAR
STARTCHAR AE37
ENCODING 12645
SWIDTH 1800 0
DWIDTH 18 0
BBX 12 14 3 -1
BITMAP
00E0
0020
FE20
0420
0420
0820
1020
2020
4060
9F80
1000
1000
1020
0FF0
ENDCHAR
STARTCHAR AE38
ENCODING 12646
SWIDTH 1800 0
DWIDTH 18 0
BBX 13 15 3 -2
BITMAP
00E0
FE20
0420
0420
0820
1020
2020
4020
8020
1FF0
0020
1FE0
0800
0800
0FF8
ENDCHAR
STARTCHAR AE3A
ENCODING 12647
SWIDTH 1800 0
DWIDTH 18 0
BBX 12 15 2 -2
BITMAP
0070
0010
7F10
0210
0610
0410
0810
1010
7E10
82F0
0290
3E90
1090
10F0
1E80
ENDCHAR
STARTCHAR AE40
ENCODING 12648
SWIDTH 1800 0
DWIDTH 18 0
BBX 11 15 3 -2
BITMAP
00E0
FE20
0620
0420
0820
1020
2020
4020
8020
0FE0
0820
0820
0840
0FE0
0800
ENDCHAR
STARTCHAR AE41
ENCODING 12649
SWIDTH 1800 0
DWIDTH 18 0
BBX 11 15 3 -2
BITMAP
00E0
FE20
0420
0420
0820
1020
2020
4020
8000
1820
0820
0FE0
0820
0FE0
0820
ENDCHAR
STARTCHAR AE43
ENCODING 12650
SWIDTH 1800 0
DWIDTH 18 0
BBX 13 15 3 -2
BITMAP
00E0
FE20
0620
0420
0820
1020
2020
4020
8220
01A0
0100
02C0
0430
0818
3008
ENDCHAR
STARTCHAR AE45
ENCODING 12651
SWIDTH 1800 0
DWIDTH 18 0
BBX 12 16 2 -2
BITMAP
0060
0030
0010
3F10
0310
0210
0410
0810
1010
2090
C1C0
0220
0410
0410
0630
01E0
ENDCHAR
STARTCHAR AE46
ENCODING 12652
SWIDTH 1800 0
DWIDTH 18 0
BBX 13 15 2 -2
BITMAP
0070
0010
7F10
0310
0210
0410
0810
1010
2010
FFF8
0180
0180
0260
0C18
1008
ENDCHAR
STARTCHAR AE4A
ENCODING 12653
SWIDTH 1800 0
DWIDTH 18 0
BBX 13 15 3 -2
BITMAP
00E0
FE20
0620
0420
0820
1020
2020
4020
8030
3FF0
00C0
0840
0440
0480
7FF8
ENDCHAR
STARTCHAR AE4C
ENCODING 12654
SWIDTH 1800 0
DWIDTH 18 0
BBX 15 16 2 -3
BITMAP
0060
0010
0010
7F90
1190
1110
2110
6212
421C
8410
0810
1010
0010
0010
0010
0010
ENDCHAR
STARTCHAR AE4D
ENCODING 12655
SWIDTH 1800 0
DWIDTH 18 0
BBX 15 15 2 -2
BITMAP
0030
0010
7F90
0890
1110
231E
4210
8410
0810
1FF0
0010
0010
0010
0010
0010
ENDCHAR
STARTCHAR AE4E
ENCODING 12656
SWIDTH 1800 0
DWIDTH 18 0
BBX 15 15 2 -2
BITMAP
0030
0010
7F90
0890
1110
231E
4210
8410
0810
7DF0
0410
0410
0410
0410
0410
ENDCHAR
STARTCHAR AE50
ENCODING 12657
SWIDTH 1800 0
DWIDTH 18 0
BBX 15 15 2 -2
BITMAP
0030
0010
7F90
0890
1110
3110
221E
C410
0810
1010
3C10
0410
0400
0408
07FC
ENDCHAR
STARTCHAR AE54
ENCODING 12658
SWIDTH 1800 0
DWIDTH 18 0
BBX 14 15 3 -2
BITMAP
0060
0020
FF20
1120
2220
463C
4420
8820
1020
1FE0
0020
1FE0
0800
0800
0FF0
ENDCHAR
STARTCHAR AE56
ENCODING 12659
SWIDTH 1800 0
DWIDTH 18 0
BBX 15 15 2 -2
BITMAP
0030
0010
7F90
1110
1110
221E
4410
8010
7C00
05F0
0530
3930
2130
3DF0
0100
ENDCHAR
STARTCHAR AE5C
ENCODING 12660
SWIDTH 1800 0
DWIDTH 18 0
BBX 14 15 3 -2
BITMAP
0060
0020
FF20
1120
2220
623C
4420
8820
1020
1FE0
0840
0840
0840
0FE0
0800
ENDCHAR
STARTCHAR AE5D
ENCODING 12661
SWIDTH 1800 0
DWIDTH 18 0
BBX 14 15 3 -2
BITMAP
0060
0020
FF20
1120
2220
623C
4420
8820
1000
1820
0820
0FE0
0820
0FE0
0820
ENDCHAR
STARTCHAR AE5F
ENCODING 12662
SWIDTH 1800 0
DWIDTH 18 0
BBX 14 15 3 -2
BITMAP
0060
0020
FFA0
1120
2220
2224
4438
8420
0B20
1120
0300
0680
0C60
1030
2010
ENDCHAR
STARTCHAR AE60
ENCODING 12663
SWIDTH 1800 0
DWIDTH 18 0
BBX 15 15 2 -2
BITMAP
0030
0010
7F90
0890
1110
211E
4210
8410
0860
0430
0420
0A30
1148
2184
0104
ENDCHAR
STARTCHAR AE61
ENCODING 12664
SWIDTH 1800 0
DWIDTH 18 0
BBX 14 15 3 -2
BITMAP
0060
0020
FF20
1120
2220
623C
4420
8820
1120
03A0
0C60
0820
0820
0440
0380
ENDCHAR
STARTCHAR AE65
ENCODING 12665
SWIDTH 1800 0
DWIDTH 18 0
BBX 14 15 3 -2
BITMAP
0060
0020
FF20
1120
2220
623C
4420
8820
1870
0F80
0800
0FE0
0800
0800
0FF0
ENDCHAR
STARTCHAR AE68
ENCODING 12666
SWIDTH 1800 0
DWIDTH 18 0
BBX 13 16 2 -3
BITMAP
0038
0048
0048
FF48
1248
2248
2448
4478
8848
0848
1048
2048
0048
0048
0008
0008
ENDCHAR
STARTCHAR AE69
ENCODING 12667
SWIDTH 1800 0
DWIDTH 18 0
BBX 13 15 2 -2
BITMAP
0098
0048
0048
7F48
1248
2248
4478
8848
1048
2040
1FF8
0008
0008
0008
0008
ENDCHAR
STARTCHAR AE6C
ENCODING 12668
SWIDTH 1800 0
DWIDTH 18 0
BBX 15 15 1 -2
BITMAP
0018
0064
0024
7FA4
0924
1124
3224
223C
C424
0824
1424
0224
0200
0200
01FE
ENDCHAR
STARTCHAR AE70
ENCODING 12669
SWIDTH 1800 0
DWIDTH 18 0
BBX 14 16 2 -2
BITMAP
0010
00C8
0048
7F48
1248
3248
2478
4448
8848
1048
27F8
0008
07F8
0200
0200
03FC
ENDCHAR
STARTCHAR AE78
ENCODING 12670
SWIDTH 1800 0
DWIDTH 18 0
BBX 14 16 1 -2
BITMAP
000C
0064
0024
0824
3F24
1124
123C
2224
4424
8824
1000
07F8
0208
0208
03F8
0200
ENDCHAR
STARTCHAR AE79
ENCODING 12833
SWIDTH 1800 0
DWIDTH 18 0
BBX 13 17 2 -3
BITMAP
0010
00C8
0048
7F48
1248
3248
2478
4448
8848
1048
2618
0210
03F0
0210
0210
03F0
0210
ENDCHAR
STARTCHAR AE7B
ENCODING 12834
SWIDTH 1800 0
DWIDTH 18 0
BBX 13 15 2 -2
BITMAP
0098
0048
0048
7F48
1248
2248
2478
C448
0848
10C8
0080
01C0
0320
0418
0808
ENDCHAR
STARTCHAR AE7C
ENCODING 12835
SWIDTH 1800 0
DWIDTH 18 0
BBX 14 15 2 -2
BITMAP
0030
00C8
7F48
1348
1248
2248
4478
8848
1048
0430
0610
0630
0948
108C
2104
ENDCHAR
STARTCHAR AE7D
ENCODING 12836
SWIDTH 1800 0
DWIDTH 18 0
BBX 13 15 2 -2
BITMAP
0018
0048
9948
7748
1248
2248
4478
8848
1048
0048
01B0
0210
0210
0230
01E0
ENDCHAR
STARTCHAR AE84
ENCODING 12837
SWIDTH 1800 0
DWIDTH 18 0
BBX 14 16 3 -2
BITMAP
00C0
0020
0020
1120
FF20
113C
2220
6220
4420
8424
0838
1020
2020
0020
0020
0020
ENDCHAR
STARTCHAR AE85
ENCODING 12838
SWIDTH 1800 0
DWIDTH 18 0
BBX 15 16 2 -3
BITMAP
0070
0010
FF90
1110
311E
2210
4210
8416
0818
7FF0
1020
0020
0020
0020
0020
0020
ENDCHAR
STARTCHAR AE8C
ENCODING 12839
SWIDTH 1800 0
DWIDTH 18 0
BBX 14 15 2 -2
BITMAP
00E0
0020
FFA0
112C
2230
6220
4420
883C
1020
1FE0
0020
1FE0
0800
0800
0FF0
ENDCHAR
STARTCHAR AEBC
ENCODING 12840
SWIDTH 1800 0
DWIDTH 18 0
BBX 12 15 2 -1
BITMAP
0060
0010
0010
7F90
1990
1110
11F0
2210
4210
8410
0810
1010
0010
0010
0010
ENDCHAR
STARTCHAR AEBD
ENCODING 12841
SWIDTH 1800 0
DWIDTH 18 0
BBX 12 15 2 -2
BITMAP
0070
0010
FF90
1190
3110
22F0
4210
8410
1810
1FF0
0010
0010
0010
0010
0010
ENDCHAR
STARTCHAR AEBE
ENCODING 12842
SWIDTH 1800 0
DWIDTH 18 0
BBX 12 15 2 -2
BITMAP
0070
0010
FF90
1190
3110
22F0
4210
8410
1810
3FF0
0210
0210
0210
0210
0210
ENDCHAR
STARTCHAR AEC0
ENCODING 12843
SWIDTH 1800 0
DWIDTH 18 0
BBX 14 16 2 -2
BITMAP
0038
0008
0008
7FC8
1088
1188
21F8
4208
8408
0808
1008
1C08
0400
0400
0400
07FC
ENDCHAR
STARTCHAR AEC4
ENCODING 12844
SWIDTH 1800 0
DWIDTH 18 0
BBX 13 15 2 -2
BITMAP
0070
0010
FF90
1110
3110
22F0
4610
8410
0810
1FF0
0010
0FF0
0400
0400
07F8
ENDCHAR
STARTCHAR AECC
ENCODING 12845
SWIDTH 1800 0
DWIDTH 18 0
BBX 12 15 2 -2
BITMAP
0070
0010
FF90
1190
1110
22F0
4210
8410
0810
1FF0
0410
0410
0410
07F0
0400
ENDCHAR
STARTCHAR AECD
ENCODING 12846
SWIDTH 1800 0
DWIDTH 18 0
BBX 12 15 2 -2
BITMAP
0070
0010
FF90
1190
1110
22F0
4210
8410
0810
1C10
0410
07F0
0410
07F0
0410
ENDCHAR
STARTCHAR AECF
ENCODING 12847
SWIDTH 1800 0
DWIDTH 18 0
BBX 13 15 2 -2
BITMAP
0030
0010
FF90
0890
1110
31F0
2210
4410
8810
1090
0090
01C0
0330
0418
0808
ENDCHAR
STARTCHAR AED0
ENCODING 12848
SWIDTH 1800 0
DWIDTH 18 0
BBX 14 15 2 -2
BITMAP
0070
0010
FF90
1090
1110
21F0
4210
8410
0810
1418
0610
0610
0928
114C
2084
ENDCHAR
STARTCHAR AED1
ENCODING 12849
SWIDTH 1800 0
DWIDTH 18 0
BBX 12 15 2 -2
BITMAP
0070
0010
FF90
1190
1110
22F0
4210
8410
0810
1090
0360
0410
0410
0630
01E0
ENDCHAR
STARTCHAR AED8
ENCODING 12850
SWIDTH 1800 0
DWIDTH 18 0
BBX 13 16 2 -2
BITMAP
0020
0018
0048
0048
7F48
1248
2248
27C8
4448
8848
0848
1048
2048
0048
0048
0008
ENDCHAR
STARTCHAR AED9
ENCODING 12851
SWIDTH 1800 0
DWIDTH 18 0
BBX 13 15 2 -2
BITMAP
0018
0048
FF48
1248
2248
27C8
4448
8848
1048
2048
3FF0
0010
0010
0010
0010
ENDCHAR
STARTCHAR AEDC
ENCODING 12852
SWIDTH 1800 0
DWIDTH 18 0
BBX 15 15 1 -2
BITMAP
000C
0064
0024
3FA4
0924
1124
22E4
4424
8824
0024
0424
0204
0200
0200
03FE
ENDCHAR
STARTCHAR AEE8
ENCODING 12853
SWIDTH 1800 0
DWIDTH 18 0
BBX 13 15 2 -2
BITMAP
0018
0048
FF48
1248
2248
67C8
4448
8848
1048
27F8
0410
0410
0410
07F0
0400
ENDCHAR
STARTCHAR AEEB
ENCODING 12854
SWIDTH 1800 0
DWIDTH 18 0
BBX 13 15 2 -2
BITMAP
0018
0048
FF48
1248
2248
27C8
4448
8848
1048
2088
0088
0180
0260
0C18
1008
ENDCHAR
STARTCHAR AEED
ENCODING 12855
SWIDTH 1800 0
DWIDTH 18 0
BBX 13 15 2 -2
BITMAP
0018
0048
FF48
1248
2248
27C8
4448
8848
1048
21E8
0330
0210
0210
0330
01E0
ENDCHAR
STARTCHAR AEF4
ENCODING 12856
SWIDTH 1800 0
DWIDTH 18 0
BBX 12 16 2 -3
BITMAP
0070
0010
0010
FF90
1110
11F0
2310
6210
4410
84F0
0810
1010
0010
0010
0010
0010
ENDCHAR
STARTCHAR AEF8
ENCODING 12857
SWIDTH 1800 0
DWIDTH 18 0
BBX 14 15 2 -2
BITMAP
0070
0010
FF10
1110
23F0
2210
4410
87F0
0810
1010
1C10
0410
0400
0400
07FC
ENDCHAR
STARTCHAR AEFC
ENCODING 12858
SWIDTH 1800 0
DWIDTH 18 0
BBX 14 15 2 -2
BITMAP
0070
0010
FF90
1110
31F0
2210
42F0
8410
0810
1FF0
0010
0FF0
0400
0400
07FC
ENDCHAR
STARTCHAR AF07
ENCODING 12859
SWIDTH 1800 0
DWIDTH 18 0
BBX 13 16 2 -3
BITMAP
0030
0010
FF90
1990
11F0
2310
6210
44F0
8810
1190
2090
01C0
0320
0618
0808
1000
ENDCHAR
STARTCHAR AF08
ENCODING 12860
SWIDTH 1800 0
DWIDTH 18 0
BBX 13 15 2 -2
BITMAP
0030
0018
7F90
1190
1170
2210
4210
84F0
0810
0430
0430
0620
0950
1188
2108
ENDCHAR
STARTCHAR AF0D
ENCODING 12861
SWIDTH 1800 0
DWIDTH 18 0
BBX 14 15 2 -2
BITMAP
0030
0010
7F90
1170
2390
4210
85F0
0810
1000
07F8
0410
07F0
0400
0400
03FC
ENDCHAR
STARTCHAR AF10
ENCODING 12862
SWIDTH 1800 0
DWIDTH 18 0
BBX 13 16 2 -2
BITMAP
0020
0018
0048
0048
7F48
1248
23C8
2448
4448
89C8
0848
1048
2048
0048
0048
0008
ENDCHAR
STARTCHAR AF2C
ENCODING 12863
SWIDTH 1800 0
DWIDTH 18 0
BBX 17 12 0 0
BITMAP
478E00
3A7400
020400
060C00
040800
040800
088800
089000
008000
008000
FFFF80
200000
ENDCHAR
STARTCHAR AF2D
ENCODING 12864
SWIDTH 1800 0
DWIDTH 18 0
BBX 16 14 1 -2
BITMAP
3EFC
0408
0408
0590
0990
0106
FFFF
0000
3FF0
0010
0010
0010
0010
0010
ENDCHAR
STARTCHAR AF30
ENCODING 12865
SWIDTH 1800 0
DWIDTH 18 0
BBX 16 13 1 -1
BITMAP
06FC
3E08
0408
0408
0990
0880
0086
FFFF
1000
0800
0800
0808
07FC
ENDCHAR
STARTCHAR AF32
ENCODING 12866
SWIDTH 1800 0
DWIDTH 18 0
BBX 16 14 1 -2
BITMAP
3EFC
060C
0408
0588
0080
0080
FFFF
20F0
3000
101C
11E0
1098
1CC8
0078
ENDCHAR
STARTCHAR AF34
ENCODING 12867
SWIDTH 1800 0
DWIDTH 18 0
BBX 16 14 1 -2
BITMAP
3EFC
0408
0408
0590
0890
0086
FFFF
2000
1FF0
0020
1FF0
0800
0800
0FF8
ENDCHAR
STARTCHAR AF3C
ENCODING 12868
SWIDTH 1800 0
DWIDTH 18 0
BBX 16 15 1 -2
BITMAP
00FC
3E08
0408
0408
0590
0080
0080
FFFF
0000
0FF8
0410
0410
0410
07F8
0400
ENDCHAR
STARTCHAR AF3D
ENCODING 12869
SWIDTH 1800 0
DWIDTH 18 0
BBX 16 14 1 -2
BITMAP
1EFC
0208
0408
0588
0490
0086
FFFF
3C30
0410
07F0
0410
0410
07F0
0410
ENDCHAR
STARTCHAR AF3F
ENCODING 12870
SWIDTH 1800 0
DWIDTH 18 0
BBX 16 14 1 -2
BITMAP
3E7C
040C
0508
0488
0890
0092
FFFF
2000
0180
0180
0140
0230
0C08
1004
ENDCHAR
STARTCHAR AF41
ENCODING 12871
SWIDTH 1800 0
DWIDTH 18 0
BBX 15 14 2 -2
BITMAP
01F8
7C10
0810
0B20
0920
1106
FFFE
4000
0100
06C0
0820
0820
0C60
03C0
ENDCHAR
STARTCHAR AF42
ENCODING 12872
SWIDTH 1800 0
DWIDTH 18 0
BBX 16 14 1 -2
BITMAP
3E7C
0208
0708
0488
0490
FFFF
0000
0000
1FF8
0080
0180
0260
0418
1808
ENDCHAR
STARTCHAR AF43
ENCODING 12873
SWIDTH 1800 0
DWIDTH 18 0
BBX 16 16 1 -3
BITMAP
3E00
167C
0408
0408
0480
0080
FFFF
2000
03C0
0000
3FFC
0180
0340
0630
080C
3000
ENDCHAR
STARTCHAR AF48
ENCODING 12874
SWIDTH 1800 0
DWIDTH 18 0
BBX 15 16 2 -2
BITMAP
0060
0010
0010
1790
7090
1090
1110
2D10
251E
0410
07D0
F810
0010
0010
0010
0010
ENDCHAR
STARTCHAR AF49
ENCODING 12875
SWIDTH 1800 0
DWIDTH 18 0
BBX 15 16 2 -3
BITMAP
0030
0010
7B90
1090
1090
1510
0516
04D8
FF10
0010
3FE0
0020
0020
0020
0020
0020
ENDCHAR
STARTCHAR AF50
ENCODING 12876
SWIDTH 1800 0
DWIDTH 18 0
BBX 16 15 2 -2
BITMAP
0030
0010
3B90
1090
1C90
1417
0418
0FF0
F010
0FF0
0010
0FF0
0400
0400
07FC
ENDCHAR
STARTCHAR AF5C
ENCODING 12877
SWIDTH 1800 0
DWIDTH 18 0
BBX 15 15 2 -2
BITMAP
0030
0090
FB90
1090
1C90
2412
241C
07F0
F810
0020
0610
0420
0B30
114C
2084
ENDCHAR
STARTCHAR AF5D
ENCODING 12878
SWIDTH 1800 0
DWIDTH 18 0
BBX 15 15 2 -2
BITMAP
0030
0010
7B90
1090
1890
1410
041E
07F0
F810
0090
0360
0410
0410
0630
03E0
ENDCHAR
STARTCHAR AF64
ENCODING 12879
SWIDTH 1800 0
DWIDTH 18 0
BBX 13 15 2 -2
BITMAP
0018
00C8
1148
7748
1148
2248
3A48
0A78
0848
1F48
E048
0048
0048
0048
0008
ENDCHAR
STARTCHAR AF65
ENCODING 12880
SWIDTH 1800 0
DWIDTH 18 0
BBX 14 17 1 -3
BITMAP
0018
0044
0024
0024
3BA4
1124
1524
153C
0464
FFA4
0024
0FFC
0004
0004
0004
0004
0004
ENDCHAR
STARTCHAR AF79
ENCODING 12881
SWIDTH 1800 0
DWIDTH 18 0
BBX 14 16 1 -2
BITMAP
0018
0044
0024
0024
3BA4
10A4
1D24
153C
04A4
FF24
0024
00F8
018C
0104
018C
00F8
ENDCHAR
STARTCHAR AF80
ENCODING 12882
SWIDTH 1800 0
DWIDTH 18 0
BBX 13 16 2 -2
BITMAP
0030
0008
0008
FFC8
1088
1088
1088
2C88
2508
0428
0FC8
7008
0008
0008
0008
0008
ENDCHAR
STARTCHAR AF84
ENCODING 12883
SWIDTH 1800 0
DWIDTH 18 0
BBX 13 15 3 -2
BITMAP
0060
0020
17A0
71A0
1120
2120
2520
2420
07E0
F820
1020
0820
0800
0800
07F8
ENDCHAR
STARTCHAR AF88
ENCODING 12884
SWIDTH 1800 0
DWIDTH 18 0
BBX 14 15 1 -2
BITMAP
0018
0068
1CE8
0448
0448
0A48
0218
FFE8
2008
07F8
0008
0008
07F8
0200
03FC
ENDCHAR
STARTCHAR AF90
ENCODING 12885
SWIDTH 1800 0
DWIDTH 18 0
BBX 12 15 2 -2
BITMAP
0030
0010
79D0
0890
0890
1490
1410
07F0
F810
0000
07F0
0410
0410
07F0
0400
ENDCHAR
STARTCHAR AF91
ENCODING 12886
SWIDTH 1800 0
DWIDTH 18 0
BBX 13 15 1 -2
BITMAP
0018
0008
1CE8
0448
0448
0A48
0A08
8FF8
7000
0E08
0208
03F8
0208
03F8
0208
ENDCHAR
STARTCHAR AF95
ENCODING 12887
SWIDTH 1800 0
DWIDTH 18 0
BBX 12 15 3 -2
BITMAP
0030
0010
F790
1190
1110
2510
2410
07F0
F810
0090
0340
0420
0420
0660
03C0
ENDCHAR
STARTCHAR AF9C
ENCODING 12888
SWIDTH 1800 0
DWIDTH 18 0
BBX 15 11 2 0
BITMAP
7DF8
0408
0408
0810
0810
1190
1C90
04A0
0480
0480
FFFE
ENDCHAR
STARTCHAR AFB8
ENCODING 12889
SWIDTH 1800 0
DWIDTH 18 0
BBX 15 15 2 -3
BITMAP
7CF8
0418
0410
0810
0810
0824
FFFE
0100
0100
0100
0100
0100
0100
0100
0100
ENDCHAR
STARTCHAR AFB9
ENCODING 12890
SWIDTH 1800 0
DWIDTH 18 0
BBX 15 16 2 -3
BITMAP
01F8
3C10
0410
0410
0820
0804
FFFE
0100
0100
0100
3FE0
0020
0020
0020
0020
0020
ENDCHAR
STARTCHAR AFBC
ENCODING 12891
SWIDTH 1800 0
DWIDTH 18 0
BBX 15 15 2 -2
BITMAP
7DF8
2410
0410
0810
0820
0806
FFFE
0100
0100
0100
7100
1100
1000
1000
1FF0
ENDCHAR
STARTCHAR AFC0
ENCODING 12892
SWIDTH 1800 0
DWIDTH 18 0
BBX 15 15 1 -2
BITMAP
3EFC
0208
0208
0408
0400
FFFE
0100
0100
1FF0
0020
0020
1FF0
0800
0800
07F0
ENDCHAR
STARTCHAR AFC7
ENCODING 12893
SWIDTH 1800 0
DWIDTH 18 0
BBX 15 15 2 -2
BITMAP
01F8
3C10
0410
0820
0800
FFFE
0100
00E0
3C00
07FC
7C40
20E0
2110
3910
00E0
ENDCHAR
STARTCHAR AFC8
ENCODING 12894
SWIDTH 1800 0
DWIDTH 18 0
BBX 15 16 2 -3
BITMAP
01F8
3C18
0410
0410
0800
0804
FFFE
0100
0100
1FF0
0820
0820
0820
0820
0FE0
0800
ENDCHAR
STARTCHAR AFC9
ENCODING 12895
SWIDTH 1800 0
DWIDTH 18 0
BBX 16 15 1 -2
BITMAP
3FFC
1208
0208
0208
0408
0410
FFFF
2080
1C90
0410
07F0
0410
0410
07F0
0410
ENDCHAR
STARTCHAR AFCB
ENCODING 12896
SWIDTH 1800 0
DWIDTH 18 0
BBX 15 15 2 -2
BITMAP
7C00
24F0
0410
0810
0820
1020
FFFE
0100
0100
0200
0300
0300
0680
0860
3010
ENDCHAR
STARTCHAR AFCD
ENCODING 12897
SWIDTH 1800 0
DWIDTH 18 0
BBX 15 15 2 -2
BITMAP
7E00
0678
0408
0410
0410
08FE
FF00
0100
0100
01C0
1E20
1020
1020
1840
0780
ENDCHAR
STARTCHAR AFCE
ENCODING 12898
SWIDTH 1800 0
DWIDTH 18 0
BBX 16 15 1 -2
BITMAP
3EF0
0208
0208
0408
0410
FFFF
0080
0080
0080
1FFC
0080
0180
0360
0418
1804
ENDCHAR
STARTCHAR AFD4
ENCODING 12899
SWIDTH 1800 0
DWIDTH 18 0
BBX 12 16 2 -2
BITMAP
0070
0010
0010
F790
1090
1110
2110
2150
FE90
25F0
0410
0410
0410
0410
0410
0010
ENDCHAR
STARTCHAR AFDC
ENCODING 12900
SWIDTH 1800 0
DWIDTH 18 0
BBX 14 15 2 -2
BITMAP
0038
0008
39C8
0888
1088
11C8
FE08
0408
0478
0FF8
0010
0010
0FF8
0400
07FC
ENDCHAR
STARTCHAR AFE8
ENCODING 12901
SWIDTH 1800 0
DWIDTH 18 0
BBX 14 15 2 -2
BITMAP
0018
9188
7288
1108
2108
2788
FC08
08F8
0808
1830
0430
0C20
1250
2148
4084
ENDCHAR
STARTCHAR AFE9
ENCODING 12902
SWIDTH 1800 0
DWIDTH 18 0
BBX 12 15 2 -2
BITMAP
0030
7FD0
0890
0890
0890
11D0
FE10
04F0
0410
0450
01A0
0210
0210
0330
01E0
ENDCHAR
STARTCHAR AFF0
ENCODING 12903
SWIDTH 1800 0
DWIDTH 18 0
BBX 13 16 2 -3
BITMAP
0030
00C8
0048
F648
2248
2248
2048
3F48
6848
0BC8
0848
0848
0848
0048
0008
0008
ENDCHAR
STARTCHAR AFF1
ENCODING 12904
SWIDTH 1800 0
DWIDTH 18 0
BBX 13 16 2 -3
BITMAP
0030
0048
0048
6648
2248
2248
2548
FA48
0BC8
0048
3FF0
1010
0010
0010
0010
0010
ENDCHAR
STARTCHAR AFF4
ENCODING 12905
SWIDTH 1800 0
DWIDTH 18 0
BBX 13 16 3 -2
BITMAP
0060
0030
0190
0090
EE90
2290
2490
4490
5C90
F090
1390
1090
1810
0800
0800
07F8
ENDCHAR
STARTCHAR AFF8
ENCODING 12906
SWIDTH 1800 0
DWIDTH 18 0
BBX 14 15 2 -2
BITMAP
0018
00C8
7748
1148
1248
2248
FC48
0848
0BC8
0FF8
0008
0008
07F8
0208
03FC
ENDCHAR
STARTCHAR B000
ENCODING 12907
SWIDTH 1800 0
DWIDTH 18 0
BBX 12 17 2 -3
BITMAP
0060
00B0
0050
0350
7650
2250
2250
2550
FA50
13D0
0000
0FF0
0410
0410
0410
07F0
0400
ENDCHAR
STARTCHAR B001
ENCODING 12908
SWIDTH 1800 0
DWIDTH 18 0
BBX 13 17 2 -3
BITMAP
0018
0088
0048
0048
6648
2248
2448
4648
F848
11C0
0C30
0410
07F0
0410
0410
07F0
0410
ENDCHAR
STARTCHAR B004
ENCODING 12909
SWIDTH 1800 0
DWIDTH 18 0
BBX 14 15 2 -2
BITMAP
0098
0048
2F48
6248
2248
2248
2348
FC48
09C8
0028
0610
0420
0A70
1348
2184
ENDCHAR
STARTCHAR B00C
ENCODING 12910
SWIDTH 1800 0
DWIDTH 18 0
BBX 11 16 3 -2
BITMAP
00E0
0020
0020
F720
2120
2120
2220
0260
1FA0
E820
0820
0820
0820
0820
0820
0020
ENDCHAR
STARTCHAR B010
ENCODING 12911
SWIDTH 1800 0
DWIDTH 18 0
BBX 15 15 1 -2
BITMAP
0018
0008
7BC8
0848
0888
1088
10F8
FF08
0208
0208
0408
0208
0200
0204
01FE
ENDCHAR
STARTCHAR B014
ENCODING 12912
SWIDTH 1800 0
DWIDTH 18 0
BBX 14 15 1 -2
BITMAP
0018
0008
3BC8
0888
0888
1138
FFC8
0408
0408
07F8
0008
0008
07F8
0200
03FC
ENDCHAR
STARTCHAR B01C
ENCODING 12913
SWIDTH 1800 0
DWIDTH 18 0
BBX 12 16 3 -3
BITMAP
0030
0010
FF90
1090
1110
1110
27F0
FC10
0810
1FE0
0820
0820
0820
0840
0FE0
0800
ENDCHAR
STARTCHAR B01D
ENCODING 12914
SWIDTH 1800 0
DWIDTH 18 0
BBX 13 16 1 -3
BITMAP
0038
0008
3FC8
0848
0888
0898
9FE8
6208
0208
0E18
0208
03F8
0208
0208
03F8
0208
ENDCHAR
STARTCHAR B028
ENCODING 12915
SWIDTH 1800 0
DWIDTH 18 0
BBX 15 15 1 -2
BITMAP
3EFC
0208
0208
0418
0410
0810
E7FE
1C20
0420
0420
0420
0420
0420
0420
0420
ENDCHAR
STARTCHAR B044
ENCODING 12916
SWIDTH 1800 0
DWIDTH 18 0
BBX 16 11 1 0
BITMAP
3E9C
026C
020C
0608
0408
0408
0410
0410
0012
FFFF
2000
ENDCHAR
STARTCHAR B045
ENCODING 12917
SWIDTH 1800 0
DWIDTH 18 0
BBX 16 15 1 -3
BITMAP
3EFC
020C
0408
0408
0810
C7FF
3800
0000
1FF8
0808
0008
0008
0008
0008
0008
ENDCHAR
STARTCHAR B048
ENCODING 12918
SWIDTH 1800 0
DWIDTH 18 0
BBX 16 13 1 -1
BITMAP
3EFC
0208
0408
0408
0408
0017
FFFF
2000
1800
0800
0800
0800
0FFC
ENDCHAR
STARTCHAR B04A
ENCODING 12919
SWIDTH 1800 0
DWIDTH 18 0
BBX 16 14 1 -2
BITMAP
3EFC
0204
0208
0408
FFFF
2000
00F0
3000
11FC
1030
10CC
1284
1C8C
0070
ENDCHAR
STARTCHAR B04C
ENCODING 12920
SWIDTH 1800 0
DWIDTH 18 0
BBX 16 14 1 -2
BITMAP
3E7C
0204
0204
0408
000F
FFF0
2000
0FF8
0010
0010
0FF8
0400
0400
03F8
ENDCHAR
STARTCHAR B04E
ENCODING 12921
SWIDTH 1800 0
DWIDTH 18 0
BBX 16 14 1 -2
BITMAP
3FFC
0204
0204
0408
0408
FFFF
2000
3E80
027C
0248
1C48
1048
177C
1840
ENDCHAR
STARTCHAR B053
ENCODING 12922
SWIDTH 1800 0
DWIDTH 18 0
BBX 16 15 1 -2
BITMAP
0600
1AFC
060C
0408
0408
FFFF
2000
0078
1E00
02FC
3E70
108C
1184
1ECC
0078
ENDCHAR
STARTCHAR B054
ENCODING 12923
SWIDTH 1800 0
DWIDTH 18 0
BBX 16 15 1 -2
BITMAP
0600
1AFC
020C
0408
0408
0002
FFFF
0000
0000
0FF8
0410
0410
0410
07F0
0400
ENDCHAR
STARTCHAR B055
ENCODING 12924
SWIDTH 1800 0
DWIDTH 18 0
BBX 16 15 1 -2
BITMAP
2600
3E7C
0204
0408
0408
0408
87FF
7800
0C10
0410
07F0
0410
0410
07F0
0410
ENDCHAR
STARTCHAR B057
ENCODING 12925
SWIDTH 1800 0
DWIDTH 18 0
BBX 16 15 1 -2
BITMAP
3E00
127C
020C
0208
0408
0400
800F
7FF0
0300
0180
0180
0340
0430
0818
3004
ENDCHAR
STARTCHAR B059
ENCODING 12926
SWIDTH 1800 0
DWIDTH 18 0
BBX 15 15 2 -2
BITMAP
0E00
7CF8
0408
0408
0810
0810
8FFE
7000
0100
0380
0C60
0820
0820
0440
0380
ENDCHAR
STARTCHAR B05D
ENCODING 13089
SWIDTH 1800 0
DWIDTH 18 0
BBX 16 13 1 -1
BITMAP
1EFC
0208
0408
0408
FFFF
0000
0000
1FF0
0800
0800
0FF0
0800
0FF8
ENDCHAR
STARTCHAR B07C
ENCODING 13090
SWIDTH 1800 0
DWIDTH 18 0
BBX 12 16 2 -3
BITMAP
0070
0010
0010
FFD0
0890
1090
1190
2110
2310
4210
8410
0810
0010
0010
0010
0010
ENDCHAR
STARTCHAR B07D
ENCODING 13091
SWIDTH 1800 0
DWIDTH 18 0
BBX 12 16 2 -3
BITMAP
0070
0010
7FD0
0890
1110
2110
4210
8410
0810
1000
3FF0
0810
0010
0010
0010
0010
ENDCHAR
STARTCHAR B080
ENCODING 13092
SWIDTH 1800 0
DWIDTH 18 0
BBX 14 16 2 -2
BITMAP
0070
0010
0010
FF90
1090
1110
2110
4210
8410
0810
1010
1C10
0400
0400
0408
07FC
ENDCHAR
STARTCHAR B084
ENCODING 13093
SWIDTH 1800 0
DWIDTH 18 0
BBX 13 15 2 -2
BITMAP
0070
0010
7F90
1190
2110
2210
4410
8810
1030
2FD0
0010
0FF0
0400
0400
03F8
ENDCHAR
STARTCHAR B08C
ENCODING 13094
SWIDTH 1800 0
DWIDTH 18 0
BBX 12 16 2 -3
BITMAP
0070
0010
7F90
1190
1110
2310
4210
8410
0810
1FF0
0410
0410
0410
0410
07F0
0400
ENDCHAR
STARTCHAR B08D
ENCODING 13095
SWIDTH 1800 0
DWIDTH 18 0
BBX 12 16 2 -3
BITMAP
0070
0010
7FD0
1090
1110
2110
4210
8410
0810
1C10
0410
07F0
0410
0410
07F0
0410
ENDCHAR
STARTCHAR B08F
ENCODING 13096
SWIDTH 1800 0
DWIDTH 18 0
BBX 12 16 3 -2
BITMAP
00E0
0020
0020
FF20
1120
2220
6220
4420
8820
1020
21A0
0100
0280
0440
0830
3010
ENDCHAR
STARTCHAR B091
ENCODING 13097
SWIDTH 1800 0
DWIDTH 18 0
BBX 11 16 3 -2
BITMAP
00E0
0020
0020
FFA0
1120
2120
6220
4420
8420
1820
2100
06C0
0820
0820
0C60
03C0
ENDCHAR
STARTCHAR B098
ENCODING 13098
SWIDTH 1800 0
DWIDTH 18 0
BBX 16 16 1 -3
BITMAP
0030
0008
0008
E008
2008
2008
2008
200B
206C
3F88
1008
0008
0008
0008
0008
0008
ENDCHAR
STARTCHAR B099
ENCODING 13099
SWIDTH 1800 0
DWIDTH 18 0
BBX 16 15 1 -2
BITMAP
0018
C008
2008
2008
2008
21CB
3E0C
0008
0008
0FF8
0008
0008
0008
0008
0008
ENDCHAR
STARTCHAR B09A
ENCODING 13100
SWIDTH 1800 0
DWIDTH 18 0
BBX 15 16 2 -3
BITMAP
0030
0010
C010
4010
4010
439E
7C10
0010
0000
7FE0
0420
0420
0420
0420
0420
0020
ENDCHAR
STARTCHAR B09C
ENCODING 13101
SWIDTH 1800 0
DWIDTH 18 0
BBX 15 15 2 -2
BITMAP
0060
0010
C010
4010
4010
4010
439E
7C10
0010
0010
1810
0810
0800
0800
0FF8
ENDCHAR
STARTCHAR B09F
ENCODING 13102
SWIDTH 1800 0
DWIDTH 18 0
BBX 14 15 3 -2
BITMAP
0060
0020
8020
4020
4020
4020
41FC
7E20
0020
0020
3FC0
1000
1000
1020
1FF0
ENDCHAR
STARTCHAR B0A0
ENCODING 13103
SWIDTH 1800 0
DWIDTH 18 0
BBX 15 15 2 -2
BITMAP
0070
8010
4010
4010
4010
439E
7C10
0010
0030
1FE0
0020
1FF0
0800
0800
07F0
ENDCHAR
STARTCHAR B0A1
ENCODING 13104
SWIDTH 1800 0
DWIDTH 18 0
BBX 15 15 2 -2
BITMAP
0030
0010
C010
4010
4050
479E
7810
0010
7FF0
0610
0610
3810
1010
1E10
0010
ENDCHAR
STARTCHAR B0A2
ENCODING 13105
SWIDTH 1800 0
DWIDTH 18 0
BBX 16 15 1 -2
BITMAP
0038
0008
E008
2008
2008
203F
23C8
3C08
0600
1A7C
0248
3E48
1048
117C
1E40
ENDCHAR
STARTCHAR B0A8
ENCODING 13106
SWIDTH 1800 0
DWIDTH 18 0
BBX 17 15 1 -2
BITMAP
003800
000800
E00800
200800
200800
200F80
21C800
3E0800
000800
0FF800
041000
041000
041000
07F000
040000
ENDCHAR
STARTCHAR B0A9
ENCODING 13107
SWIDTH 1800 0
DWIDTH 18 0
BBX 16 15 1 -2
BITMAP
0018
0008
E008
2008
2008
202F
21C8
3E08
0C08
0408
07F8
0408
0408
07F8
0408
ENDCHAR
STARTCHAR B0AB
ENCODING 13108
SWIDTH 1800 0
DWIDTH 18 0
BBX 14 15 3 -2
BITMAP
0060
0020
C020
4020
4020
402C
43B0
7C20
0020
0120
0120
0280
0440
0830
3010
ENDCHAR
STARTCHAR B0AC
ENCODING 13109
SWIDTH 1800 0
DWIDTH 18 0
BBX 16 15 1 -2
BITMAP
0018
0008
E008
2008
2008
2009
21CE
3E08
0008
0218
0210
0610
0DA8
18C4
2082
ENDCHAR
STARTCHAR B0AD
ENCODING 13110
SWIDTH 1800 0
DWIDTH 18 0
BBX 16 15 1 -2
BITMAP
0018
0008
E008
2008
2008
2008
20CF
3F08
0048
00E8
0318
0208
0208
0318
00F0
ENDCHAR
STARTCHAR B0AE
ENCODING 13111
SWIDTH 1800 0
DWIDTH 18 0
BBX 15 15 2 -2
BITMAP
0030
0010
C010
4010
4010
419E
7E10
0010
0010
3FF8
0080
0180
0240
0430
1808
ENDCHAR
STARTCHAR B0AF
ENCODING 13112
SWIDTH 1800 0
DWIDTH 18 0
BBX 16 16 1 -2
BITMAP
0038
0008
E008
2008
2008
200F
21C8
3E08
0000
01E0
0FFC
0040
00C0
0130
060C
0800
ENDCHAR
STARTCHAR B0B1
ENCODING 13113
SWIDTH 1800 0
DWIDTH 18 0
BBX 16 14 1 -1
BITMAP
0018
E008
2008
2008
2008
21CF
3E08
0008
0FF8
0400
0400
07F8
0400
07FC
ENDCHAR
STARTCHAR B0B3
ENCODING 13114
SWIDTH 1800 0
DWIDTH 18 0
BBX 14 15 2 -2
BITMAP
0030
0010
C010
4010
4010
439C
7C10
03D0
0000
3FF8
03C0
0420
0420
0420
03C0
ENDCHAR
STARTCHAR B0B4
ENCODING 13115
SWIDTH 1800 0
DWIDTH 18 0
BBX 13 16 2 -2
BITMAP
0030
0188
0088
0088
C088
4088
4088
4088
40F8
4088
5F88
7088
0088
0088
0088
0008
ENDCHAR
STARTCHAR B0B5
ENCODING 13116
SWIDTH 1800 0
DWIDTH 18 0
BBX 13 15 2 -2
BITMAP
0198
0088
C088
4088
4088
40F8
4788
7888
0088
1FF0
0810
0010
0010
0010
0010
ENDCHAR
STARTCHAR B0B8
ENCODING 13117
SWIDTH 1800 0
DWIDTH 18 0
BBX 14 16 2 -2
BITMAP
0010
0188
0088
C088
4088
4088
4088
47F8
7888
0088
0088
0C88
0408
0400
0400
07FC
ENDCHAR
STARTCHAR B0BC
ENCODING 13118
SWIDTH 1800 0
DWIDTH 18 0
BBX 14 16 2 -2
BITMAP
0020
0318
0088
C088
4088
4088
40F8
4F88
7088
0080
1FF8
0010
0FF8
0400
0400
07FC
ENDCHAR
STARTCHAR B0C4
ENCODING 13119
SWIDTH 1800 0
DWIDTH 18 0
BBX 13 17 2 -3
BITMAP
0018
0188
0088
C088
4088
4088
40F8
4788
7888
0088
0000
0FF8
0418
0410
0410
07F8
0400
ENDCHAR
STARTCHAR B0C5
ENCODING 13120
SWIDTH 1800 0
DWIDTH 18 0
BBX 13 16 2 -2
BITMAP
0030
0188
0088
C088
4088
4088
40F8
4388
7C88
1C90
0410
07F0
0410
0410
07F0
0410
ENDCHAR
STARTCHAR B0C7
ENCODING 13121
SWIDTH 1800 0
DWIDTH 18 0
BBX 14 16 1 -2
BITMAP
0018
0184
0044
C044
2044
2044
2044
20FC
2744
3844
0084
00C4
00C0
0130
060C
0804
ENDCHAR
STARTCHAR B0C8
ENCODING 13122
SWIDTH 1800 0
DWIDTH 18 0
BBX 14 16 2 -2
BITMAP
0018
0188
0088
C088
4088
4088
41F8
4688
7888
0080
0C10
0410
0E30
0948
114C
6184
ENDCHAR
STARTCHAR B0C9
ENCODING 13123
SWIDTH 1800 0
DWIDTH 18 0
BBX 13 16 2 -2
BITMAP
0030
0388
0088
C088
4088
4088
40F8
4188
5E88
6088
01C0
0220
0410
0410
0630
01E0
ENDCHAR
STARTCHAR B0D0
ENCODING 13124
SWIDTH 1800 0
DWIDTH 18 0
BBX 15 16 2 -3
BITMAP
0060
0010
0010
C010
4010
401E
4010
4010
4090
7F10
601E
0010
0010
0010
0010
0010
ENDCHAR
STARTCHAR B0D1
ENCODING 13125
SWIDTH 1800 0
DWIDTH 18 0
BBX 14 16 3 -2
BITMAP
0060
0020
0020
C020
403C
4020
41E0
7E2C
0030
0000
3FE0
0020
0020
0020
0020
0020
ENDCHAR
STARTCHAR B0D4
ENCODING 13126
SWIDTH 1800 0
DWIDTH 18 0
BBX 15 16 2 -2
BITMAP
0030
0010
0010
E010
2016
2018
2010
20F0
3F10
001E
0010
1C10
0400
0400
0400
07FC
ENDCHAR
STARTCHAR B0D8
ENCODING 13127
SWIDTH 1800 0
DWIDTH 18 0
BBX 15 15 2 -2
BITMAP
0070
0010
C010
2016
2018
2010
21F0
3E1E
0010
1FF0
0010
0020
0FF0
0800
0FF8
ENDCHAR
STARTCHAR B0E0
ENCODING 13128
SWIDTH 1800 0
DWIDTH 18 0
BBX 15 15 2 -2
BITMAP
0070
0010
E010
2016
2018
2010
21F0
3E1E
0010
0FF0
0820
0820
0820
0FE0
0800
ENDCHAR
STARTCHAR B0E5
ENCODING 13129
SWIDTH 1800 0
DWIDTH 18 0
BBX 16 15 1 -2
BITMAP
0030
0008
E008
2008
200F
2008
21C8
3E09
000E
0048
01B0
0208
0208
0318
00F0
ENDCHAR
STARTCHAR B108
ENCODING 13130
SWIDTH 1800 0
DWIDTH 18 0
BBX 12 16 2 -3
BITMAP
0070
0010
8010
4010
4010
43F0
4010
4010
4050
4790
7810
0010
0010
0010
0010
0010
ENDCHAR
STARTCHAR B109
ENCODING 13131
SWIDTH 1800 0
DWIDTH 18 0
BBX 11 15 3 -2
BITMAP
0060
0020
C020
4020
43E0
4020
4120
7E20
0020
3FE0
1020
0020
0020
0020
0020
ENDCHAR
STARTCHAR B10B
ENCODING 13132
SWIDTH 1800 0
DWIDTH 18 0
BBX 14 16 2 -2
BITMAP
0070
0010
0010
C270
4190
4010
4090
7F10
2000
0060
FC10
0420
0430
0448
0484
0504
ENDCHAR
STARTCHAR B10C
ENCODING 13133
SWIDTH 1800 0
DWIDTH 18 0
BBX 15 14 1 -1
BITMAP
0030
0008
E008
2008
21F8
2008
2008
2188
3E08
1C08
0408
0408
0400
07FE
ENDCHAR
STARTCHAR B110
ENCODING 13134
SWIDTH 1800 0
DWIDTH 18 0
BBX 14 15 2 -2
BITMAP
0060
0010
C010
43F0
4010
4010
7E10
0010
0070
0790
0020
0FF0
0400
0400
07FC
ENDCHAR
STARTCHAR B112
ENCODING 13135
SWIDTH 1800 0
DWIDTH 18 0
BBX 13 15 2 -2
BITMAP
0060
0030
C010
43F0
4010
4010
5E10
6010
0200
1EF8
0290
3E90
1090
11F8
1E80
ENDCHAR
STARTCHAR B113
ENCODING 13136
SWIDTH 1800 0
DWIDTH 18 0
BBX 13 15 2 -2
BITMAP
0070
8018
4018
43F8
4010
4110
7E10
0010
0190
7C90
04F0
6C90
3090
22F0
3C90
ENDCHAR
STARTCHAR B118
ENCODING 13137
SWIDTH 1800 0
DWIDTH 18 0
BBX 12 15 2 -2
BITMAP
0030
0010
C010
43F0
4010
4010
4110
7E10
0000
0FF0
0410
0410
0420
07F0
0400
ENDCHAR
STARTCHAR B119
ENCODING 13138
SWIDTH 1800 0
DWIDTH 18 0
BBX 13 16 2 -3
BITMAP
0030
0018
C018
43F8
4010
4010
4190
7E10
0000
0C10
0410
07F0
0410
0410
07F0
0410
ENDCHAR
STARTCHAR B11B
ENCODING 13139
SWIDTH 1800 0
DWIDTH 18 0
BBX 13 15 2 -2
BITMAP
0030
0018
C018
43F8
4010
4010
4190
7E10
0010
0090
0080
0140
0220
0C18
1008
ENDCHAR
STARTCHAR B11C
ENCODING 13140
SWIDTH 1800 0
DWIDTH 18 0
BBX 14 15 2 -2
BITMAP
0030
8008
4008
4108
40F8
4008
4308
7C08
0000
0410
0410
0C30
0B68
11C4
6104
ENDCHAR
STARTCHAR B11D
ENCODING 13141
SWIDTH 1800 0
DWIDTH 18 0
BBX 12 15 2 -2
BITMAP
0030
0010
C010
43F0
4010
4010
4310
7C10
0090
01C0
0630
0410
0410
0630
01E0
ENDCHAR
STARTCHAR B123
ENCODING 13142
SWIDTH 1800 0
DWIDTH 18 0
BBX 12 15 3 -2
BITMAP
0070
8010
4010
41F0
4010
4110
7E10
0790
0000
7FF0
0180
0640
0840
0440
0780
ENDCHAR
STARTCHAR B124
ENCODING 13143
SWIDTH 1800 0
DWIDTH 18 0
BBX 14 16 1 -3
BITMAP
0008
00C4
0044
E044
2044
2044
23C4
2044
2044
2644
3844
0044
0044
0044
0004
0004
ENDCHAR
STARTCHAR B125
ENCODING 13144
SWIDTH 1800 0
DWIDTH 18 0
BBX 13 17 2 -3
BITMAP
0038
0308
0088
C088
4088
4788
4088
4688
7888
0080
10F0
1F10
0010
0010
0010
0010
0010
ENDCHAR
STARTCHAR B128
ENCODING 13145
SWIDTH 1800 0
DWIDTH 18 0
BBX 14 16 2 -2
BITMAP
0010
0008
0088
0088
C088
4088
4788
4088
4488
7888
0088
1C88
0400
0400
0400
07FC
ENDCHAR
STARTCHAR B12C
ENCODING 13146
SWIDTH 1800 0
DWIDTH 18 0
BBX 14 16 2 -2
BITMAP
0030
0010
0190
E090
2090
2790
2090
2190
3E90
0080
0FF8
0010
0FF8
0400
0400
07FC
ENDCHAR
STARTCHAR B134
ENCODING 13147
SWIDTH 1800 0
DWIDTH 18 0
BBX 12 16 3 -3
BITMAP
0030
0310
8110
4110
5F10
4110
4110
7910
0110
0010
1FE0
0820
0820
0820
0FE0
0800
ENDCHAR
STARTCHAR B135
ENCODING 13148
SWIDTH 1800 0
DWIDTH 18 0
BBX 12 16 2 -3
BITMAP
0030
0190
8090
4090
4F90
4090
4090
7890
0090
1C10
0410
07F0
0410
0410
07F0
0410
ENDCHAR
STARTCHAR B137
ENCODING 13149
SWIDTH 1800 0
DWIDTH 18 0
BBX 13 16 2 -3
BITMAP
0018
0188
0088
C088
4088
4788
4088
4688
7888
0188
0088
01C0
0320
0418
0808
1000
ENDCHAR
STARTCHAR B138
ENCODING 13150
SWIDTH 1800 0
DWIDTH 18 0
BBX 13 15 3 -2
BITMAP
0060
0320
8120
4120
4F20
4120
4120
7920
0120
1860
0860
0840
14A0
2318
4208
ENDCHAR
STARTCHAR B139
ENCODING 13151
SWIDTH 1800 0
DWIDTH 18 0
BBX 13 15 1 -2
BITMAP
0018
00C8
C048
2048
23C8
2048
2048
3E48
0048
0048
01B0
0208
0208
0318
01F0
ENDCHAR
STARTCHAR B140
ENCODING 13152
SWIDTH 1800 0
DWIDTH 18 0
BBX 13 16 1 -3
BITMAP
0038
0008
E008
2008
20F8
2008
2008
21F8
2008
2308
3C08
0008
0008
0008
0008
0008
ENDCHAR
STARTCHAR B141
ENCODING 13153
SWIDTH 1800 0
DWIDTH 18 0
BBX 12 15 2 -2
BITMAP
0070
8010
4010
41F0
4010
4110
5E30
60D0
0010
3FF0
0010
0010
0010
0010
0010
ENDCHAR
STARTCHAR B144
ENCODING 13154
SWIDTH 1800 0
DWIDTH 18 0
BBX 15 15 1 -2
BITMAP
0038
0008
E008
2008
2078
2008
2108
2EF8
3008
0008
0808
0400
0400
0400
07FE
ENDCHAR
STARTCHAR B148
ENCODING 13155
SWIDTH 1800 0
DWIDTH 18 0
BBX 14 15 2 -2
BITMAP
0070
0010
C010
41F0
4010
4010
43F0
7C10
0010
0FF8
0010
0010
0FF8
0400
07FC
ENDCHAR
STARTCHAR B150
ENCODING 13156
SWIDTH 1800 0
DWIDTH 18 0
BBX 13 16 2 -3
BITMAP
0070
0010
C010
41F0
4010
4110
4610
79F0
0010
0000
0FF8
0410
0410
0410
07F0
0400
ENDCHAR
STARTCHAR B151
ENCODING 13157
SWIDTH 1800 0
DWIDTH 18 0
BBX 13 16 2 -3
BITMAP
0038
0008
E008
20F8
2008
2008
21F8
2E08
3008
0610
0210
03F0
0210
0210
03F0
0210
ENDCHAR
STARTCHAR B154
ENCODING 13158
SWIDTH 1800 0
DWIDTH 18 0
BBX 14 15 2 -2
BITMAP
0060
0010
C010
41F0
4010
4110
4E10
70F0
0010
0C30
0410
0430
0B68
114C
6084
ENDCHAR
STARTCHAR B155
ENCODING 13159
SWIDTH 1800 0
DWIDTH 18 0
BBX 11 15 3 -2
BITMAP
0060
0020
C020
43E0
4020
4120
47E0
7820
0020
0100
06C0
0820
0820
0C60
03C0
ENDCHAR
STARTCHAR B158
ENCODING 13160
SWIDTH 1800 0
DWIDTH 18 0
BBX 12 17 3 -3
BITMAP
0070
0010
0010
C1F0
4010
4010
43F0
4010
7810
0010
0000
3FF0
0020
01E0
3E20
0040
00C0
ENDCHAR
STARTCHAR B15C
ENCODING 13161
SWIDTH 1800 0
DWIDTH 18 0
BBX 13 16 2 -2
BITMAP
0030
0308
0088
0088
C088
4F88
4088
4088
4788
4088
5C88
6088
0088
0088
0088
0008
ENDCHAR
STARTCHAR B160
ENCODING 13162
SWIDTH 1800 0
DWIDTH 18 0
BBX 15 15 1 -2
BITMAP
0018
00C8
0048
E048
23C8
2048
27C8
2148
3E48
2048
0E48
0208
0200
0200
03FE
ENDCHAR
STARTCHAR B178
ENCODING 13163
SWIDTH 1800 0
DWIDTH 18 0
BBX 15 11 2 1
BITMAP
E000
2000
2000
2000
2010
3FF8
0300
0100
0100
0100
FFFE
ENDCHAR
STARTCHAR B179
ENCODING 13164
SWIDTH 1800 0
DWIDTH 18 0
BBX 15 15 2 -3
BITMAP
3000
1000
1010
0FF8
0100
0100
FFFE
0000
0000
7FE0
2020
0020
0020
0020
0020
ENDCHAR
STARTCHAR B17C
ENCODING 13165
SWIDTH 1800 0
DWIDTH 18 0
BBX 16 13 1 -1
BITMAP
7000
1000
1008
1FF8
0100
0100
017F
FF80
1000
0800
0800
0800
0FFC
ENDCHAR
STARTCHAR B180
ENCODING 13166
SWIDTH 1800 0
DWIDTH 18 0
BBX 15 14 1 -2
BITMAP
3000
1000
1010
0FF8
0100
FFFE
0000
0000
1FF0
0010
1FF0
0800
0800
0FFC
ENDCHAR
STARTCHAR B182
ENCODING 13167
SWIDTH 1800 0
DWIDTH 18 0
BBX 15 14 2 -2
BITMAP
3000
1000
1010
0FF8
0100
FFFE
0000
0000
3DF8
0510
3D10
2310
3CF0
0080
ENDCHAR
STARTCHAR B188
ENCODING 13168
SWIDTH 1800 0
DWIDTH 18 0
BBX 15 16 2 -3
BITMAP
6000
1000
1000
1010
0FF8
0100
0100
FFFE
0000
0000
1FF0
0830
0820
0820
0FF0
0800
ENDCHAR
ENDFONT
